<!-- Generator: Adobe Illustrator 19.2.1, SVG Export Plug-In  -->
<svg version="1.1"
	 xmlns="http://www.w3.org/2000/svg" xmlns:xlink="http://www.w3.org/1999/xlink" xmlns:a="http://ns.adobe.com/AdobeSVGViewerExtensions/3.0/"
	 x="0px" y="0px" width="121.9px" height="72.4px" viewBox="0 0 121.9 72.4" style="enable-background:new 0 0 121.9 72.4;"
	 xml:space="preserve">
<style type="text/css">
	.st0{fill:#E84F7A;}
	.st1{fill:#FFFFFF;}
</style>
<defs>
</defs>
<g>
	<path class="st0" d="M35.8,72.4C40.3,62,48,53.5,54.1,44c6.1-9.5,10.8-20.9,8.2-31.9c-0.6-2.6-1.7-5.1-3.4-7.2
		C54.5-0.3,46.3-1.2,40,1.5S29.1,9.7,25.8,15.6c-4.1-1.5-8.2-2.9-12.5-3c-4.3-0.1-8.9,1.6-11.3,5.2c-1.6,2.5-2.1,5.6-1.9,8.5
		c0.2,4.7,1.8,9.3,4.4,13.2c4.3,6.3,11,10.3,16.8,15.3C27,59.8,32,65.7,35.8,72.4"/>
	<path class="st0" d="M75.5,67.6c7.6-3.1,16-3.6,24-5.4c8-1.8,16.3-5.3,20.5-12.3c1-1.7,1.8-3.5,1.9-5.4c0.4-4.9-3.3-9.5-7.9-11.3
		c-4.6-1.8-9.8-1.3-14.6,0.1c-1.3-2.8-2.7-5.7-4.9-7.9c-2.2-2.2-5.4-3.7-8.5-3.1c-2.1,0.4-3.9,1.8-5.3,3.4c-2.3,2.5-3.8,5.7-4.5,9
		c-1,5.4,0.4,10.9,0.8,16.4C77.4,56.7,76.9,62.2,75.5,67.6"/>
	<path class="st1" d="M36.1,15.9c2.2-4.9,8.8-7.3,13.6-4.8c4.8,2.5,6.7,9.3,3.8,13.8c0.8-1.8,0.4-3.9-0.7-5.5
		c-1.1-1.6-2.7-2.8-4.4-3.7C44.5,13.7,39.4,13.1,36.1,15.9"/>
	<path class="st1" d="M104.5,38.6c3.6-1.4,8.3,0.7,9.5,4.4c1.2,3.7-1.3,8.2-5.1,9c1.3-0.5,2.2-1.8,2.5-3.2c0.3-1.4,0-2.8-0.4-4.1
		C110,41.7,107.6,38.9,104.5,38.6"/>
</g>
</svg>
