<!-- Generator: Adobe Illustrator 19.2.1, SVG Export Plug-In  -->
<svg version="1.1"
	 xmlns="http://www.w3.org/2000/svg" xmlns:xlink="http://www.w3.org/1999/xlink" xmlns:a="http://ns.adobe.com/AdobeSVGViewerExtensions/3.0/"
	 x="0px" y="0px" width="21.2px" height="21.7px" viewBox="0 0 21.2 21.7" style="enable-background:new 0 0 21.2 21.7;"
	 xml:space="preserve">
<style type="text/css">
	.st0{fill:#FFFFFF;}
</style>
<defs>
</defs>
<g>
</g>
<g>
	<g>
		<g>
			<g>
				<g>
					<path class="st0" d="M10.6,21.1c0-0.1,0-0.3-0.1-0.2l-0.1,0.3L10.6,21.1z"/>
					<path class="st0" d="M10,20.5c-0.1,0.2-0.3,0.4-0.2,0.7c0.1-0.3,0.1-0.2,0.3-0.6c0.1,0,0.2,0.1,0.1,0.2c0-0.1,0.1,0.1,0.2-0.1
						c-0.1-0.3-0.2-0.3-0.4-0.1C9.9,20.6,10,20.5,10,20.5z"/>
					<path class="st0" d="M3.2,16.2L3.2,16.2C3.2,16.2,3.2,16.2,3.2,16.2z"/>
					<path class="st0" d="M1.7,11.5C1.7,11.6,1.8,11.6,1.7,11.5C1.8,11.6,1.8,11.5,1.7,11.5z"/>
					<path class="st0" d="M2.1,10.7C2.1,10.7,2.1,10.8,2.1,10.7C2.1,10.8,2.1,10.7,2.1,10.7z"/>
					<path class="st0" d="M3.2,16.2l0-0.2C3.1,16.1,3.2,16.1,3.2,16.2z"/>
					<path class="st0" d="M8.7,21.1C8.7,21.1,8.7,21.1,8.7,21.1C8.7,21.1,8.7,21.1,8.7,21.1L8.7,21.1z"/>
					<path class="st0" d="M4.9,17.6L4.9,17.6c0.1,0,0.1,0,0.1-0.1L4.9,17.6z"/>
					<path class="st0" d="M6.2,18.5c0,0-0.2,0.2-0.3,0.3c0.1-0.1,0.1-0.1,0.2-0.1C6.2,18.6,6.2,18.6,6.2,18.5z"/>
					<path class="st0" d="M8.5,19.9L8.5,19.9C8.5,19.9,8.5,19.9,8.5,19.9z"/>
					<path class="st0" d="M4.1,16.7C4.1,16.7,4.1,16.7,4.1,16.7C4.1,16.7,4.1,16.7,4.1,16.7z"/>
					<path class="st0" d="M12.9,21.5C12.9,21.5,12.9,21.5,12.9,21.5C12.9,21.5,12.9,21.5,12.9,21.5z"/>
					<polygon class="st0" points="10.6,20.4 10.6,20.4 10.6,20.2 					"/>
					<path class="st0" d="M2.6,9.3L2.6,9.3C2.6,9.4,2.6,9.4,2.6,9.3z"/>
					<path class="st0" d="M12.3,2.8c-0.1-0.3,0.3-0.3,0.1-0.6C12.5,2.3,12.2,2.6,12.3,2.8z"/>
					<path class="st0" d="M8.6,21.1C8.6,21.1,8.6,21.1,8.6,21.1C8.6,21.1,8.6,21.1,8.6,21.1z"/>
					<path class="st0" d="M12.5,2.2L12.5,2.2L12.5,2.2C12.5,2.2,12.5,2.2,12.5,2.2z"/>
					<path class="st0" d="M3.7,6.3c0,0-0.1,0-0.1,0C3.6,6.3,3.6,6.3,3.7,6.3z"/>
					<path class="st0" d="M2.2,8.4L2.2,8.4C2.3,8.3,2.3,8.4,2.2,8.4z"/>
					<path class="st0" d="M4.2,5C4.2,5,4.3,5,4.2,5C4.3,5,4.3,5,4.2,5C4.3,5,4.3,5,4.2,5z"/>
					<path class="st0" d="M5.2,4.1C5.2,4.1,5.2,4.1,5.2,4.1L5.2,4.1L5.2,4.1z"/>
					<path class="st0" d="M17.5,19.1c-0.1,0-0.2-0.1-0.2-0.1C17.4,19.1,17.2,19.3,17.5,19.1z"/>
					<path class="st0" d="M8.7,21c0,0.1,0,0.1-0.1,0.1c0,0,0,0,0.1,0C8.7,21,8.7,21,8.7,21z"/>
					<path class="st0" d="M2.6,3.5l0.2-0.2C2.8,3.3,2.7,3.4,2.6,3.5z"/>
					<path class="st0" d="M20.8,8L20.8,8C20.8,8,20.8,8,20.8,8z"/>
					<path class="st0" d="M3.4,2.7c0.1,0,0.2,0.1,0.2,0c0,0,0,0,0-0.1L3.4,2.7z"/>
					<path class="st0" d="M17.2,19L17.2,19L17.2,19z"/>
					<path class="st0" d="M16.1,20.5c0.2-0.1-0.1-0.4-0.1-0.6c0.2-0.2,0.3,0.2,0.5,0.3c0.1-0.2,0.1-0.5,0.2-0.6c0,0,0.1,0,0.1,0.1
						c0-0.4,0.5-0.4,0.4-0.8c0,0,0.1,0,0.1,0.1c-0.1-0.1-0.3-0.3-0.4-0.4c0.1-0.1,0-0.3,0.2-0.2c-0.1,0,0,0.1,0,0.2l0-0.2
						c0.3,0.2,0,0.2,0.1,0.4c0.1-0.2,0.1-0.6,0.3-0.7c0.3,0.2-0.2,0.4,0.2,0.4l-0.3,0.1c0.5,0.3-0.2,0.1,0.4,0.4
						c0.3-0.2,0.2-0.4,0.5-0.6c-0.1-0.2-0.2-0.2-0.3-0.4c0.1-0.6,0.9,0.3,0.8-0.3c-0.1-0.2-0.4-0.5-0.1-0.6l0.2,0.3
						c0.2-0.3-0.3-0.5,0.1-0.6c0.1,0.1-0.1,0.3,0,0.3c0.4,0-0.1-0.3,0-0.4l0.3,0.2c0.2-0.4,0.2-0.8,0.3-1.2c0.1,0.1,0.1,0.2,0.3,0.1
						c0-0.3,0.2-0.5,0.3-0.8c0.2-0.2,0.3-0.5,0.5-0.7l-0.2-0.3c0,0,0.1,0,0.2,0c0.2-0.2-0.2-0.1-0.3-0.2c0-0.1,0.2-0.1,0.3,0
						c-0.1-0.4-0.3-1.1,0.1-1.4l0.1,0.1c0.2-0.3-0.5-0.4-0.2-0.6l0,0.1c0.2-0.6-0.1-1.3,0.3-1.8c-0.4-0.1,0.2-0.6-0.5-0.6
						c0.2-0.4,0.4-0.3,0.5-0.8c0-0.1-0.4-0.1-0.5-0.3L21,8.6l-0.4-0.1l0.3-0.2l-0.1-0.1c0,0.1-0.1,0.2-0.2,0.2
						c-0.2-0.2,0.1-0.6,0.2-0.7l-0.4-0.5c0.1,0,0.2,0,0.3,0.1C20.3,7,21,7,20.6,6.9c-0.1,0.1-0.2,0-0.2,0.1c0.1-0.2,0-0.5-0.2-0.7
						l0.2-0.1c-0.1-0.4-0.5-0.8-0.8-1.2c0,0.2-0.3,0.4-0.4,0.3l0.2-0.2c-0.2,0,0,0.2-0.3,0.2c-0.1-0.2,0.2-0.3,0.4-0.3l-0.2-0.1
						c0.1-0.1,0.1-0.1,0.3-0.1c-0.2,0,0-0.5-0.3-0.4l0.1-0.1c-0.3-0.4-0.5-0.5-0.8-0.8c-0.2,0.2-0.3,0-0.5,0.1
						c-0.1-0.3-0.2-0.6-0.5-0.8c-0.3,0-0.2,0.1-0.4,0.2c0.1-0.2-0.1-0.4,0.1-0.4c-0.4-0.2-0.4-0.3-1-0.4c0,0.1,0,0.2-0.1,0.2
						c-0.1,0-0.1-0.2,0-0.3l0,0c-0.7,0-0.9-1.3-1.5-1l0,0L14,1.1C13.8,1,14.2,1,14.1,0.8c-0.6,0.2-0.8-0.3-1.3-0.1
						c-0.2-0.8-1.2-0.2-1.6-0.6l0,0.2C11.1,0.3,11.1,0.1,11,0c0,0.1,0.1,0.2,0,0.3c-1,0.2-2.1-0.2-3.1-0.1C7.5,0.2,8,1.1,7.4,0.8
						l0-0.4C7.1,0.8,6.8,0.9,6.4,1C6,1.2,5.7,1.3,5.4,1.6c0-0.1,0-0.2,0-0.2C5.2,1.3,4.9,1.7,5.1,1.9c-0.1,0-0.1-0.1-0.2-0.2
						C4.6,1.7,4.6,2.2,4.5,2c0,0,0-0.1,0-0.1c0,0.2-0.4,0.3-0.2,0.4C4,2.4,3.9,2.7,3.7,2.7C3.8,3.1,3.2,3,3.5,3.3
						C3.2,3,2.9,3.4,2.9,3.6c-0.1-0.1-0.2,0-0.3-0.2C2.5,3.6,2.4,3.8,2.6,4C1.9,3.9,2.5,4.8,1.8,4.5C1.7,5.1,1.5,5.7,1.4,6.2
						C1,6,1.6,5.7,1.2,5.5C1.1,6,1.3,6.4,1,6.8C0.9,6.9,0.9,6.7,0.8,6.6c0,0.5-0.4,0.9-0.3,1.4c0,0-0.1-0.1-0.1-0.1
						c0,0.1-0.1,0.2,0.1,0.2l0-0.1C0.8,8,1,8.5,1.2,8.5c-0.5-0.3-0.2,0.4-0.9,0c0,0.1,0.1,0.2,0.2,0.2c-0.1,0.1-0.1,0.1-0.3,0
						c0,0.3,0.3,0.3,0.2,0.5c-0.1,0-0.1-0.1-0.2-0.1c0.2,0.2,0.3,0.3,0.2,0.6c-0.1,0-0.1,0-0.1-0.1c0,0.4,0.5,0.7,0.2,1.1
						c-0.4-0.1-0.1,0.1-0.5,0.2c0,0,0.1,0.2,0.1,0.2L0.3,11c0,0.2,0.3,0.4,0.2,0.6l-0.2-0.1l0.1,0.4l0.1-0.2
						c0.2,0.2,0.5-0.1,0.4,0.2c0,0,0,0.2-0.2,0.3l0,0c0.1,0.1,0.3,0.2,0.2,0.3c-0.1,0.1-0.4,0-0.5,0.1c0.3,0,0.2,0.5,0.5,0.5
						c-0.1,0-0.3,0-0.3,0l0.3,0c-0.1,0.1-0.1,0.1-0.2,0.1c0,0.3,0.4-0.2,0.3,0.2c0,0-0.1,0-0.1,0c0,0.4,0.3,0.6,0.3,0.9
						c-0.3,0.2-0.2-0.2-0.4,0c0.2,0.4,0.7,0.7,0.9,1.1l0-0.1c0.5-0.2-0.1,0.4,0.2,0.5c-0.1,0-0.3,0.1-0.2,0.1
						c0.1,0.3,0.4,0.5,0.8,0.7l-0.1,0c0,0.2,0.2,0.4,0.3,0.6c0.1,0,0.2,0.1,0.3-0.1c-0.1,0.5,0.2,0.6,0.4,0.7
						c0.3,0.1,0.5,0.2,0.5,0.6c0,0-0.2,0-0.2,0L4,18.6c0.1-0.2,0-0.1,0.1-0.3c0.1-0.1,0.3-0.1,0.4,0c-0.2,0-0.2,0.3-0.3,0.4
						c0-0.1,0.1-0.1,0.1-0.2c-0.1,0.5,0.3-0.3,0.4,0.1l-0.1,0.1c0.1,0,0.3,0,0.4,0.1c-0.1,0.2-0.2,0-0.3,0.2
						c0.2,0.1,0.6-0.2,0.5,0.1c-0.1,0-0.2,0-0.3,0c0,0.4,0,0.3,0.1,0.4l0,0l0.2,0.3l0-0.1c0.5-0.5,0.4,0.1,0.9-0.1
						c-0.5,0.3-0.2,0.2-0.3,0.5c0,0.1,0.1,0.2,0,0.3c0.2-0.2,0.1,0.3,0.5,0c0,0.1,0.1,0.1,0,0.3c0.2,0,0-0.2,0.1-0.3
						c0.4-0.2,0.5,0.6,1,0.3c0.4-0.1,0.5-0.4,0.9-0.5c0.1,0.2-0.2,0.3-0.2,0.3c0.1,0.2,0.3,0.2,0.5,0.1c0,0.1,0,0.2,0,0.3
						c0.1,0,0.2-0.3,0.3-0.2c0,0.1-0.1,0.3-0.2,0.4c0.2-0.1,0.4-0.2,0.5-0.3c0,0.2-0.1,0.2-0.2,0.3c0.2,0,0.5-0.1,0.6-0.4l-0.1-0.1
						c0.1,0,0,0.2,0,0.3c-0.2,0.2-0.2-0.1-0.2-0.2l0.1,0c0-0.6-0.5,0-0.7,0l0.2-0.4l-0.3,0.3c0-0.1,0-0.3,0.1-0.4
						c-0.1-0.2-0.2,0.1-0.2-0.1c0,0,0-0.1,0-0.1L8.3,20c0-0.1,0-0.3,0.1-0.2c-0.2-0.3-0.5,0.2-0.5-0.1l0,0c-0.4,0-0.1,0.3-0.5,0.5
						l0.1-0.8l-0.1,0.3c0,0-0.1-0.1,0-0.2c-0.2,0.1,0,0.1-0.2,0.3c-0.1-0.3-0.5-0.1-0.4-0.5c-0.2,0.2,0.1,0.2-0.2,0.3
						c0.2-0.5-0.2,0-0.3-0.3c0.2-0.2,0.2,0,0.2-0.3c-0.3,0.4-0.2-0.2-0.4-0.2c-0.2,0.3-0.3,0-0.6-0.1c0.1-0.1-0.3-0.4-0.3-0.7l0,0
						C5,18.2,4.8,18,4.6,18c0.1-0.2,0.2-0.2,0.4-0.2l-0.1-0.1c-0.1,0.1-0.2,0.1-0.3,0l0.2-0.2c-0.2-0.1-0.5,0-0.6-0.4
						c-0.2,0.2-0.4,0.7-0.7,0.6c0.1-0.1,0.3-0.3,0.3-0.3c0,0-0.1,0-0.1-0.1L4,17.3c0-0.2-0.2,0.1-0.2,0c0.1-0.1,0.1-0.1,0.2-0.2
						c0,0,0,0.1,0.1,0.1c0-0.1,0-0.3,0-0.4c-0.1,0.1-0.2,0.2-0.3,0.1c-0.1-0.1,0.1-0.2,0.1-0.4c-0.1,0.1-0.1-0.1-0.3,0
						c0,0,0.1-0.1,0.1-0.2c-0.2,0-0.3-0.4-0.5-0.1l0,0c0,0,0,0,0,0l0,0l0,0c-0.5-0.1-0.3-0.7-0.6-0.9l0.1,0
						c-0.2-0.1-0.3-0.4-0.5-0.4c0-0.1,0.1-0.2,0.2-0.2c-0.1-0.1-0.3-0.1-0.2-0.4c0.2,0.1,0.1-0.1,0.2,0.1c0-0.2,0.1-0.3-0.2-0.4
						c0.3,0,0.2-0.2,0.1-0.3l-0.1,0.2c-0.1-0.1-0.1-0.2-0.1-0.3l0.3-0.1c0.3-0.5-0.9-0.5-0.3-1c-0.2-0.1-0.1,0.2-0.4,0.2
						c0-0.2,0.5-0.5,0.5-0.5c0.1-0.3-0.5-0.2-0.4-0.5c-0.1,0-0.4,0.1-0.6-0.1c0-0.2,0.5-0.3,0.6-0.2c0,0,0,0.1-0.1,0.1
						c0,0.1,0.1,0.1,0.2,0l-0.1,0C2,11.5,2,11.3,2.2,11.3c-0.1-0.1-0.2-0.1-0.3,0.1c0.2-0.2,0-0.4,0.1-0.6c-0.1,0-0.2,0.1-0.2,0
						c0.2-0.4-0.2-0.2-0.3-0.4c0.2-0.1,0.4,0.1,0.3-0.2c0.1-0.1,0.3,0,0.4,0.1C2.1,10,2.5,9.9,2.5,9.8l0.1,0.1c0-0.1,0-0.1,0-0.2
						l-0.2,0c0.1-0.1,0.1-0.1,0.2-0.1c-0.1-0.1-0.4,0-0.6-0.2c0.1-0.1-0.1-0.3,0.2-0.3C2,9.4,2.5,9.2,2.5,9.5c0-0.1,0-0.1,0-0.2
						c0,0,0.1,0,0.1,0c0.3-0.2-0.3-0.2-0.2-0.5c0.2,0.1,0.3,0,0.3,0c0,0.1-0.3,0-0.4-0.2c0.2-0.1,0-0.2,0-0.3L2.2,8.5
						C2,8.4,2,8.3,2,8.1c0.1,0,0,0.1,0.1,0.1C1.9,8,2.6,8.1,2.4,7.8c0.1,0,0.3,0.1,0.4,0.1C2.7,7.6,3.2,7.8,3.1,7.5
						c-0.2,0-0.2,0-0.3-0.3l0,0.4L2.5,7.3c-0.1,0.1,0,0.3,0,0.3C2.4,7.4,2.4,7.5,2.2,7.4c0.4,0,0-0.4,0.3-0.5L3,7.2
						c0.3-0.1-0.1-0.6,0.3-0.8l-0.1,0C2.9,6.3,3.2,6.3,3.2,6.1c0.2,0.1,0.3,0.1,0.4,0.1C3.5,6.2,3.7,6.1,3.4,5.8l0.3,0
						C4,5.7,3.5,5.2,3.7,5C3.9,5.2,4,5.2,4,5.5c0.1-0.1,0.1-0.1,0-0.2c0.1,0,0-0.4,0.2-0.3c0-0.1-0.2-0.2-0.1-0.3
						c0,0,0.1,0.1,0.1,0.1C4.2,4.6,4.3,4.5,4,4.4c0.7,0.3,0.6-0.6,1.1-0.4c0.1-0.2,0.3-0.4,0.4-0.5c0,0.1,0.1,0.1,0,0.1
						c0.3,0-0.2-0.6,0.2-0.5c0.3,0.2,0,0.2,0.1,0.3c0.4,0.5,0.3-0.3,0.6,0l0,0.1C6.8,3.5,6.7,3,7,3C7,3,7,3,7,3.1
						c0-0.4,0.3-0.6,0.5-0.8c0,0.3-0.1,0.2,0.1,0.4c0.1-0.1-0.2-0.4,0-0.5C7.7,2.3,7.9,2.3,8,2.6c0,0-0.2,0.1-0.2,0.1
						C8,3,8,2.6,8.2,2.6l0,0.2c0.3-0.1,0.2-0.5,0.5-0.6L8.7,2.1C8.8,1.7,8.9,2.3,9,2l0.1,0.4c0.1-0.1,0.4-0.4,0.6-0.5
						C9.6,2.1,9.4,2.3,9.2,2.5c0.1,0,0.4-0.1,0.4-0.3c0,0-0.1,0.2-0.1,0.1C9.6,2,9.8,1.8,10.1,1.8c0,0.8,0.6,0.2,0.8,0.8
						c0.2-0.1,0.4-0.1,0.6,0c0.2,0.1,0.4,0.2,0.6,0.2c-0.1-0.6,0.1,0,0.2-0.6c0.1,0,0.2,0,0.2,0l0.2,0.4c0,0.2-0.1,0.1-0.2,0.2
						c0.2,0.1,0,0.3,0.1,0.5c0-0.2,0.2-0.3,0.3-0.2l-0.1-0.3c0.4-0.2,0.1,0.6,0.5,0.4l-0.2,0.1c0.2-0.1,0.6,0.2,0.9-0.2
						c0,0.1,0,0.2-0.1,0.3c0.3,0.2,1.1,0,1.2,0.4L15.1,4c0.1,0,0.3-0.2,0.3,0c0,0-0.1,0.1-0.1,0.1c0.1,0,0.3-0.1,0.3,0l-0.2,0.1
						c0.2,0.4,0.7,0,1.1,0.2c-0.3,0.3-0.2,0.6-0.1,0.8l0,0c0.3,0.4,0.8,0.3,1.2,0.6c-0.2,0.5,0.3,0.9,0.3,1.4c0-0.1,0.3-0.1,0.4-0.1
						c0,0.1,0.4,0.1,0,0.3l0,0c-0.3,0.2-0.1,0.4-0.1,0.5l0.5-0.2c-0.3,0.3-0.1,0.6,0,0.8c0.1,0.2,0.3,0.4,0,0.6
						c0.2,0.1,0.2,0.2,0.3,0.3l-0.3,0c0,0.3,0,0.4,0.1,0.8l-0.2-0.1c0,0.2,0.8,0.2,0.9,0.4l-0.4,0.1c0,0.4-0.4,0.7,0,1
						c-0.1,0-0.2,0-0.2-0.1c0,0.2-0.4,0.6,0.2,0.6c-0.4-0.1-0.1,0.3,0,0.6l-0.3-0.1c0.3,0.2,0.4,0.3,0.4,0.5c0,0-0.2,0-0.1-0.1
						c-0.2,0.1,0.2,0.2,0,0.4l-0.2-0.1c-0.1,0.2,0,0.2,0.2,0.3c0.1,0.1-0.2,0.3-0.4,0.3c0.1,0.1,0.3,0.2,0.2,0.3
						c-0.1,0-0.1-0.1-0.2-0.1c-0.3,0.2,0.1,0.6-0.2,0.6c-0.1,0-0.1,0-0.2,0c0.1-0.2,0.2-0.4,0.2-0.4c-0.2-0.1-0.4,0-0.6-0.2
						c0.1,0.2,0.4,0.6,0.2,0.7c0,0-0.1,0-0.1,0l0,0c0,0,0,0.1,0,0.1c-0.1,0-0.1,0-0.1,0.1c-0.2-0.1-0.2,0.1-0.3,0.2
						c0.2,0.1,0.1,0.2,0.4,0.2c0,0,0,0,0-0.1c0,0,0,0,0-0.1l0,0c0-0.1,0.1-0.1,0.1-0.2c0.1,0.1,0.1,0.3,0,0.3
						c0.1,0.1,0.3,0.3,0.3,0.4c-0.4-0.1-0.7,0-0.9-0.1c-0.1,0.3-0.3,0.6-0.1,1.1c0,0.1-0.2,0-0.3-0.1c0-0.1,0-0.1,0-0.2
						c0,0.2-0.3,0.4-0.1,0.7c-0.3,0-0.2-0.3-0.3-0.1l0-0.1c-0.4,0-0.4,0.3-0.5,0.6c-0.1,0.3-0.2,0.6-0.6,0.5c0.1,0,0.1,0,0.1,0.1
						c-0.8,0.1-1.2,1.1-2.1,0.9c-0.2,0-0.2,0.2-0.2,0.4l-0.1-0.3l-0.1,0.4c-0.3,0.3-0.7-0.6-1,0l0.1,0.2c-0.1,0-0.4,0.2-0.4,0
						c0,0,0,0.2-0.1,0.1l0-0.2c0,0-0.1,0.1-0.2,0.2c-0.1,0.1-0.2,0.1-0.2,0.1c-0.3-0.1,0-0.6-0.4-0.6c-0.1,0.1-0.4,0.5-0.3,0.6
						c0.1,0,0.2,0.1,0.2,0.2l-0.1,0.1c0,0.5-0.2,0.9,0.2,1.3l0.3-0.3l0.1,0.2l-0.2,0c0.1,0.2,0.2,0,0.3-0.1c0,0.1,0.1,0.2,0.1,0.2
						l0.2-0.5c0.1,0.2-0.1,0.4,0.1,0.5c0.1-0.2-0.2-0.4,0-0.6c0.2,0.2,0.1,0.4,0.3,0.2c0,0.1,0,0.2,0,0.3c0.1-0.2,0.4-0.1,0.4-0.4
						c0.2,0.2,0.4-0.1,0.5,0.3c0-0.1,0.2-0.4,0.3-0.4c-0.1,0.6,0.5-0.1,0.6,0.5c0-0.5,0.5-0.4,0.7-0.8c0,0,0,0.1,0,0.1
						c0.2,0,0.3,0.1,0.4,0.1c-0.1-0.4,0.1-0.6,0.1-0.8c0.3,0.3,0.1,0.5,0.3,0.8c-0.1-0.3,0.2-0.4,0-0.7c0.2,0.1,0.2,0,0.4,0.3
						c-0.2-0.4,0.1-0.1,0.1-0.5c0.3,0.1,0.3,0.4,0.4,0.1C16.3,20.3,16.1,20.5,16.1,20.5z M19.7,15.7L19.7,15.7c0,0.1,0,0.1,0,0.1
						C19.6,15.8,19.6,15.7,19.7,15.7z M19.9,15.2c0,0-0.1,0.1-0.1,0.2c-0.1,0-0.2-0.1-0.2-0.1C19.7,15.3,19.8,15.3,19.9,15.2z
						 M17.7,15.2c0-0.1,0.1-0.1,0.1,0C17.8,15.1,17.8,15.2,17.7,15.2l0.1,0.1C17.8,15.2,17.7,15.2,17.7,15.2z"/>
					<path class="st0" d="M18,15.4C18,15.4,18,15.5,18,15.4C18,15.5,18,15.5,18,15.4L18,15.4L18,15.4z"/>
					<path class="st0" d="M3.2,16.3L3.2,16.3C3.2,16.3,3.2,16.3,3.2,16.3C3.2,16.3,3.2,16.3,3.2,16.3z"/>
					<polygon class="st0" points="21.1,8.5 21,8.6 21.1,8.6 					"/>
					<path class="st0" d="M4.2,18.7C4.2,18.8,4.2,18.8,4.2,18.7C4.2,18.8,4.2,18.8,4.2,18.7z"/>
					<path class="st0" d="M5.1,19.5l0.1,0.2C5.2,19.5,5.1,19.5,5.1,19.5z"/>
					<path class="st0" d="M5.8,20C5.8,20,5.8,20,5.8,20l0.1-0.1L5.8,20z"/>
					<path class="st0" d="M0.4,7.9C0.4,7.9,0.4,7.8,0.4,7.9C0.4,7.7,0.4,7.8,0.4,7.9z"/>
					<path class="st0" d="M0.7,12.1c-0.1,0-0.1-0.1-0.2-0.1C0.5,12.1,0.5,12.1,0.7,12.1z"/>
					<polygon class="st0" points="2.6,3.5 2.6,3.5 2.6,3.5 					"/>
					<path class="st0" d="M0.5,11.8c-0.1,0.1,0,0.1,0,0.2C0.6,11.9,0.6,11.9,0.5,11.8z"/>
					<path class="st0" d="M9.5,21.3L9.5,21.3C9.5,21.3,9.5,21.3,9.5,21.3L9.5,21.3z"/>
					<path class="st0" d="M9.5,21.3L9.5,21.3C9.5,21.2,9.5,21.2,9.5,21.3z"/>
					<path class="st0" d="M9.7,21.2l-0.1,0.1C9.6,21.2,9.6,21.2,9.7,21.2z"/>
					<path class="st0" d="M8.3,21L8.3,21C8.3,21,8.3,21,8.3,21z"/>
					<path class="st0" d="M8,20.9c0.1,0,0.2,0.3,0.3,0.2l0-0.1C8.2,21.2,8.1,20.7,8,20.9z"/>
					<path class="st0" d="M7,19.3c0,0,0.2,0.2,0.2,0.2c0-0.1,0-0.3,0.1-0.3C7.2,18.8,7.3,19.4,7,19.3z"/>
					<path class="st0" d="M6.4,18.8c0.1,0,0.1-0.1,0.1-0.2C6.3,18.6,6.3,18.6,6.4,18.8z"/>
					<path class="st0" d="M2.5,14.6l0.2-0.1C2.6,14.4,2.6,14.5,2.5,14.6z"/>
					<polygon class="st0" points="0.8,13.9 0.7,14.1 0.9,14.1 					"/>
					<polygon class="st0" points="2.4,12.8 2.5,12.8 2.3,12.7 					"/>
					<path class="st0" d="M5.2,4.4L5,4.2C5,4.3,5.2,4.6,5.2,4.4z"/>
					<path class="st0" d="M8.7,2.4C8.8,2.5,8.9,2.6,9,2.4C8.9,2.4,8.8,2.3,8.7,2.4z"/>
					<polygon class="st0" points="18.3,8.1 18.2,8.1 18.3,8.2 					"/>
				</g>
			</g>
		</g>
	</g>
</g>
<g>
	<path class="st0" d="M10.6,17L10.6,17c3.3,0,6-2.7,6-6v0c0-3.3-2.7-6-6-6h0c-3.3,0-6,2.7-6,6v0C4.6,14.3,7.2,17,10.6,17z"/>
</g>
</svg>
