<!-- Generator: Adobe Illustrator 19.2.1, SVG Export Plug-In  -->
<svg version="1.1"
	 xmlns="http://www.w3.org/2000/svg" xmlns:xlink="http://www.w3.org/1999/xlink" xmlns:a="http://ns.adobe.com/AdobeSVGViewerExtensions/3.0/"
	 x="0px" y="0px" width="113px" height="56.6px" viewBox="0 0 113 56.6" style="enable-background:new 0 0 113 56.6;"
	 xml:space="preserve">
<style type="text/css">
	.st0{fill:#FFFFFF;}
</style>
<defs>
</defs>
<g>
	<path class="st0" d="M45.8,9.3c-0.3-0.1-0.7-0.2-1.5-0.2h-2.9v3.7h2.7c0.8,0,1.3-0.1,1.7-0.3c0.7-0.3,1-0.9,1-1.7
		C46.8,10.2,46.4,9.6,45.8,9.3 M45.1,3.8c-0.3-0.1-0.7-0.2-1.3-0.2h-2.5v3.5h2.3c0.7,0,1.2-0.1,1.5-0.3C45.7,6.5,46,6,46,5.3
		C46,4.6,45.7,4.1,45.1,3.8 M39,14.9V1.5H44c1.1,0,1.7,0.2,2.3,0.4c1.4,0.6,2,1.9,2,3c0,1.3-0.5,2.1-1.6,2.8v0
		c1.5,0.3,2.5,1.4,2.5,3c0,1.8-1.1,3.2-3,3.7c-0.7,0.2-1.4,0.3-2.6,0.3H39z"/>
	<rect x="62.5" y="1.5" class="st0" width="2.3" height="13.3"/>
	<rect x="79.2" y="1.5" class="st0" width="2.3" height="13.3"/>
	<path class="st0" d="M88.9,1.4c1.4,0,2.9,0.3,3.7,0.8l0,2.2c-1.2-0.6-2.3-0.9-3.7-0.9c-1.3,0-2.3,0.4-2.3,1.4
		c0,2.7,6.9,1.6,6.9,6.1c0,2.5-2.1,4.1-5.2,4.1c-2.1,0-3.5-0.6-4.5-1.2l1-1.9c0.8,0.5,2.1,1.1,3.7,1.1c1.4,0,2.7-0.5,2.7-1.7
		c0-2.9-6.8-1.6-6.8-6.1C84.1,2.7,86.1,1.4,88.9,1.4"/>
	<polygon class="st0" points="104.3,14.9 104.3,9.1 97.8,9.1 97.8,14.9 95.5,14.9 95.5,1.5 97.8,1.5 97.8,7 104.3,7 104.3,1.5 
		106.6,1.5 106.6,14.9 	"/>
	<path class="st0" d="M44.1,17.2c1.5,0,2.6,0.3,3.7,0.8l-0.7,1.9c-0.6-0.3-1.5-0.7-2.8-0.7c-2.5,0-4.1,2.1-4.1,4.8
		c0,2.6,1.5,4.8,4.1,4.8c1.3,0,2.1-0.4,2.8-0.7l0.7,1.9c-1.1,0.5-2.3,0.8-3.7,0.8c-4,0-6.3-2.8-6.3-6.8
		C37.8,20.3,40.1,17.2,44.1,17.2"/>
	<path class="st0" d="M94.3,17.2c1.5,0,2.6,0.3,3.7,0.8l-0.7,1.9c-0.7-0.3-1.5-0.7-2.8-0.7c-2.5,0-4.1,2.1-4.1,4.8
		c0,2.6,1.5,4.8,4.1,4.8c1.3,0,2.1-0.4,2.8-0.7l0.7,1.9c-1.1,0.5-2.3,0.8-3.7,0.8c-4,0-6.3-2.8-6.3-6.8C88,20.3,90.3,17.2,94.3,17.2
		"/>
	<path class="st0" d="M58.5,24c0-2.9-1.7-4.8-3.9-4.8c-2.3,0-3.9,1.9-3.9,4.8c0,2.9,1.7,4.8,3.9,4.8C56.9,28.8,58.5,26.9,58.5,24
		 M61,24c0,4-2.6,6.9-6.3,6.9c-3.8,0-6.3-2.8-6.3-6.8c0-4,2.6-6.9,6.3-6.9C58.4,17.2,61,20,61,24"/>
	<path class="st0" d="M62.5,25.6v-8.3h2.3v8.4c0,2.2,1.2,3.1,3.1,3.1c2,0,3.1-0.8,3.1-3.1v-8.4h2.3v8.3c0,3.6-2.1,5.2-5.4,5.2
		C64.6,30.8,62.5,29.2,62.5,25.6"/>
	<path class="st0" d="M77.6,20.9L77.6,20.9c0,0.4,0,1.2,0,1.8v7.9h-2.3V17.3h2.5l6.2,9.1h0c0-0.4-0.1-1.2-0.1-1.8v-7.3h2.3v13.3h-2
		L77.6,20.9z"/>
	<rect x="99.9" y="17.3" class="st0" width="2.3" height="13.3"/>
	<polygon class="st0" points="104.3,30.6 104.3,17.3 106.6,17.3 106.6,28.6 111.8,28.6 111.8,30.6 	"/>
	<polygon class="st0" points="77.4,1.5 66.6,1.5 66.6,3.6 70.8,3.6 70.8,14.9 73.1,14.9 73.1,3.6 77.4,3.6 	"/>
	<path class="st0" d="M55.4,3.6H53v4h2.3c1.6,0,2.4-0.8,2.4-2.1C57.7,4.5,57,3.6,55.4,3.6 M58.4,14.9c-1.9-4-2.5-5.2-3.3-5.2H53v5.2
		h-2.3V1.5h4.5c3.5,0,4.8,1.8,4.8,3.8c0,1.8-1,3-2.5,3.4v0c0.6,0.3,1.3,1.6,3.5,6H58.4z"/>
	<path class="st0" d="M32.3,7.6c0,4.2-3.4,7.6-7.7,7.6c-4.2,0-7.7-3.4-7.7-7.6C17,3.4,20.4,0,24.7,0C28.9,0,32.3,3.4,32.3,7.6"/>
	<path class="st0" d="M15.3,7.6c0,4.2-3.4,7.6-7.7,7.6C3.4,15.2,0,11.8,0,7.6C0,3.4,3.4,0,7.7,0C11.9,0,15.3,3.4,15.3,7.6"/>
	<path class="st0" d="M32.3,24.5c0,4.2-3.4,7.6-7.7,7.6c-4.2,0-7.7-3.4-7.7-7.6c0-4.2,3.4-7.6,7.7-7.6
		C28.9,16.9,32.3,20.3,32.3,24.5"/>
	<path class="st0" d="M15.3,24.5c0,4.2-3.4,7.6-7.7,7.6c-4.2,0-7.7-3.4-7.7-7.6c0-4.2,3.4-7.6,7.7-7.6
		C11.9,16.9,15.3,20.3,15.3,24.5"/>
	<path class="st0" d="M3.6,52.5H1.7v3.1h1.9c1.2,0,1.7-0.6,1.7-1.6C5.4,53,4.8,52.5,3.6,52.5 M3.4,48.9H1.7v2.8h1.8
		c1.1,0,1.6-0.7,1.6-1.5C5.2,49.4,4.6,48.9,3.4,48.9 M3.7,56.4H0.7V48h2.8c1.9,0,2.7,0.8,2.7,2c0,0.8-0.3,1.5-1.2,1.9
		c0.9,0.2,1.4,1,1.4,2C6.4,55.5,5.6,56.4,3.7,56.4"/>
	<path class="st0" d="M11,51.1C10.8,51,10.7,51,10.4,51c-0.5,0-1.1,0.5-1.6,1.1v4.4h-1v-6.3h0.9v1c0.4-0.5,1-1.1,1.8-1.1
		c0.3,0,0.6,0,0.9,0.2L11,51.1z"/>
	<path class="st0" d="M12.4,50.2h1v6.3h-1V50.2z M12.4,47.9h1v0.9h-1V47.9z"/>
	<path class="st0" d="M17,56.6c-1.3,0-1.6-0.5-1.6-1.7v-3.9h-1v-0.8h1v-1.4l1-0.5v1.9h1.4v0.8h-1.4v3.9c0,0.7,0.2,0.9,0.8,0.9
		c0.2,0,0.5,0,0.6-0.1v0.8C17.6,56.5,17.3,56.6,17,56.6"/>
	<path class="st0" d="M19,50.2h1v6.3h-1V50.2z M19,47.9h1v0.9h-1V47.9z"/>
	<path class="st0" d="M23.5,56.6c-0.9,0-1.7-0.3-2.3-1l0.5-0.6c0.5,0.5,1.2,0.8,1.8,0.8c0.7,0,1.4-0.4,1.4-1c0-0.6-0.5-0.8-1.2-1.1
		L23,53.4c-0.9-0.3-1.5-0.7-1.5-1.6c0-1,0.8-1.7,2.2-1.7c0.8,0,1.5,0.3,2.1,0.9l-0.5,0.6c-0.5-0.5-1.1-0.7-1.6-0.7
		c-0.7,0-1.3,0.3-1.3,0.9c0,0.5,0.4,0.7,1,0.9l0.7,0.2c1,0.4,1.7,0.7,1.7,1.8C25.9,55.9,24.8,56.6,23.5,56.6"/>
	<path class="st0" d="M31.2,56.4v-4.3c0-0.8-0.3-1.3-1.2-1.3c-0.6,0-1.3,0.3-1.8,0.8v4.8h-1v-8.6h1v3c0.5-0.4,1.2-0.8,2-0.8
		c1.2,0,1.9,0.7,1.9,1.9v4.5H31.2z"/>
	<path class="st0" d="M40.3,56.6c-2.3,0-3.6-1.8-3.6-4.3c0-2.7,1.4-4.4,3.6-4.4c1.2,0,2,0.5,2.6,1.4l-0.7,0.5
		c-0.5-0.7-1.1-1.1-1.9-1.1c-1.5,0-2.5,1.3-2.5,3.5c0,2.2,1,3.5,2.5,3.5c0.9,0,1.5-0.5,2-1.3l0.7,0.6C42.4,56.1,41.5,56.6,40.3,56.6
		"/>
	<path class="st0" d="M46.9,50.8c-1.1,0-1.8,1-1.8,2.5c0,1.5,0.7,2.5,1.8,2.5c1.1,0,1.8-1,1.8-2.5C48.7,51.8,48,50.8,46.9,50.8
		 M46.9,56.6c-1.7,0-2.9-1.3-2.9-3.3c0-2,1.1-3.3,2.9-3.3c1.7,0,2.9,1.3,2.9,3.3C49.8,55.3,48.6,56.6,46.9,56.6"/>
	<path class="st0" d="M55.1,56.4v-0.7c-0.5,0.4-1.3,0.8-2.1,0.8c-1.2,0-1.9-0.7-1.9-1.9v-4.5h1v4.3c0,0.8,0.3,1.3,1.2,1.3
		c0.6,0,1.3-0.3,1.8-0.8v-4.8h1v6.3H55.1z"/>
	<path class="st0" d="M61.7,56.4v-4.3c0-0.8-0.3-1.3-1.2-1.3c-0.6,0-1.3,0.3-1.8,0.8v4.8h-1v-6.3h0.9v0.7c0.6-0.4,1.3-0.8,2.1-0.8
		c1.2,0,1.9,0.7,1.9,1.9v4.5H61.7z"/>
	<path class="st0" d="M66.8,56.6c-1.6,0-2.8-1.2-2.8-3.3c0-2,1.2-3.3,2.9-3.3c1.1,0,1.9,0.5,2.4,1.3l-0.7,0.5c-0.4-0.6-0.9-1-1.7-1
		c-1,0-1.8,0.9-1.8,2.5c0,1.5,0.8,2.4,1.9,2.4c0.8,0,1.4-0.6,1.8-1.1l0.7,0.5C68.8,55.9,68.1,56.6,66.8,56.6"/>
	<path class="st0" d="M70.6,50.2h1v6.3h-1V50.2z M70.5,47.9h1v0.9h-1V47.9z"/>
	<rect x="73.3" y="47.9" class="st0" width="1" height="8.6"/>
	<path class="st0" d="M81.4,56.6c-1.1,0-2.1-0.5-2.7-1.2l0.6-0.7c0.6,0.7,1.4,1.1,2.1,1.1c0.8,0,1.7-0.5,1.7-1.5
		c0-0.9-0.6-1.3-1.5-1.7l-0.8-0.4c-1-0.5-1.9-1-1.9-2.2c0-1.4,1.1-2.2,2.6-2.2c1,0,1.9,0.4,2.5,1.2l-0.6,0.6c-0.5-0.6-1.2-1-1.9-1
		c-0.8,0-1.5,0.4-1.5,1.3c0,0.7,0.5,1,1.3,1.3l0.8,0.3c1.2,0.5,2.1,1.1,2.1,2.4C84.1,55.8,82.8,56.6,81.4,56.6"/>
	<path class="st0" d="M88.1,56.6c-1.6,0-2.8-1.2-2.8-3.3c0-2,1.2-3.3,2.9-3.3c1.1,0,1.9,0.5,2.4,1.3l-0.7,0.5c-0.4-0.6-0.9-1-1.7-1
		c-1,0-1.8,0.9-1.8,2.5c0,1.5,0.8,2.4,1.9,2.4c0.8,0,1.4-0.6,1.8-1.1l0.7,0.5C90,55.9,89.3,56.6,88.1,56.6"/>
	<path class="st0" d="M95.7,56.4v-4.3c0-0.8-0.3-1.3-1.2-1.3c-0.6,0-1.3,0.3-1.8,0.8v4.8h-1v-8.6h1v3c0.5-0.4,1.2-0.8,2-0.8
		c1.2,0,1.9,0.7,1.9,1.9v4.5H95.7z"/>
	<path class="st0" d="M100.9,50.8c-1.1,0-1.8,1-1.8,2.5c0,1.5,0.7,2.5,1.8,2.5c1.1,0,1.8-1,1.8-2.5C102.7,51.8,102,50.8,100.9,50.8
		 M100.9,56.6c-1.7,0-2.9-1.3-2.9-3.3c0-2,1.1-3.3,2.9-3.3c1.7,0,2.9,1.3,2.9,3.3C103.7,55.3,102.6,56.6,100.9,56.6"/>
	<path class="st0" d="M107.7,50.8c-1.1,0-1.8,1-1.8,2.5c0,1.5,0.7,2.5,1.8,2.5c1.1,0,1.8-1,1.8-2.5
		C109.6,51.8,108.8,50.8,107.7,50.8 M107.7,56.6c-1.7,0-2.9-1.3-2.9-3.3c0-2,1.1-3.3,2.9-3.3c1.7,0,2.9,1.3,2.9,3.3
		C110.6,55.3,109.4,56.6,107.7,56.6"/>
	<rect x="112" y="47.9" class="st0" width="1" height="8.6"/>
</g>
</svg>
