<!-- Generator: Adobe Illustrator 19.2.1, SVG Export Plug-In  -->
<svg version="1.1"
	 xmlns="http://www.w3.org/2000/svg" xmlns:xlink="http://www.w3.org/1999/xlink" xmlns:a="http://ns.adobe.com/AdobeSVGViewerExtensions/3.0/"
	 x="0px" y="0px" width="133.5px" height="146.8px" viewBox="0 0 133.5 146.8" style="enable-background:new 0 0 133.5 146.8;"
	 xml:space="preserve">
<style type="text/css">
	.st0{clip-path:url(#SVGID_2_);}
	.st1{fill:#947640;}
	.st2{fill:#F6A318;}
	.st3{fill:#002856;}
	.st4{clip-path:url(#SVGID_4_);}
</style>
<defs>
</defs>
<g>
	<defs>
		<rect id="SVGID_1_" y="8.3" width="133.1" height="138.6"/>
	</defs>
	<clipPath id="SVGID_2_">
		<use xlink:href="#SVGID_1_"  style="overflow:visible;"/>
	</clipPath>
	<g class="st0">
		<path class="st1" d="M73.9,62.4c0.2-1.3-0.1-2.6,0.4-3.8c0.7-1.4,2.5-2,4.1-2.2c9.1-1,17.8,4.8,23.2,12.3
			c5.4,7.4,8.1,16.4,11.3,25c3.2,8.6,7.2,17.3,14.1,23.3c-8.2-3.2-16.3-6.5-24.5-9.7c-5.3-2.1-10.6-4.2-15.4-7.3
			C79.5,95,73.5,87.8,68.8,80.1c-1.6-2.5-3-5.6-2.1-8.4C68,67.9,73.3,66.3,73.9,62.4"/>
		<path class="st2" d="M76.4,60.2C76,58.9,75,57.8,74,56.7c-8.2-8.8-17.6-16.4-26.9-24C33.7,21.8,20.4,10.9,7,0
			C6.5,6,6,12.1,5.5,18.1c-0.1,0.7-0.1,1.4,0.1,2c0.3,0.7,0.8,1.2,1.4,1.7c20.2,17.4,41.2,34,62.8,49.5c1.9-1.3,3.8-2.7,5.2-4.6
			C76.5,64.9,77.2,62.4,76.4,60.2"/>
		<path class="st3" d="M71.1,64.7c0.1,0.2,0.4,0.3,0.4,0l-0.4-0.4L71.1,64.7z"/>
		<path class="st3" d="M72.8,63.7c-0.1-0.4-0.4-0.9-0.9-0.9c0.3,0.5,0.1,0.4,0.5,1c-0.1,0.3-0.4,0.3-0.5,0.2c0.1,0.1-0.3,0.3,0,0.6
			c0.5-0.1,0.7-0.5,0.6-1C72.6,63.5,72.7,63.7,72.8,63.7"/>
		<path class="st3" d="M92.9,62.2l-0.1-0.1C92.8,62.1,92.8,62.2,92.9,62.2"/>
		<path class="st3" d="M92.9,62.2l0.2,0.4C93.2,62.5,93,62.4,92.9,62.2"/>
		<path class="st3" d="M73.1,60c0,0.1,0,0.2,0,0.3C73.1,60.2,73.1,60.1,73.1,60C73.1,60,73.1,60,73.1,60"/>
		<path class="st3" d="M86.9,59.5l-0.1,0c-0.1,0-0.1,0.1-0.2,0.2L86.9,59.5z"/>
		<path class="st3" d="M82.3,58.5c0.1,0,0.2-0.4,0.2-0.6c-0.1,0.2-0.2,0.3-0.3,0.3C82.2,58.2,82.2,58.3,82.3,58.5"/>
		<path class="st3" d="M75.3,60l0,0.1C75.3,60.1,75.3,60.1,75.3,60"/>
		<path class="st3" d="M90.1,61.1c0,0.1,0,0.1,0,0.2C90.1,61.3,90.1,61.2,90.1,61.1"/>
		<path class="st3" d="M66.3,68.5C66.4,68.6,66.4,68.6,66.3,68.5C66.4,68.5,66.4,68.5,66.3,68.5"/>
		<path class="st3" d="M72.1,65.3L72.1,65.3c0,0.1,0.1,0.2,0.2,0.2L72.1,65.3z"/>
		<path class="st3" d="M73.2,59.9c0-0.1,0.1-0.1,0.1-0.2C73.3,59.8,73.2,59.8,73.2,59.9"/>
		<path class="st3" d="M69.2,83.3c0.1-0.2,0.1-0.3,0.2-0.4C69.2,83.1,68.8,82.6,69.2,83.3"/>
		<path class="st3" d="M73.3,60.1c-0.1-0.1-0.1-0.1-0.1-0.2c0,0.1,0,0.1-0.1,0.2C73.2,60.1,73.3,60.1,73.3,60.1"/>
		<path class="st3" d="M69.5,82.9L69.5,82.9L69.5,82.9z"/>
		<path class="st3" d="M78,88.3c0.2,0.1,0.2,0.2,0.1,0.3c-0.1-0.1-0.2-0.1-0.3-0.2l-0.1,0C77.8,88.4,77.9,88.3,78,88.3 M77.6,92.5
			c-0.1-0.1-0.2-0.3-0.4-0.4c0.1-0.1,0.2-0.2,0.3-0.1C77.4,92,77.5,92.3,77.6,92.5 M76.6,91.6L76.6,91.6c-0.1-0.1-0.2-0.2-0.2-0.2
			C76.4,91.4,76.5,91.5,76.6,91.6 M66.1,79.2c0.3,0.7,0.7,0,1.1,0c0.5,0.7-0.2,0.6-0.3,1c0.4,0.4,1.1,0.5,1.3,0.8
			C68,81,68,81.1,67.8,81.1c0.3,0.1,0.6,0.5,0.8,0.8c0.2,0.3,0.5,0.7,0.9,0.8c0,0.1-0.1,0.1-0.1,0.2c0.2-0.2,0.5-0.4,0.6-0.5
			c0.2,0.3,0.6,0.3,0.4,0.6c-0.1-0.2-0.2-0.1-0.4-0.1l0.3,0.2c-0.3,0.6-0.4-0.3-0.8,0c0.5,0.4,1.3,0.8,1.4,1.3
			c-0.4,0.4-0.8-0.8-0.8,0l-0.1-0.4C70,83.7,70,83.5,70,83.5c-0.4,1-0.2-0.4-0.7,0.5c0.4,0.9,0.9,0.8,1.3,1.7c0.4,0,0.3-0.3,0.7-0.3
			c1.3,0.8-0.5,1.7,0.7,2.1c0.5,0,1.1-0.4,1.2,0.4l-0.6,0.2c0.6,0.8,1-0.1,1.3,0.9c-0.3,0-0.6-0.4-0.6-0.3c0,0.8,0.6,0.1,0.9,0.5
			l-0.4,0.4c0.4,0.4,0.8,0.7,1.3,1c0.5,0.3,0.9,0.6,1.4,1c-0.2,0.1-0.4,0-0.4,0.4c1.2,0.8,2.1,2.2,2.9,3.4l0.7,0
			c0.1,0.1,0,0.3-0.1,0.3c0.3,0.5,0.2-0.2,0.5-0.2c0.2,0.2,0.1,0.5-0.1,0.5c0.5,0.2,1.1,0.4,1.7,0.8c0.6,0.3,1.1,0.8,1.3,1.3l-0.2,0
			c0.5,0.6,1.3-0.2,1.6,0.6l-0.2,0c0.3,0.3,0.6,0.6,1,0.8c0.3,0.2,0.7,0.5,1,0.7c0.7,0.5,1.3,1,1.6,1.6c0.3-0.2,0.6,0.1,0.9,0.3
			c0.3,0.2,0.6,0.5,0.9,0.1c0.5,0.9,0.2,0.9,1.2,1.9c0.3,0.2,0.8-0.2,1.2-0.1l-0.2,0.4c0,0,0.2,0,0.4-0.1l0.4-0.1l0,0.7l0.4,0.1
			c-0.1-0.1-0.2-0.4-0.1-0.5c0.7,0.1,1.2,1.1,1.1,1.3l1.5,0.4c-0.1,0.2-0.4,0.1-0.6,0.1c1-0.1-0.1,0.5,0.8,0.5
			c0-0.2,0.2-0.2,0.3-0.3c0.2,0.4,1,0.8,1.6,1l-0.3,0.3c0.5,0.3,1.1,0.5,1.6,0.7c0.3,0.1,0.6,0.2,0.9,0.3c0.3,0.1,0.6,0.2,0.9,0.4
			c-0.4-0.3,0-0.8,0.4-0.7l-0.1,0.5c0.4-0.2-0.3-0.3,0.3-0.5c0.4,0.2,0,0.7-0.3,0.7l0.6,0.1c0,0.2-0.2,0.2-0.3,0.4
			c0.3-0.2,0.7,0.9,1.2,0.5l0,0.2c0.6,0.3,1,0.4,1.4,0.5c0.4,0.1,0.8,0.2,1.3,0.4c0.2-0.4,0.5-0.2,1-0.4c0.3,0.2,0.7,0.5,1,0.7
			c0.4,0.2,0.7,0.5,1.2,0.6c0.7,0,0.3-0.3,0.7-0.5c-0.1,0.4,0.8,0.7,0.2,0.8c1.1,0.3,1.4,0.4,2.8,0.5c-0.1-0.2-0.2-0.3-0.1-0.4
			c0.3,0,0.5,0.3,0.4,0.5l-0.1,0c0.8-0.1,1.6,0.5,2.3,1c0.2,0.1,0.4,0.3,0.5,0.4c0,0,0.1,0,0.1,0.1l0.1,0.1c0.1,0,0.2,0.1,0.2,0.1
			c0.2,0.1,0.3,0.1,0.5,0.2c0.7,0.2,1.3,0.3,1.7,0.2l-0.1,0c0,0,0.5,0,0.9,0c0.4,0,0.8,0,0.8,0c0.5,0.2,0.4,0.2,0.3,0.3
			c-0.1,0.1-0.2,0.2,0.2,0.4c0.4-0.1,0.9,0,1.3,0c0.4,0.1,0.8,0.2,1.3,0.4c0.4,0.1,0.9,0.3,1.3,0.4c0.4,0.1,0.8,0.2,1,0.1
			c1.8,1.1,3.3,1.4,4.5,1.7c0.6,0.1,1.2,0.2,1.9,0.4c0.2,0,0.3,0.1,0.4,0.1c0.1,0,0.2,0.1,0.4,0.1c0.3,0.1,0.7,0.3,1.2,0.5l-1.1-0.6
			c-0.4-0.3-0.2-0.2,0.2,0c0.4,0.2,1,0.5,1.2,0.6c-1-0.5-1.3-0.6-1.8-1l0-0.1l0,0c0,0,0,0,0,0l0.1,0c0.2,0,0.4,0,0.7,0.1
			c-1.4-1.1-2.6-2.1-3.8-3.1c-0.6-0.5-1.2-1-1.8-1.6c-0.3-0.3-0.5-0.5-0.8-0.7l-0.7-0.7l-1.6-1.5c0,0-0.1-0.1-0.1-0.1l-0.1-0.1
			l-0.1-0.2l-0.2-0.3l-0.5-0.7c-0.4-0.5-0.7-0.9-1.1-1.4l-0.5-0.7l-0.4-0.7c-0.5-0.8-1.5,0.4-1.6-0.9l0.6,0
			c-0.8-0.6-1.3-1.4-1.7-2.2c-0.2-0.4-0.4-0.8-0.7-1.2c-0.2-0.4-0.5-0.8-0.8-1.2c0.2,0,0.3,0,0.4,0.1c0.2-0.5-0.6-1.3-0.9-1.2
			c-0.1-0.3,0.2-0.2,0.3-0.4c0-0.4-0.9-0.7-0.6-1c0-0.1,0.2,0.1,0.2,0.1c-0.3-0.2-0.4-1.1-0.7-0.7c-0.1-0.7-0.7-1.2-0.6-1.8
			c-0.6-0.2-0.2-1.2-0.9-1.1c0.7-0.2,0.1-1.4-0.3-1.7c0.3,0.1,0.1-0.4,0.4-0.4c-0.2-0.5-0.5-0.9-0.8-0.7c0.5-1.2-1.3-1.6-0.4-2.4
			c-0.9-1.3-1.6-2.6-2.2-3.9c0.7-0.2,0.6,1.4,1.3,1.1c-0.7-1.2-1.5-1.7-1.8-3c0-0.4,0.4,0.1,0.5,0.1c-0.7-1.2-0.8-2.5-1.6-3.4
			c0.1,0,0.2,0.1,0.3,0.2c-0.1-0.2-0.1-0.6-0.4-0.4l0.2,0.2c-0.3,0.5-1.3-0.5-1.5-0.4c1,0-0.2-1.2,1.2-1c-0.1-0.1-0.3-0.2-0.5-0.1
			c0-0.2,0.1-0.4,0.4-0.2c-0.5-0.7-0.7-0.3-1-1c0.1-0.1,0.3,0.1,0.5,0.1c-0.4-0.2-0.9-0.5-1-1.1c0.1,0,0.2-0.1,0.3,0.1
			c-0.2-0.5-0.6-0.8-1-1.2c-0.4-0.4-0.7-0.8-0.8-1.4c0.8,0,0-0.5,0.5-0.8l-0.5-0.5l-0.1,0.4c-0.1-0.3-0.3-0.4-0.5-0.6
			c-0.2-0.2-0.4-0.4-0.4-0.6l0.4,0.2l-0.6-0.9l0.1,0.6c-0.6-0.3-0.6,0.4-0.9-0.3c0.1,0,0-0.1-0.1-0.3c-0.1-0.2-0.1-0.4-0.1-0.7l0,0
			c-0.3-0.1-0.6-0.3-0.7-0.7c0.1-0.2,0.6-0.3,0.7-0.4c-0.6,0-0.9-1-1.5-1c0.2,0,0.4-0.2,0.5-0.2l-0.5,0.1c-0.1-0.3,0-0.4,0.2-0.5
			c-0.4-0.7-0.5,0.7-0.8-0.3c0.1,0,0.1,0,0.2,0.1c-0.4-0.9-1.4-1.3-1.8-2.1c0.3-0.6,0.6,0.5,0.8-0.1c-0.9-0.9-2.3-1.4-3.1-2.4
			l0.1,0.2c-0.4,0.3-0.4,0-0.5-0.3c-0.1-0.3-0.2-0.7-0.6-0.7c0.2,0,0.5-0.2,0.4-0.2c-0.3-0.3-0.6-0.6-1.1-0.8
			c-0.5-0.2-1-0.4-1.6-0.7l0.3-0.1c-0.3-0.5-1-0.8-1.4-1.2c-0.2,0.1-0.5-0.1-0.5,0.3c-0.2-0.5-0.5-0.8-0.8-1
			c-0.2-0.1-0.3-0.2-0.5-0.3c-0.2-0.1-0.4-0.1-0.6-0.1c-0.8-0.2-1.5-0.3-2-1.1c0.2,0.1,0.5,0,0.3-0.1c0,0-0.3-0.1-0.6-0.2
			c-0.2,0-0.3-0.1-0.4-0.1c-0.1,0-0.2,0-0.2,0c0,0.4,0.1,0.3,0.2,0.6c-0.2,0.2-0.6,0.2-0.9,0.1c0.6,0,0.2-0.6,0-0.9
			c0,0.1-0.1,0.2-0.1,0.3c-0.4-0.9-0.3,0.7-1,0l0.1-0.2c-0.3,0-0.7,0.2-1,0c0-0.5,0.4-0.1,0.5-0.5c-0.5-0.1-1.1,0.6-1.5,0.1
			c0.2-0.1,0.5,0,0.8-0.1c-0.4-0.6-0.5-0.5-0.8-0.6l0,0c0,0-0.2-0.1-0.4-0.2c-0.1,0-0.2-0.1-0.3-0.1c-0.1,0-0.1-0.1-0.1-0.1l0.1,0.1
			c0.1,0,0.1,0.1,0.1,0.1c-0.4,0.5-0.7,0.5-1.1,0.5c-0.2,0-0.4,0-0.5,0c-0.2,0-0.4,0.1-0.6,0.3c0.8-0.7,0.1-0.4,0.2-0.9
			c-0.2-0.1-0.6-0.3-0.5-0.4c-0.2,0.2-0.4,0.1-0.6,0.1c-0.2,0-0.4,0-0.7,0.3c-0.1-0.2-0.5,0.1-0.4-0.4c-0.5,0.2,0.2,0.3,0.2,0.5
			c-0.2,0.2-0.4,0.2-0.7,0.3c-0.2,0-0.5,0-0.8,0c-0.3,0-0.6,0-0.9,0.2c-0.1,0.1-0.3,0.1-0.4,0.2c-0.1,0.1-0.2,0.3-0.3,0.4
			c-0.2,0.2-0.3,0.4-0.4,0.6c-0.1,0.2-0.2,0.4-0.2,0.6c0,0.2-0.1,0.4-0.1,0.5c0,0.2-0.1,0.4-0.2,0.6c-0.2,0-0.3-0.1-0.3-0.3
			c0-0.2,0-0.3,0-0.3c-0.3,0.1-0.4,0.3-0.6,0.5c-0.1,0.2-0.2,0.4-0.3,0.7c-0.1-0.2-0.2-0.1-0.5-0.1c-0.2,0.4,0.4,0.5-0.1,0.9
			c-0.1-0.2-0.3-0.4-0.4-0.6c-0.1,0.5,0,1-0.1,1.5c-0.3,0-0.3-0.4-0.4-0.7c-0.1,0.5-0.3,1.3,0,1.6l0.3-0.2c-0.1,0.2-0.4-0.1-0.4-0.2
			c-0.1-0.5,0.4-0.5,0.6-0.5l0,0.3c1,0.1,0.4-1.2,0.8-1.8l0.2,0.3l0.2,0.3c0,0,0-0.2-0.1-0.4c0-0.2-0.1-0.4-0.1-0.4
			c0.2,0,0.6,0.1,0.5,0.4c0.5-0.2,0-0.5,0.5-0.6c0.1,0,0.1,0,0.1,0.1c0,0,0-0.1,0-0.2l0.1-0.2c0.1,0.2,0.4,0.3,0.2,0.4
			c0.2-0.1,0.3-0.2,0.4-0.3c0.1-0.1,0.1-0.2,0.2-0.4c0.1-0.2,0.2-0.4,0.5-0.3l0,0.1c0.1-0.1,0.1-0.2,0.2-0.2c0-0.1,0.1-0.1,0.1-0.2
			c0-0.1,0-0.2-0.1-0.2c-0.1-0.1-0.3-0.3,0-0.8c0,0,0.3,0.2,0.5,0.4c0.2,0.2,0.5,0.5,0.5,0.5s0-0.1,0-0.3c0-0.1,0-0.3,0-0.3
			c0.1,0,0.3,0,0.4,0.2c0.3-0.5-0.1-0.2,0-0.6c0.2,0.1,0.3,0.1,0.5,0c0.2,0,0.3-0.1,0.5-0.1c0.3-0.1,0.6-0.1,0.7,0.3
			c0.2-0.4-0.6-0.2,0-0.6c0.1,0.4,0.3,0.4,0.5,0.2c0.2-0.1,0.5-0.3,0.7-0.1c-0.1,0.4-0.6,0.2-0.1,0.6c0.1-0.4,0.4-0.3,0.6-0.2
			c0.2,0.1,0.5,0.3,0.7,0.3c0.1-0.6,0.9-0.2,1.6-0.2c0,0.1,0.3,0.2,0.7,0.4c0.4,0.2,0.8,0.4,1.1,0.6l0,0.1c0.1-0.3,0.4-0.3,0.6-0.3
			c0.3,0,0.5,0.1,0.8,0.1c-0.1,0.3-0.3,0.4-0.6,0.5c0,0,0.1,0,0.2,0.1c0.1,0,0.2,0.1,0.2,0.1c0.2-0.1,0.3-0.2,0.6-0.1l-0.3,0.4
			c0.6,0.2,1.3,0,1.9,0.6c0.2-0.4-0.1-1.3,0.8-1.2c-0.1,0.2-0.2,0.6-0.5,0.6c0.1,0,0.3,0,0.4,0.1L89.4,60c0.2,0.3,0.3-0.2,0.6,0
			c-0.2,0.3,0.1,0.3-0.1,0.5c-0.1,0-0.2-0.2-0.3-0.2c0.3,0.2,0.5,0.5,0.5,0.8c0.1-0.2,0.2-0.4,0.4-0.3c0.5,0.3,0,0.4,0.2,0.8
			c0.2-0.1,0.5,0.3,0.7-0.1c0.2,0.1,0.1,0.3,0.1,0.5c0.4,0,1.3,0.8,1.3,0.1l0-0.1l0.1,0l0,0l0,0c0.6,0.1,1,0.5,1.4,0.9
			c0.2,0.2,0.4,0.4,0.6,0.6c0.2,0.2,0.4,0.4,0.6,0.5l-0.1,0.1c0.3,0.1,0.6,0.3,0.9,0.5c0.3,0.2,0.5,0.3,0.8,0.4
			c0.1,0.1,0.1,0.5-0.1,0.6c0.2,0.1,0.4,0.2,0.5,0.2c0.1,0.1,0.2,0.2,0.4,0.6c-0.5-0.1-0.1,0.3-0.5-0.2c0.3,0.5,0.2,0.8,1,1
			C98,67.3,98,67.4,98,67.6c0.1,0.2,0.2,0.4,0.4,0.4l-0.1-0.5c0.3,0.2,0.4,0.5,0.6,0.7l-0.5,0.2c0.1,0.3,0.3,0.6,0.5,0.7
			c0.2,0.2,0.5,0.3,0.7,0.5c0.2,0.1,0.5,0.3,0.6,0.5c0.1,0.2,0.2,0.5,0.1,0.8c0.5,0.1-0.2-0.7,0.4-0.7c0.3,0.5,0,1.5,0.1,1.6
			c0.2,0.8,1.1,0.2,1.3,1c0.1-0.2,0.5-0.6,1-0.1c0.2,0.6-0.4,1-0.7,0.8c-0.1-0.1-0.1-0.2,0-0.2c-0.2-0.1-0.3-0.3-0.4,0l0.2,0
			c0,0.4,0.4,1,0,1c0.4,0.3,0.4,0,0.3-0.3c0.1,0.8,0.5,1,0.7,1.8c0-0.2,0.2-0.4,0.2-0.3c0.3,1.1,0.5,0.3,1,0.9
			c-0.1,0.5-0.7,0.2-0.1,0.8c0,0.5-0.4,0.3-0.7,0.2c0.6,0.5,0.3,1.3,0.4,1.7l-0.3-0.3c0.2,0.2,0.2,0.3,0.3,0.5l0.3-0.3
			c0,0.2,0.1,0.4-0.1,0.5c0.3,0.1,0.5-0.4,1-0.1c-0.1,0.3,0.5,0.7,0.1,1c-0.2-0.9-0.4,0.3-0.8-0.4c0.1,0.1,0.2,0.3,0.2,0.5
			c0,0.1-0.1,0-0.2,0c-0.1,1,0.7,0.2,1,1c-0.3,0-0.4,0.4-0.3,0.5c-0.1-0.3,0.4-0.3,0.7-0.1c0,0.6,0.4,0.5,0.5,0.8l0-0.4
			c0.3,0,0.4,0.3,0.6,0.7c-0.2,0.1-0.3-0.3-0.3-0.1c0.6,0.2-0.2,1.1,0.4,1.6c-0.1,0.3-0.5,0.2-0.5,0.5c0.6,0.5-0.1,0.9,0.4,1.5
			c0.3-0.3,0.2-0.3,0.7,0l-0.7-1.1l0.8,0.6c-0.1-0.4-0.5-0.7-0.5-0.9c0.4,0.3,0.3,0.2,0.6,0c-0.4,0.7,0.7,0.8,0.5,1.5l-0.9,0.3
			c-0.1,1,1,1.3,1.1,2.5l0-0.4c0.4,0,0.3,0.7,0.5,1c-0.3,0.1-0.4,0.3-0.5,0.5c0.2-0.1,0.2,0.8,0.9,0.7l-0.2,0.6
			c0.1,0.9,1.2,0.7,1.4,1.6c-0.4-0.1-0.5,0.3-0.9-0.2c0.1,0.3,0.1,0.6,0.3,0.5c-0.1,0.2,0.7,0.6,0.5,1c0.2,0.1,0.5,0,0.6,0.3
			c0,0.1-0.1,0.1-0.1,0.1c0.2-0.1,0.4,0.4,0.6,0c-0.3,0.6-0.1,1.2,0.2,1.8c0.3,0.6,0.5,1.1,0.3,1.7c0.3,0.6,0.7,1.3,1,1.8
			c-0.1,0-0.1,0.1-0.2-0.1c0.1,0.9,1,0.1,1.1,1.1c-0.3,0.7-0.5-0.3-0.5,0c-0.9,0.6,0.6,1,0.3,1.8l-0.1-0.1c-0.1,0.6,0.9,0.9,1.2,1.6
			c0,0-0.1,0-0.1,0.1c0.4,0.1,0.7,0.4,1,0.7c0.3,0.3,0.6,0.6,0.9,0.9c-0.5,0-0.4-0.2-0.7,0.2c0.2,0.3,0.5-0.4,1,0.1
			c-0.1,0.3,0,0.8-0.3,1.1l-0.4-0.5c-0.3,0.6,0.5,0.7,0.6,1l-0.2,0.1c0.3,0.4,0.6,0.5,0.9,0.6c0.1,0,0.1,0.1,0.2,0.1
			c0.1,0,0.1,0,0.2,0.1c0.1,0.1,0.2,0.2,0.3,0.3c0,0,0,0,0.1-0.1c0,0,0.1-0.1,0.1-0.1c0.4,0.1,0.4,0.2,0.4,0.3
			c-0.1,0.1-0.2,0.2,0.2,0.3c0,0-0.2,0-0.4,0.1c-0.2,0-0.4,0-0.4,0c0.2,0.1,0.5,0.2,0.9,0.5c0.4,0.2,0.8,0.5,1.1,0.8
			c-1-0.5-1.7-0.9-2.2-1.1c0.1,0.1,0.4,0.4,1,0.7c-0.2-0.1-0.5-0.2-0.4-0.3c0.5,0.2,0.9,0.4,1.3,0.7c0.4,0.2,0.7,0.5,0.9,0.7
			c-1-0.4-1.2-0.5-1.2-0.4c0,0.1,0.2,0.3,0.1,0.3c-0.1,0-0.3-0.1-0.9-0.5c0.4,0.2,0.6,0.4,0.7,0.5c0.1,0,0.1,0.1,0.1,0.1
			c0,0-0.1-0.1-0.3-0.1c-0.3-0.1-0.5-0.2-0.8-0.4c-0.2-0.1-0.4-0.2-0.4-0.2c0.6,0.4,0.9,0.6,1.1,0.7c0.1,0.1,0.1,0.1,0.1,0.1
			c0,0-0.1,0,1,0.8c-0.1,0-0.2,0-0.4-0.1c0,0-0.5-0.3-0.9-0.5c-0.4-0.3-0.8-0.5-0.8-0.5c-0.5-0.5-0.2-0.3-0.6-0.6
			c-0.2-0.1-0.3-0.2-0.5-0.4c-0.2-0.2-0.4-0.4-0.6-0.6c0.2,0.3,0.4,0.4,0.5,0.5c0.1,0.1,0,0.1-0.1,0c0,0,0.1,0.2,0.3,0.3
			c0.2,0.2,0.4,0.3,0.4,0.3c0.1,0.2,0,0.2-0.1,0.1c-0.1-0.1-0.3-0.2-0.4-0.4c-0.1-0.1-0.2-0.2-0.3-0.4c-0.1-0.1-0.1-0.1,0,0.1
			c0,0,0-0.1-0.1-0.2c0-0.1-0.1-0.2-0.1-0.2c0,0.1,0,0.1-0.1,0.2c-0.1,0.1-0.1,0.2-0.3,0.6c0-0.1,0-0.4,0.1-0.5l0,0c0,0,0,0-0.1,0
			c-0.1,0-0.2,0-0.2-0.1c-0.2,0-0.3-0.1-0.5-0.1c-0.4,0-0.7-0.1-1.1-0.1c-0.7,0-1.4-0.1-1.8-0.5l0.2-0.2c-0.3,0-0.6,0.3-0.8,0
			c0-0.1,0.2-0.2,0.1-0.3c-0.2,0-0.8,0.2-1-0.1l0.4-0.2c-0.6-0.4-1.1-0.4-1.6-0.3c-0.3,0-0.5,0.1-0.8,0.1c-0.3,0-0.5,0-0.8,0
			c0.3-0.7-0.6-1.3-1-1.6l0.1-0.1c-0.7-0.3-1.3-0.4-2-0.5c-0.6-0.1-1.3-0.1-2-0.2c-0.2-0.5-0.9-0.9-1.6-1.3c-0.7-0.4-1.5-0.8-2-1.3
			c0.1,0.2-0.3,0.5-0.5,0.4c-0.2-0.3-1,0.1-0.7-0.5l0.1,0.1c0-0.3-0.1-0.6-0.3-0.7c-0.2-0.1-0.5-0.2-0.7-0.4l-0.5,0.7
			c-0.3-0.9-1.1-1.2-1.9-1.5c-0.8-0.3-1.5-0.5-1.5-1.2c-0.4,0-0.7-0.2-1.1-0.2l0.3-0.4c-0.7-0.6-1-0.9-2.1-1.4l0.4-0.2
			c-0.5-0.4-1.4,0.7-1.9,0.4l0.2-0.7c-0.2-0.2-0.4-0.3-0.6-0.5c-0.2-0.2-0.4-0.4-0.6-0.6c-0.4-0.4-0.9-0.7-1.5-0.8
			c0.1-0.1,0.2-0.2,0.4-0.1c-0.4-0.3-1.3-1.6-1.7-0.7c0.4-0.5-0.8-0.8-1.5-0.9l0.4-0.3c-0.8,0.1-0.9,0.2-1.5-0.1
			c-0.1-0.2,0.1-0.4,0.2-0.1c-0.3-0.5-0.6,0-1-0.6l0.4-0.1c-0.4-0.4-0.5-0.3-0.9-0.2c-0.4-0.1-0.7-0.8-0.5-1.2
			c-0.2,0.1-0.7,0.2-0.9-0.2c0.1-0.1,0.2-0.1,0.3-0.1c-0.5-0.9-1.4-0.6-1.5-1.4c0.1-0.1,0.1-0.2,0.1-0.3c0.5,0.5,0.9,1,0.9,1
			c0.3-0.3-0.1-0.8,0.7-0.9c-0.6-0.1-1.7-0.2-1.9-0.8c0,0,0-0.1,0.1-0.2l0.1,0c-0.1-0.1-0.2-0.2-0.3-0.2c-0.1-0.2-0.1-0.3-0.2-0.4
			c0.2-0.3-0.3-0.6-0.5-0.9c-0.3,0.3-0.5,0-0.6,0.5c0-0.1,0.1,0,0.2,0.1c0,0,0.1,0.1,0.1,0.1l0,0c0.1,0.1,0.3,0.3,0.5,0.5
			c-0.3,0-0.7-0.1-0.7-0.5c-0.3,0.1-0.7,0.1-0.8,0.2c0.2-0.8-0.1-1.6,0.2-1.9c-0.4-0.3-0.8-0.7-1.2-1c-0.2-0.2-0.4-0.3-0.6-0.4
			c-0.2-0.1-0.5-0.2-0.7-0.1c-0.2-0.1,0-0.4,0.1-0.6c0.2,0.1,0.3,0.2,0.4,0.2c-0.5-0.3-1-1.2-1.6-1c-0.2-0.7,0.7,0,0.1-0.7l0.2,0
			c-0.1-0.5-0.3-0.9-0.6-1.1c-0.3-0.3-0.6-0.5-1-0.7c-0.3-0.2-0.7-0.5-1-0.8c-0.2-0.3-0.4-0.8-0.4-1.4c0,0.2,0,0.2-0.1,0.3
			c-0.4-1.1-1-2.1-1.5-3.1c-0.2-0.5-0.5-1-0.6-1.6c-0.1-0.5-0.1-1.1,0.1-1.6c0.1-0.3,0-0.4-0.1-0.5c-0.1-0.1-0.3-0.2-0.4-0.4
			c0,0,0.1,0,0.3,0c0.1,0,0.2,0,0.2,0s0,0-0.1-0.1c0-0.1-0.1-0.1-0.1-0.2c-0.1-0.1-0.1-0.2-0.1-0.2c0-0.1-0.1-0.1-0.1-0.1
			c0-0.2,0.1-0.4,0.2-0.6c0.2-0.1,0.4-0.2,0.6-0.3c0.4-0.2,0.8-0.4,0.9-1l-0.3-0.1c0.3-0.3,0.8-1.1,1-0.8c0-0.1-0.1-0.3,0.1-0.3
			l0.2,0.2c0,0,0.1-0.3,0.2-0.5c0.1-0.3,0.2-0.6,0.2-0.6c0.4-0.3,0.5-0.1,0.7,0.1c0.2,0.1,0.4,0.3,0.9-0.3c0.1-0.2,0.2-0.7,0.2-1
			c0-0.4-0.1-0.6-0.2-0.6c-0.1,0.2-0.4,0.4-0.6,0.2c0,0,0-0.1,0.1-0.2c0-0.1,0.1-0.2,0.1-0.2c-0.3-0.2-0.6-0.5-0.9-0.7
			c-0.3-0.1-0.7-0.2-1.1,0c0,0,0,0,0,0.1c0,0.1,0,0.2,0,0.3c0,0.2,0,0.4,0,0.4l-0.4-0.1c0,0,0.1-0.1,0.2-0.2C69.9,65.1,70,65,70,65
			c-0.4,0-0.3,0.3-0.3,0.6c-0.2-0.1-0.3-0.1-0.5-0.1c0,0,0,0.2,0,0.5c0,0.2,0,0.5,0,0.5c-0.3-0.2-0.2-0.6-0.6-0.4
			c0,0.5,0.7,0.3,0.5,0.8c-0.5,0-0.6-0.3-0.7,0.2c-0.2-0.1-0.2-0.3-0.1-0.4c-0.1,0.4-0.6,0.8-0.5,1.2c-0.3,0-0.5,0.3-0.7,0.5
			c-0.2,0.2-0.4,0.4-0.7,0.2c0,0.1,0,0.4,0,0.6c0,0.3-0.1,0.6-0.1,0.7c-0.1-0.3-0.2-0.3-0.3-0.2c-0.1,0.1-0.2,0.3-0.3,0.5
			c-0.1,0.2-0.2,0.5-0.3,0.7c-0.1,0.2-0.3,0.3-0.5,0.1c0.3,0.4,0.3,1,0.3,1.6c0,0.1,0,0.3,0,0.4c0,0.1,0,0.3,0.1,0.4
			c0,0.3,0.1,0.5,0.3,0.8c-0.1,0-0.2-0.1-0.2-0.2c0,0.3-0.1,0.5-0.1,0.6c-0.1,0.2-0.1,0.3-0.2,0.5c0.3,0,0.6,0.1,0.8,0.4
			c0.2,0.2,0.4,0.5,0.7,0.6c-0.2,0.4-0.4,0.4-0.6,0.3c-0.2-0.1-0.5-0.2-0.7,0c0.5-0.2,0.8,0.9,1.2,0.5c-0.2,0.6,0,0.4-0.4,0.9
			c0.8-0.2,0.3,0.4,0.9,0.5c-0.1,0.8-0.6,0.5-0.1,1c0,0.2-0.2,0.2-0.3,0.1C66.2,79.3,66.1,79.2,66.1,79.2"/>
		<path class="st3" d="M77.3,88.5C77.3,88.4,77.2,88.4,77.3,88.5c-0.1,0-0.1,0.1-0.1,0.1C77.3,88.6,77.3,88.6,77.3,88.5
			C77.4,88.5,77.3,88.5,77.3,88.5"/>
		<path class="st3" d="M92.8,62.1L92.8,62.1C92.8,62.1,92.8,62,92.8,62.1C92.8,62,92.8,62,92.8,62.1"/>
		<path class="st3" d="M87,57.3c0,0,0-0.1-0.1-0.1C87,57.2,87,57.3,87,57.3"/>
		<path class="st3" d="M83.9,56.4l-0.4-0.2C83.6,56.3,83.8,56.3,83.9,56.4"/>
		<path class="st3" d="M81.3,55.9c0,0.1,0,0.1-0.1,0.2l0,0L81.3,55.9z"/>
		<path class="st3" d="M72.1,62L72.1,62c0,0.1,0,0.1,0,0.1L72.1,62z"/>
		<path class="st3" d="M72.1,62.2l0,0.1C72.1,62.3,72.1,62.2,72.1,62.2"/>
		<path class="st3" d="M72,62.6l0-0.3C72,62.4,71.9,62.5,72,62.6"/>
		<path class="st3" d="M73.9,59.1L73.8,59C73.8,59,73.8,59,73.9,59.1"/>
		<path class="st3" d="M74.6,58.2c-0.1,0.1-0.3,0.2-0.5,0.3c-0.1,0-0.2,0.1-0.3,0.2c-0.1,0.1-0.1,0.2-0.2,0.2l0.1,0.1
			c0-0.1,0.2-0.3,0.4-0.4C74.4,58.5,74.6,58.4,74.6,58.2"/>
		<path class="st3" d="M79.2,58.1c0,0,0,0-0.1,0c-0.1,0-0.2,0-0.3,0c-0.2,0-0.4,0-0.4,0c0.2,0.1,0.4,0.3,0.1,0.5
			c0.5,0.1,0.4,0.1,0.4-0.1C78.8,58.4,78.7,58.2,79.2,58.1"/>
		<path class="st3" d="M81.6,58.2c-0.4,0.1,0,0.3,0,0.4C81.8,58.4,81.8,58.4,81.6,58.2"/>
		<path class="st3" d="M96.8,65.8l-0.3,0.3C96.8,66.3,96.6,66,96.8,65.8"/>
		<polygon class="st3" points="100.8,66.9 100.7,66.5 100.4,66.6 		"/>
		<path class="st3" d="M99.7,70.4l-0.1-0.1C99.5,70.3,99.7,70.4,99.7,70.4c0.2,0.2,0.3,0.3,0.3,0.3s-0.1-0.1-0.1-0.1
			C99.8,70.4,99.7,70.4,99.7,70.4"/>
		<path class="st3" d="M75.2,54.9C75.1,54.9,75.1,54.9,75.2,54.9C75.1,54.9,75.2,54.9,75.2,54.9"/>
		<path class="st3" d="M74.2,59.1L74.2,59.1C74.2,59,74.1,59,74,59c0,0,0.1,0,0.1,0L74.2,59.1z"/>
		<path class="st3" d="M69.6,50.4c0,0.1-0.1,0.3-0.2,0.4C69.6,50.5,69.9,50.6,69.6,50.4"/>
		<path class="st3" d="M69.4,50.8L69.4,50.8L69.4,50.8z"/>
		<path class="st3" d="M63.4,50.3c-0.1,0-0.1-0.1,0-0.2c0,0,0.1,0.1,0.2,0.1l0,0C63.5,50.2,63.5,50.2,63.4,50.3 M64.4,46.9
			c0.1,0.1,0.1,0.1,0.2,0.2c-0.1,0.1-0.2,0.2-0.3,0.2C64.4,47.2,64.4,47.1,64.4,46.9 M64.9,47.3L64.9,47.3c0.1,0,0.1,0.1,0.1,0.1
			C65,47.4,65,47.4,64.9,47.3 M71.9,51.5c-0.3-0.2-0.5,0.4-0.8,0.6c-0.4-0.1,0.1-0.5,0.2-0.8c-0.3,0-0.8,0.3-0.9,0.1
			c0.1-0.1,0-0.1,0.2-0.2c-0.5,0.2-0.6-0.5-1.3-0.2c0-0.1,0-0.1,0.1-0.1c-0.2,0.3-0.3,0.5-0.5,0.7c-0.1-0.1-0.5,0.1-0.3-0.2
			c0.1,0.1,0.2,0,0.3-0.1l-0.2,0c0.3-0.5,0.3,0,0.6-0.3c-0.4-0.1-0.9,0.1-1-0.2c0.3-0.5,0.6,0.2,0.6-0.4l0.1,0.4
			c0.3-0.9,0.1,0.2,0.5-0.7c-0.3-0.4-0.6-0.1-0.9-0.6c-0.3,0.2-0.3,0.4-0.6,0.5c-0.9,0,0.5-1.4-0.4-1.2c-0.3,0.2-0.8,0.7-0.9,0.2
			l0.5-0.4c-0.3-0.4-0.8,0.5-0.9-0.1c0.2-0.1,0.4,0.1,0.4,0c0.1-0.6-0.4,0.1-0.6,0l0.3-0.5c-0.4-0.3-1.1-0.3-1.6-0.6
			c0.1-0.1,0.3-0.2,0.3-0.4c-0.7-0.2-1.1-1-1.4-1.7l-0.5,0.2c0,0,0.1-0.2,0.2-0.3c-0.1-0.3-0.2,0.2-0.4,0.3c-0.1-0.1,0-0.3,0.2-0.4
			c-0.6,0-1.6-0.2-1.6-0.9l0.2,0c-0.2-0.4-1,0.5-1-0.1l0.1,0c-0.5-0.7-1.5-1-1.5-1.9c-0.5,0.5-0.4-0.8-1.1-0.1
			c-0.1-0.7,0.2-0.7-0.1-1.4c-0.1-0.1-0.6,0.3-0.8,0.2l0.3-0.4l-0.6,0.2l0.3-0.6l-0.2,0c0,0.1,0,0.3-0.1,0.4c-0.4,0-0.4-0.8-0.2-1
			L56,39.1c0.1-0.1,0.3-0.1,0.4-0.1c-0.6,0.1,0.3-0.5-0.3-0.3c0,0.1-0.2,0.2-0.3,0.3c0.1-0.4-0.3-0.6-0.6-0.7l0.3-0.2
			c-0.4-0.4-1-0.7-1.5-1.1c0.1,0.3-0.4,0.7-0.5,0.6l0.3-0.5c-0.3,0.2,0,0.3-0.4,0.4c-0.1-0.2,0.3-0.6,0.5-0.6l-0.3,0
			c0.1-0.1,0.2-0.2,0.3-0.3c-0.3,0.2,0-0.7-0.5-0.4l0.1-0.1c-0.5-0.4-0.8-0.5-1.2-0.8c-0.3,0.3-0.4,0.1-0.8,0.3
			c-0.2-0.4-0.3-0.9-0.7-1.2c-0.4,0-0.3,0.2-0.6,0.4c0.3-0.3-0.1-0.6,0.3-0.7c-0.5-0.3-0.6-0.4-1.4-0.6c-0.1,0.2,0,0.3-0.2,0.4
			c-0.1,0-0.1-0.3,0-0.5l0.1,0c-1,0-0.6-2.1-1.6-1.8l0.1,0l-0.8-0.1c-0.2-0.2,0.3-0.1,0.3-0.5c-1,0.1-0.8-0.8-1.5-0.8
			c0.5-1.2-1.3-1-1.2-2L44,28.4c-0.3,0.1,0-0.2-0.1-0.4c-0.1,0.2,0,0.3-0.2,0.4c-1.2-0.6-1.8-2.1-2.7-3.2c-0.3-0.4-1.2,1-1.2,0
			l0.5-0.3c-1.2-0.1-1.5-1.3-2.6-1.5c0.1-0.1,0.2-0.2,0.3-0.1c0.1-0.4-0.6-0.5-0.8-0.3c-0.1-0.1,0.2-0.2,0.2-0.4
			c0-0.3-0.7,0-0.6-0.3c0-0.1,0.1-0.1,0.2-0.1c-0.2,0.1-0.4-0.4-0.6,0c-0.1-0.4-0.7-0.3-0.7-0.7c-0.5,0.3-0.3-0.6-0.8-0.1
			c0.5-0.6-0.1-0.9-0.5-0.8c0.2-0.1,0-0.3,0.3-0.5c-0.2-0.2-0.5-0.2-0.7,0.1c0.2-1-1.2-0.1-0.7-1.1c-0.9-0.2-1.6-0.5-2.2-0.8
			c0.5-0.6,0.6,0.5,1.1-0.2c-0.7-0.2-1.4,0-1.8-0.5c-0.1-0.2,0.3-0.2,0.4-0.2c-0.7-0.2-0.9-0.9-1.7-1c0-0.1,0.1-0.1,0.2-0.1
			c-0.1-0.1-0.1-0.3-0.3,0l0.1,0c-0.2,0.5-1,0.5-1.2,0.7c0.8-0.6-0.3-0.6,0.7-1.3c-0.1,0-0.3,0.1-0.4,0.2c0-0.1,0-0.2,0.3-0.4
			c-0.4-0.1-0.6,0.2-0.8,0c0.1-0.1,0.2-0.1,0.4-0.2c-0.4,0.1-0.7,0.2-0.9-0.1c0.1-0.1,0.1-0.2,0.2-0.1c-0.5-0.3-1.3,0-1.5-0.6
			c0.6-0.4,0-0.3,0.4-0.8l-0.4-0.1l-0.1,0.3c-0.2-0.2-0.7,0-0.8-0.3l0.3-0.1l-0.5-0.3l0.1,0.4c-0.4,0.1-0.5,0.6-0.7,0.2
			c0.1,0-0.2-0.2-0.1-0.6l0,0c-0.2,0.1-0.5,0.1-0.5-0.1c0.1-0.2,0.5-0.5,0.5-0.6c-0.4,0.3-0.6-0.3-1.1,0c0.1-0.1,0.3-0.3,0.4-0.4
			l-0.4,0.2c0-0.2,0-0.2,0.2-0.4c-0.3-0.3-0.4,0.7-0.5,0.1c0.1,0,0.1-0.1,0.2-0.1c-0.3-0.4-0.9-0.4-1.1-0.8c0.3-0.6,0.4,0.1,0.6-0.4
			c-0.6-0.3-1.5-0.3-1.8-0.8l0,0.1c-0.6,0.6-0.1-0.6-0.6-0.5c0.1,0,0.4-0.3,0.3-0.2C20,9.2,19.4,9.2,18.7,9L19,8.9
			c-0.1-0.3-0.4-0.5-0.6-0.8c-0.2,0.1-0.3,0-0.4,0.3c0.2-1.5-1.6-0.5-1.5-1.8c0.1,0.1,0.3,0,0.2-0.1l-0.6-0.2
			c-0.2,0.3-0.1,0.2-0.2,0.5c-0.2,0.1-0.5,0.1-0.6,0c0.4,0,0.4-0.5,0.4-0.7c-0.1,0.1-0.2,0.2-0.2,0.3c0.2-0.7-0.5,0.5-0.6-0.1
			l0.1-0.1c-0.2,0-0.5,0.1-0.6-0.1c0.2-0.4,0.3,0,0.5-0.3c-0.2-0.1-0.9,0.3-0.8-0.2c0.2,0,0.3,0.1,0.4,0c0.1-0.6,0-0.5,0-0.7l0,0
			l-0.2-0.5l0,0.2c-1,0.7-0.6-0.3-1.4,0c0.8-0.3,0.3-0.3,0.7-0.6c0-0.2,0-0.4,0.1-0.5c-0.4,0.2-0.1-0.5-0.6-0.2
			c0.1-0.1-0.2-0.1,0.1-0.4C13,3.1,13.1,3.4,13,3.6c-0.7,0.2-0.3-1.1-1.2-0.9c-0.6-0.1-1,0.3-1.5,0.2c0-0.3,0.5-0.4,0.5-0.4
			c0-0.3-0.2-0.4-0.5-0.4c0.1-0.1,0.2-0.2,0.2-0.4C10.3,1.6,10,2,9.9,1.7c0.1-0.1,0.4-0.3,0.6-0.4c-0.3,0-0.6,0.1-0.9,0
			C9.7,1.1,10,1.1,10.1,1c-0.3-0.1-0.7-0.2-1,0l0,0.2c-0.1,0,0.2-0.3,0.3-0.3c0.4-0.1,0.1,0.3,0.1,0.5l-0.2,0
			c-0.5,0.8,0.6,0.3,0.8,0.6L9.6,2.4l0.6-0.2C10.2,2.3,10,2.7,9.8,2.6c0,0.4,0.3,0,0.2,0.4c0,0.1,0,0.1-0.1,0.1l0.3,0
			c-0.1,0.1-0.3,0.4-0.3,0.2c0.1,0.6,0.8,0,0.6,0.5l-0.1,0c0.6,0.2,0.4-0.3,1.1-0.5L11,4.5l0.4-0.3c0,0.1,0.1,0.2,0,0.3
			c0.4-0.1,0.1-0.2,0.4-0.4c-0.1,0.5,0.7,0.3,0.3,1c0.3-0.2,0-0.4,0.4-0.4c-0.5,0.7,0.4,0.1,0.3,0.6c-0.3,0.3-0.4-0.1-0.4,0.4
			c0.6-0.5,0.3,0.5,0.5,0.5c0.4-0.5,0.5,0.1,0.9,0.2c-0.1,0.1,0.3,0.7,0.4,1.1l-0.1,0.1c0.4-0.4,0.6-0.1,0.9,0
			c-0.2,0.3-0.4,0.3-0.6,0.4L14.6,8c0.2-0.1,0.3-0.1,0.5-0.1l-0.3,0.3c0.3,0.2,0.8,0,1,0.5c0.3-0.3,0.5-1.1,1-1
			c-0.1,0.2-0.4,0.5-0.5,0.5c0,0,0.2-0.1,0.2,0.1l-0.4,0.2c0,0.2,0.3-0.2,0.4-0.1c-0.2,0.2-0.1,0.3-0.2,0.4c0,0,0-0.2-0.1-0.1
			c0.1,0.2,0.1,0.4,0,0.7c0.1-0.1,0.3-0.3,0.4-0.3c0.3,0.2-0.2,0.4-0.1,0.6c0.2-0.1,0.2,0.2,0.5-0.2c0.1,0.1-0.1,0.2-0.1,0.4
			c0.3-0.1,0.6,0.5,0.8-0.1l0-0.1l0,0c0.7,0,0.7,0.9,1.2,1.1l-0.1,0.1c0.4,0.1,0.6,0.4,1,0.3c0.1,0.1,0,0.4-0.2,0.5
			c0.3,0.1,0.4-0.1,0.5,0.4c-0.4,0.1-0.1,0.2-0.3,0c0.2,0.3,0,0.6,0.6,0.4c-0.4,0.2-0.1,0.6,0,0.6l0-0.4c0.2,0.1,0.3,0.2,0.4,0.3
			l-0.4,0.4c0.1,0.9,1.6-0.1,1.3,1.1c0.4-0.2-0.1-0.4,0.3-0.7c0.2,0.3-0.1,1.1,0,1.1c0.1,0.5,0.8-0.4,1,0.1c0.1-0.2,0.4-0.6,0.7-0.5
			c0.2,0.3-0.2,0.9-0.5,0.9c-0.1,0-0.1-0.1,0-0.2c-0.1,0-0.3,0-0.3,0.2l0.2-0.1c0,0.2,0.3,0.5,0,0.7c0.3,0,0.3-0.2,0.2-0.4
			c0.1,0.5,0.5,0.4,0.6,0.8c0-0.1,0.1-0.3,0.2-0.3c0.3,0.6,0.4-0.1,0.8,0.1c0,0.4-0.5,0.5-0.1,0.6c0.1,0.3-0.3,0.4-0.5,0.5
			c0.5,0,0.4,0.6,0.5,0.8l-0.2,0c0.1,0,0.2,0.1,0.3,0.1l0.2-0.4c0,0.1,0.1,0.2,0,0.3c0.3-0.1,0.3-0.6,0.8-0.7c0,0.2,0.5,0.1,0.2,0.6
			c-0.3-0.4-0.3,0.4-0.7,0.2c0.1,0,0.2,0.1,0.2,0.2c0,0.1-0.1,0.1-0.1,0.1c0.1,0.6,0.5-0.3,0.9,0c-0.2,0.2-0.3,0.5-0.2,0.5
			c-0.1-0.1,0.2-0.4,0.5-0.5c0.1,0.4,0.4,0.1,0.5,0.2l-0.1-0.2c0.2-0.2,0.3-0.1,0.5,0c-0.1,0.2-0.2,0-0.3,0.1
			c0.5-0.2,0.1,0.7,0.5,0.7c0,0.2-0.3,0.4-0.3,0.6c0.5-0.1,0,0.6,0.5,0.6c0.2-0.4,0.1-0.3,0.5-0.4L28.1,20l0.7-0.2
			c-0.1-0.1-0.5-0.1-0.5-0.2c0.4-0.1,0.3-0.1,0.4-0.4c-0.2,0.6,0.6,0.1,0.6,0.6l-0.6,0.7c0.1,0.6,0.9,0.1,1.2,0.7l0-0.2
			c0.3-0.2,0.3,0.2,0.6,0.2c-0.2,0.2-0.2,0.4-0.3,0.6c0.1-0.2,0.3,0.3,0.8-0.2l-0.1,0.5c0.3,0.4,1-0.4,1.3,0
			c-0.3,0.2-0.3,0.5-0.7,0.5c0.1,0.1,0.2,0.2,0.3,0.1c-0.1,0.2,0.6-0.1,0.5,0.3c0.1-0.1,0.4-0.3,0.5-0.2c0,0.1-0.1,0.1-0.1,0.1
			c0.1-0.1,0.3,0,0.5-0.4c-0.3,1.1,1.1,0.8,0.8,1.7c0.3,0.1,0.7,0.3,0.9,0.5c-0.1,0.1-0.1,0.1-0.1,0.1c0.1,0.5,0.8-0.5,0.9,0
			c-0.2,0.6-0.4,0.1-0.4,0.3c-0.6,0.9,0.5,0.3,0.4,0.9l-0.1,0c0,0.4,0.7,0.1,1,0.4c0,0-0.1,0.1-0.1,0.1c0.6-0.2,1.1,0,1.5,0.1
			c-0.4,0.2-0.3,0.1-0.5,0.4c0.2,0.1,0.4-0.6,0.7-0.4c-0.1,0.2,0,0.6-0.3,0.9l-0.3-0.2c-0.3,0.6,0.3,0.3,0.4,0.4l-0.2,0.2
			c0.4,0.3,0.9-0.2,1.2,0.1l0.1-0.2c0.6-0.3,0,0.4,0.5,0.3l-0.3,0.6c0.2,0,0.9,0,1.3,0.1c-0.5,0.2-0.9,0.2-1.3,0.2
			c0.1,0.1,0.5,0.4,0.8,0.2c-0.1,0-0.3,0.1-0.3-0.1c0.5-0.2,0.9-0.2,1.2,0c-0.9,0.9,0.6,0.9,0.1,1.8c0.8,0.1,0.9,1,1.5,1.5
			c0.4-0.9,0.2,0.1,0.8-0.7c0.2,0.1,0.2,0.1,0.2,0.2l0,0.8c-0.1,0.3-0.3,0.1-0.4,0.2c0.3,0.3-0.1,0.4-0.1,0.8
			c0.2-0.3,0.4-0.3,0.5-0.1l0.1-0.6c0.8,0-0.2,1,0.6,0.9L44,34.5c0.3,0,0.8,0.7,1.5,0.3c0,0.1-0.2,0.4-0.3,0.3
			c0.5,0.5,1.7,0.3,1.8,1.1l-0.2,0.2c0.1,0,0.5-0.2,0.4,0.1c-0.1,0.1-0.2,0.2-0.2,0.2c0.1,0,0.5-0.1,0.6,0.1l-0.3,0.1
			c0.3,0.7,1.2,0.2,1.8,0.4c-0.5,0.6-0.2,1.1-0.1,1.3L49,38.6c0.5,0.6,1.4,0.4,2.1,0.7c-0.2,0.9,1,1.2,1.2,2c0-0.2,0.4-0.4,0.5-0.4
			c0,0.2,0.7-0.1,0.2,0.4l0,0c-0.3,0.6,0.1,0.7,0.3,0.9l0.6-0.6c-0.3,1.4,1.7,0.9,1.3,2c0.3-0.1,0.4,0.1,0.7,0l-0.3,0.3
			c0.3,0.4,0.4,0.6,1,0.9l-0.3,0.2c0.2,0.2,1.2-0.8,1.4-0.6l-0.4,0.6c0.5,0.4,0.5,1.2,1.4,1.1c-0.1,0.1-0.2,0.2-0.3,0.2
			c0.2,0.2,0.5,1,1,0.3c-0.4,0.5,0.4,0.4,0.8,0.4l-0.3,0.3c0.6-0.3,0.7-0.4,1.1-0.3c0,0.1-0.2,0.3-0.2,0.2c0.1,0.4,0.5-0.2,0.6,0.2
			l-0.3,0.1c0.2,0.2,0.3,0.1,0.6-0.1c0.3,0,0.4,0.5,0.1,0.8c0.2-0.2,0.5-0.3,0.6-0.1c-0.1,0.1-0.2,0.2-0.2,0.2
			c0.2,0.6,0.9,0.1,0.9,0.6C63,49,63,49.1,63,49.2c-0.3-0.3-0.5-0.5-0.5-0.5c-0.3,0.3-0.1,0.6-0.6,0.9c0.4-0.1,1.2-0.3,1.3,0
			c0,0,0,0.1-0.1,0.1l-0.1,0c0,0.1,0.1,0.1,0.2,0.1c0,0.1,0,0.2,0.1,0.3c-0.2,0.3,0.2,0.4,0.3,0.5c0.3-0.4,0.4-0.2,0.5-0.6
			c0,0-0.1,0-0.2,0c0,0-0.1,0-0.1,0l0,0c-0.1-0.1-0.2-0.1-0.3-0.2c0.2-0.1,0.5-0.2,0.4,0.1c0.3-0.2,0.5-0.3,0.6-0.4
			c-0.2,0.6-0.1,1.2-0.4,1.5c0.5,0.1,1,0.6,1.8,0.2c0.2,0,0,0.3-0.1,0.4c-0.1,0-0.2-0.1-0.3,0c0.4,0,0.7,0.5,1.1,0
			c0.1,0.4-0.5,0.3-0.1,0.5l-0.2,0.1c0.1,1.4,2.2-0.2,2.2,1.4c0-0.1,0-0.2,0-0.2c0.6,1.2,2.2,1.2,2.6,2.6c0.1,0.4,0.4,0.1,0.8,0
			l-0.3,0.4c0,0,0.2-0.1,0.3-0.1c0.2-0.1,0.3-0.1,0.3-0.1c0.3,0,0.3,0.4,0.2,0.7c0,0.3-0.1,0.6,0.4,0.5l0.2-0.3
			c0.1,0.2,0.5,0.4,0.1,0.6c0.1,0,0.3-0.1,0.2,0l-0.2,0.1c0,0,0,0,0.1,0c0,0,0.1,0,0.2,0.1c0.1,0,0.3,0.1,0.3,0.1
			c-0.1,0.2-0.3,0.2-0.6,0.2c-0.2,0-0.5,0.1-0.5,0.2c0,0,0.2,0.1,0.4,0.2c0.2,0.1,0.3,0.2,0.4,0.2c0-0.1,0.2-0.1,0.5-0.1
			c0,0,0,0,0,0.1c0,0,0,0.1,0,0.1c0.3,0.1,0.7,0.2,1.1,0.3c0.2,0,0.4,0,0.6,0c0.2-0.1,0.4-0.2,0.6-0.4c0,0,0,0-0.1-0.1
			c0-0.1-0.1-0.1-0.1-0.2c-0.1-0.1-0.1-0.1-0.1-0.2c0-0.1-0.1-0.1-0.1-0.1s0.1-0.1,0.2-0.1c0.1-0.1,0.2-0.1,0.2-0.1s0,0.1,0,0.3
			c0,0.1,0,0.3,0,0.3c0.4-0.3,0.1-0.5-0.2-0.7c0.2-0.1,0.3-0.2,0.4-0.3c0,0-0.1,0-0.1-0.1c-0.1-0.1-0.2-0.1-0.3-0.2
			c-0.1-0.1-0.2-0.1-0.3-0.1c-0.1,0-0.1,0-0.1,0c0.1-0.1,0.3-0.1,0.4-0.1c0.1,0,0.2-0.1,0.2-0.3c-0.2-0.1-0.3,0.1-0.5,0.2
			c-0.1,0.1-0.2,0.2-0.4,0c0.2-0.4,0.5-0.5,0.1-0.6c0.1-0.1,0.3-0.1,0.4-0.1c-0.3-0.1-0.5-0.6-0.9-0.4c0.1-0.2,0-0.4-0.2-0.5
			c-0.1-0.1-0.2-0.3,0.1-0.5c-0.2,0.1-0.7,0.1-0.9,0c0.4-0.2,0.3-0.3,0.1-0.5c-0.1-0.1-0.2-0.2-0.2-0.3c0-0.1,0-0.2,0.2-0.4
			c-0.7,0.4-0.9-0.3-1.4-0.2c0.1,0,0.2-0.1,0.2,0c-0.1-0.2,0-0.4,0-0.6c-0.4,0.5-0.8,0.4-1.2,0.5c0.2-0.7,0.6-0.5,0.9-1
			c-0.3,0.4-0.7,0.1-0.9,0.5c0.1-0.4,0-0.3,0.2-0.7c-0.5,0.6-0.2,0-0.7,0.2c0-0.5,0.4-0.6,0-0.7C71.5,51.5,71.9,51.5,71.9,51.5"/>
		<path class="st3" d="M63.9,49.9L63.9,49.9c0.1,0,0.1-0.1,0.1-0.1C64,49.9,63.9,49.9,63.9,49.9L63.9,49.9z"/>
		<path class="st3" d="M66.2,66.8C66.2,66.8,66.2,66.9,66.2,66.8C66.2,66.8,66.2,66.8,66.2,66.8"/>
		<path class="st3" d="M67.1,70.3L67.1,70.3c-0.1,0.1-0.2,0.1-0.2,0.2L67.1,70.3z"/>
		<path class="st3" d="M61.1,63.2c0,0.1-0.1,0.3-0.2,0.4C61.1,63.3,61.4,63.4,61.1,63.2"/>
		<path class="st3" d="M60.9,63.6L60.9,63.6L60.9,63.6z"/>
		<path class="st3" d="M55.2,63.6c-0.1,0-0.1-0.1,0-0.2c0,0,0.1,0,0.2,0.1l0,0C55.3,63.5,55.3,63.6,55.2,63.6 M56.1,60.3
			c0,0.1,0.1,0.1,0.2,0.2c-0.1,0.1-0.2,0.3-0.2,0.2C56.1,60.6,56.1,60.4,56.1,60.3 M56.6,60.6L56.6,60.6c0.1,0,0.1,0,0.1,0.1
			C56.7,60.7,56.7,60.7,56.6,60.6 M63.3,64c-0.2-0.2-0.5,0.4-0.7,0.6c-0.4-0.1,0.1-0.5,0.2-0.8c-0.3,0-0.8,0.3-0.9,0.2
			c0.1-0.1,0-0.1,0.2-0.2c-0.5,0.2-0.6-0.4-1.2-0.1c0-0.1,0-0.1,0.1-0.1c-0.1,0.3-0.3,0.5-0.5,0.7c-0.1-0.1-0.4,0.1-0.2-0.2
			c0.1,0.1,0.2-0.1,0.3-0.1l-0.2,0c0.2-0.5,0.3,0,0.5-0.4c-0.3,0-0.9,0.1-1-0.1c0.3-0.5,0.5,0.2,0.6-0.4l0.1,0.4
			c0.3-0.9,0.1,0.2,0.5-0.7c-0.3-0.4-0.6-0.1-0.8-0.5c-0.3,0.2-0.3,0.4-0.5,0.6c-0.8,0.1,0.4-1.4-0.4-1.1c-0.3,0.2-0.8,0.8-0.8,0.3
			l0.5-0.4c-0.3-0.3-0.7,0.6-0.9,0c0.2-0.1,0.4,0,0.4-0.1c0.1-0.6-0.4,0.2-0.6,0l0.3-0.5c-0.4-0.2-1.1-0.2-1.5-0.4
			c0.1-0.1,0.3-0.2,0.3-0.4c-0.7-0.2-1.1-0.9-1.4-1.5l-0.5,0.2c0,0,0-0.2,0.2-0.3c-0.1-0.3-0.2,0.2-0.4,0.3c-0.1-0.1,0-0.3,0.2-0.4
			c-0.6,0.1-1.5,0-1.6-0.7l0.2-0.1c-0.2-0.4-0.9,0.5-0.9,0l0.1,0c-0.5-0.6-1.4-0.8-1.4-1.7c-0.5,0.5-0.4-0.7-1,0
			c-0.1-0.6,0.2-0.7-0.1-1.3c-0.1-0.1-0.6,0.3-0.8,0.3l0.3-0.4l-0.5,0.2l0.3-0.6l-0.2,0c0,0.1,0,0.3-0.1,0.4c-0.4,0-0.4-0.7-0.2-0.9
			l-0.8-0.1c0.1-0.1,0.3-0.1,0.4-0.2c-0.6,0.2,0.3-0.5-0.3-0.3c0,0.1-0.2,0.2-0.3,0.3c0.1-0.3-0.3-0.6-0.6-0.7l0.3-0.2
			c-0.4-0.4-1-0.6-1.4-0.9c0.1,0.3-0.3,0.7-0.5,0.6l0.3-0.5c-0.3,0.2,0,0.3-0.4,0.5c-0.1-0.2,0.3-0.6,0.5-0.6l-0.3,0
			c0.1-0.1,0.2-0.2,0.3-0.3c-0.3,0.2,0-0.7-0.5-0.4l0.1-0.1c-0.5-0.4-0.8-0.4-1.2-0.7c-0.3,0.4-0.4,0.2-0.7,0.4
			c-0.2-0.3-0.3-0.9-0.6-1.1c-0.4,0-0.3,0.3-0.6,0.4c0.2-0.3-0.1-0.6,0.2-0.7c-0.4-0.3-0.6-0.3-1.3-0.5c-0.1,0.2,0,0.3-0.2,0.4
			c-0.1,0-0.1-0.3,0-0.4l0.1,0c-1,0.1-0.6-2-1.5-1.7l0.1,0l-0.7,0c-0.2-0.2,0.3-0.1,0.3-0.5c-0.9,0.2-0.7-0.7-1.4-0.7
			c0.4-1.2-1.2-0.8-1.1-1.8l-0.2,0.3c-0.3,0.1,0-0.2-0.1-0.4c-0.1,0.2,0,0.3-0.2,0.4c-1.2-0.5-1.7-1.9-2.5-2.9
			c-0.3-0.3-1.1,1-1.2,0.1l0.5-0.3c-1.1-0.1-1.4-1.2-2.5-1.3c0.1-0.1,0.2-0.2,0.3-0.1c0.1-0.4-0.5-0.5-0.7-0.2
			c-0.1-0.1,0.2-0.2,0.2-0.4c0-0.3-0.7,0.1-0.5-0.3c0-0.1,0.1-0.1,0.2-0.1c-0.2,0.1-0.4-0.4-0.6,0c-0.1-0.4-0.6-0.2-0.7-0.6
			c-0.5,0.3-0.3-0.6-0.8,0c0.5-0.6-0.1-0.8-0.5-0.7c0.2-0.1,0-0.3,0.3-0.5c-0.2-0.1-0.5-0.2-0.7,0.1c0.2-1-1.1,0-0.6-1.1
			c-0.8-0.1-1.5-0.4-2.1-0.6c0.5-0.6,0.6,0.4,1.1-0.2c-0.7-0.2-1.3,0.1-1.7-0.4c-0.1-0.2,0.3-0.2,0.4-0.3c-0.7-0.2-0.9-0.8-1.6-0.8
			c0-0.1,0.1-0.1,0.2-0.1c-0.1,0-0.1-0.2-0.3,0l0.1,0c-0.2,0.5-1,0.5-1.2,0.7c0.8-0.6-0.3-0.5,0.7-1.3c-0.1,0-0.3,0.1-0.4,0.3
			c0-0.1,0-0.2,0.3-0.4c-0.4-0.1-0.5,0.3-0.8,0c0.1-0.1,0.2-0.1,0.3-0.3c-0.3,0.1-0.7,0.3-0.8,0c0.1-0.1,0.1-0.2,0.2-0.1
			c-0.4-0.3-1.2,0.1-1.4-0.5c0.6-0.4,0-0.3,0.4-0.8L19.8,31l-0.1,0.3c-0.2-0.2-0.7,0-0.7-0.3l0.3-0.1l-0.4-0.2l0.1,0.4
			c-0.4,0.1-0.5,0.6-0.6,0.3c0.1,0-0.2-0.2-0.1-0.5l0,0c-0.2,0.1-0.5,0.1-0.5-0.1c0.1-0.2,0.5-0.5,0.5-0.6c-0.4,0.3-0.6-0.3-1,0
			c0.1-0.1,0.3-0.3,0.4-0.4l-0.3,0.3c0-0.2,0-0.2,0.2-0.4c-0.2-0.3-0.4,0.7-0.5,0.1c0,0,0.1-0.1,0.2-0.1c-0.2-0.4-0.8-0.3-1-0.8
			c0.3-0.6,0.4,0.1,0.6-0.4c-0.5-0.3-1.4-0.2-1.7-0.7l0,0.1c-0.6,0.6,0-0.6-0.5-0.5c0.1,0,0.4-0.3,0.3-0.3c-0.2-0.4-0.7-0.3-1.4-0.5
			l0.2-0.1c0-0.3-0.4-0.5-0.5-0.7c-0.2,0.1-0.3,0-0.4,0.3c0.2-1.5-1.5-0.4-1.4-1.6c0.1,0,0.3,0,0.2-0.1L11,24.4
			c-0.2,0.3-0.1,0.2-0.2,0.5c-0.2,0.1-0.4,0.2-0.5,0.1c0.4,0,0.4-0.5,0.4-0.7c-0.1,0.1-0.2,0.2-0.2,0.3c0.2-0.7-0.5,0.6-0.5-0.1
			l0.1-0.1c-0.2,0-0.5,0.1-0.5-0.1c0.2-0.4,0.3-0.1,0.5-0.3c-0.2-0.1-0.9,0.3-0.8-0.1c0.2,0,0.3,0.1,0.4,0c0.2-0.5,0.1-0.5,0-0.6
			l0,0l-0.1-0.4l0,0.2c-1,0.7-0.6-0.2-1.4,0.1c0.7-0.3,0.3-0.3,0.7-0.6c0-0.2,0-0.4,0.1-0.5c-0.4,0.2,0-0.4-0.6-0.2
			c0.1-0.1-0.1-0.1,0.2-0.4c-0.3-0.1-0.1,0.3-0.3,0.4C7.5,22,7.9,20.8,7,21c-0.5-0.1-1,0.3-1.5,0.2C5.6,21,6,20.9,6,20.9
			c0-0.3-0.2-0.4-0.5-0.4c0.1-0.1,0.2-0.2,0.2-0.4c-0.2-0.1-0.5,0.4-0.5,0c0.1-0.1,0.4-0.3,0.5-0.4c-0.3,0-0.6,0.1-0.9,0.1
			c0.1-0.2,0.4-0.2,0.5-0.3c-0.3-0.1-0.6-0.2-1,0.1l0,0.2c-0.1,0,0.2-0.3,0.3-0.3c0.4-0.1,0.1,0.3,0,0.4l-0.2,0
			c-0.5,0.8,0.6,0.3,0.8,0.5L5,20.8l0.6-0.2c-0.1,0.2-0.3,0.5-0.5,0.5c-0.1,0.4,0.3-0.1,0.2,0.3c0,0.1-0.1,0.1-0.1,0.1l0.3,0
			c-0.1,0.1-0.3,0.4-0.3,0.2c0,0.5,0.8,0,0.6,0.5l-0.1,0c0.6,0.2,0.4-0.3,1-0.5l-0.6,1.1l0.4-0.4c0,0.1,0.1,0.1-0.1,0.3
			c0.4-0.1,0.1-0.2,0.4-0.4c-0.1,0.5,0.7,0.3,0.2,1c0.3-0.2,0-0.4,0.4-0.4C7,23.6,7.9,23,7.8,23.5c-0.3,0.3-0.4,0-0.4,0.4
			c0.6-0.5,0.3,0.4,0.5,0.4c0.4-0.5,0.5,0.1,0.9,0.2c-0.1,0.1,0.3,0.7,0.4,1l-0.1,0.1c0.4-0.4,0.6-0.1,0.9-0.1
			c-0.2,0.3-0.4,0.4-0.6,0.4l0.2,0.1c0.2-0.1,0.3-0.1,0.4-0.1l-0.3,0.3c0.2,0.2,0.8,0,0.9,0.5c0.3-0.3,0.5-1.1,1-1.1
			c-0.1,0.2-0.4,0.5-0.5,0.5c0,0,0.2-0.1,0.2,0.1l-0.4,0.2c0,0.2,0.3-0.2,0.4-0.1c-0.2,0.2-0.1,0.2-0.2,0.4c0,0,0-0.2-0.1-0.1
			c0.1,0.1,0.1,0.4,0,0.6c0.1-0.1,0.3-0.3,0.4-0.3c0.2,0.2-0.2,0.4-0.1,0.6c0.2-0.1,0.2,0.2,0.5-0.2c0.1,0.1-0.1,0.2-0.1,0.4
			c0.3-0.1,0.6,0.4,0.8-0.1l0-0.1l0,0l0,0l0,0c0.7,0,0.6,0.9,1.1,1l-0.1,0.1c0.3,0,0.6,0.3,1,0.2c0.1,0.1,0,0.4-0.2,0.5
			c0.3,0.1,0.4-0.1,0.5,0.3c-0.4,0.1-0.1,0.2-0.3,0c0.1,0.3,0,0.5,0.6,0.4c-0.3,0.3-0.2,0.5,0,0.5l0-0.4c0.2,0.1,0.2,0.2,0.3,0.3
			l-0.4,0.4c0,0.9,1.6-0.2,1.2,1c0.4-0.2-0.1-0.4,0.3-0.7c0.2,0.2-0.1,1,0,1.1c0.1,0.5,0.8-0.4,1,0c0.1-0.2,0.4-0.6,0.7-0.6
			c0.2,0.2-0.3,0.9-0.5,0.9c-0.1,0,0-0.1,0-0.1c-0.1,0-0.3,0-0.3,0.2l0.2-0.1c0,0.2,0.3,0.5,0,0.7c0.3,0,0.3-0.2,0.2-0.4
			c0.1,0.4,0.4,0.4,0.6,0.7c0-0.1,0.1-0.3,0.2-0.3c0.3,0.5,0.4-0.1,0.8,0c0,0.4-0.5,0.5-0.1,0.5c0,0.3-0.3,0.4-0.5,0.5
			c0.5-0.1,0.3,0.6,0.4,0.8l-0.2,0c0.1,0,0.2,0.1,0.3,0.1l0.2-0.4c0,0.1,0.1,0.2,0,0.3c0.2-0.1,0.3-0.6,0.7-0.7
			c0,0.2,0.5,0.1,0.2,0.5c-0.2-0.4-0.3,0.4-0.6,0.3c0.1,0,0.2,0.1,0.2,0.2c0,0.1-0.1,0.1-0.1,0.1c0,0.6,0.5-0.3,0.8-0.1
			c-0.2,0.2-0.3,0.5-0.2,0.5c-0.1-0.1,0.2-0.4,0.5-0.5c0.1,0.4,0.3,0.1,0.4,0.2l-0.1-0.2c0.2-0.2,0.3-0.1,0.5,0
			c-0.1,0.2-0.2,0-0.2,0.1c0.5-0.3,0,0.7,0.5,0.6c0,0.2-0.3,0.4-0.3,0.6c0.5-0.1,0,0.5,0.5,0.5c0.2-0.4,0.1-0.3,0.5-0.4L22,37
			l0.6-0.2c-0.1-0.1-0.4,0-0.5-0.2c0.3-0.1,0.3-0.1,0.4-0.4c-0.2,0.6,0.6,0,0.6,0.5l-0.6,0.7c0.1,0.6,0.9,0.1,1.2,0.6l0-0.2
			c0.3-0.3,0.3,0.2,0.5,0.2c-0.2,0.2-0.2,0.4-0.3,0.6c0.1-0.2,0.3,0.3,0.7-0.2l-0.1,0.5c0.2,0.4,1-0.4,1.2-0.1
			c-0.3,0.2-0.3,0.5-0.7,0.5c0.1,0.1,0.2,0.2,0.3,0c-0.1,0.2,0.6-0.1,0.5,0.2c0.1-0.1,0.4-0.3,0.5-0.2c0,0.1-0.1,0.1-0.1,0.1
			c0.1-0.1,0.3,0,0.4-0.4c-0.3,1.1,1,0.7,0.7,1.6c0.3,0.1,0.7,0.3,0.9,0.4c-0.1,0.1-0.1,0.1-0.1,0.1c0.1,0.5,0.8-0.6,0.9,0
			c-0.2,0.5-0.4,0.1-0.4,0.3c-0.6,0.9,0.5,0.2,0.3,0.9l-0.1,0c-0.1,0.4,0.7,0,0.9,0.3c0,0-0.1,0.1-0.1,0.1c0.5-0.3,1-0.1,1.4,0
			c-0.3,0.3-0.3,0.1-0.5,0.4c0.2,0.1,0.4-0.6,0.7-0.5c-0.1,0.2,0,0.5-0.3,0.9l-0.2-0.2c-0.2,0.6,0.3,0.2,0.4,0.4L31,44.2
			c0.4,0.2,0.8-0.3,1.2,0.1l0.1-0.2c0.6-0.3,0,0.4,0.5,0.2l-0.3,0.6c0.2,0,0.9-0.1,1.2,0c-0.4,0.3-0.9,0.2-1.2,0.3
			c0.1,0.1,0.5,0.3,0.8,0.1c-0.1,0-0.3,0.1-0.3,0c0.5-0.3,0.9-0.3,1.1-0.1c-0.8,0.9,0.5,0.8,0.1,1.7c0.8,0,0.8,0.9,1.5,1.3
			c0.4-0.9,0.2,0.1,0.8-0.7c0.2,0.1,0.2,0.1,0.2,0.2l0,0.8c-0.1,0.3-0.3,0.1-0.4,0.3c0.2,0.3-0.1,0.4-0.1,0.8
			c0.2-0.3,0.4-0.3,0.5-0.1l0.1-0.5c0.7-0.1-0.2,0.9,0.6,0.8l-0.3,0.1c0.3,0,0.8,0.6,1.5,0.1c0,0.1-0.2,0.4-0.3,0.4
			c0.4,0.5,1.6,0.2,1.7,0.9l-0.2,0.2c0.1,0,0.4-0.2,0.4,0c-0.1,0.1-0.2,0.2-0.2,0.2c0.1,0,0.5-0.1,0.5,0.1L40,51.9
			c0.3,0.6,1.2,0.1,1.7,0.2c-0.4,0.6-0.2,1.1-0.1,1.3l-0.1,0.1c0.5,0.5,1.3,0.3,2,0.5c-0.2,0.9,0.9,1.1,1.2,1.9
			c0-0.2,0.4-0.4,0.5-0.4c0,0.2,0.6-0.1,0.2,0.4l0,0c-0.3,0.6,0.1,0.6,0.2,0.8l0.6-0.7c-0.3,1.4,1.6,0.7,1.2,1.8
			c0.3-0.1,0.4,0.1,0.7,0l-0.3,0.4c0.3,0.4,0.4,0.5,0.9,0.8l-0.3,0.2c0.2,0.2,1.1-0.8,1.4-0.7L49.4,59c0.4,0.3,0.5,1.1,1.3,1
			c-0.1,0.1-0.2,0.2-0.3,0.2c0.2,0.2,0.5,1,1,0.1c-0.4,0.5,0.4,0.4,0.8,0.3L51.9,61c0.6-0.3,0.7-0.4,1-0.4c0,0.1-0.2,0.3-0.2,0.2
			c0.1,0.4,0.4-0.2,0.5,0.2L53,61.1c0.2,0.2,0.3,0.1,0.6-0.1c0.2,0,0.3,0.4,0.1,0.8c0.2-0.2,0.5-0.4,0.6-0.2
			c-0.1,0.1-0.2,0.2-0.2,0.2c0.2,0.5,0.9,0,0.8,0.5c-0.1,0.1-0.1,0.2-0.1,0.2c-0.3-0.2-0.5-0.4-0.5-0.4c-0.3,0.3-0.1,0.6-0.6,0.9
			c0.4-0.1,1.1-0.4,1.2-0.1c0,0,0,0.1-0.1,0.1l-0.1,0c0,0.1,0.1,0.1,0.2,0.1c0,0.1,0,0.2,0.1,0.2c-0.2,0.3,0.2,0.4,0.3,0.5
			c0.3-0.4,0.4-0.2,0.5-0.6c0,0-0.1,0-0.1,0c0,0-0.1,0-0.1,0l0,0c-0.1,0-0.2-0.1-0.3-0.2c0.2-0.1,0.5-0.2,0.4,0.1
			c0.2-0.2,0.5-0.4,0.6-0.5c-0.2,0.6-0.1,1.1-0.3,1.5c0.5,0.1,0.9,0.5,1.7,0c0.2,0,0,0.3-0.1,0.4c-0.1,0-0.2,0-0.3,0
			c0.3,0,0.7,0.4,1.1-0.1c0.1,0.4-0.5,0.3-0.1,0.5l-0.2,0.1c0.1,1.3,2.1-0.4,2.1,1.2c0-0.1,0-0.2,0-0.2c0.5,1.1,2.1,1,2.5,2.3
			c0.1,0.3,0.4,0,0.7-0.1l-0.2,0.4l0.6-0.3c0.6-0.1-0.1,1.5,0.8,1.2l0.1-0.3c0.1,0.2,0.6,0.2,0.4,0.5c0.1,0,0.3-0.2,0.2,0l-0.2,0.2
			l0.7,0c0.2,0.4-0.7,0.8-0.2,1.2c0.2,0,0.9-0.2,1-0.4c-0.1-0.1-0.1-0.3,0.1-0.5l0.2,0c0.5-0.6,1.1-1.1,1-1.8l-0.5,0.2l0.1-0.4
			l0.2,0.2c0.1-0.4-0.2-0.2-0.4-0.1c0.1-0.2,0.1-0.3,0.1-0.4l-0.7,0.4c0.1-0.3,0.5-0.4,0.4-0.7c-0.3,0.2-0.3,0.6-0.6,0.7
			c0.1-0.4,0.3-0.6,0-0.5c0.1-0.2,0.2-0.2,0.3-0.3c-0.3,0.1-0.4-0.2-0.7,0.1c0.1-0.4-0.5-0.3-0.1-0.8c-0.1,0.1-0.6,0.3-0.7,0.2
			c0.7-0.5-0.4-0.4,0.2-1.1c-0.6,0.5-0.8-0.2-1.4-0.1c0.1,0,0.2-0.1,0.2-0.1c-0.1-0.2,0-0.4,0-0.6c-0.4,0.5-0.8,0.4-1.1,0.6
			c0.2-0.6,0.6-0.5,0.9-1c-0.3,0.4-0.7,0.1-0.9,0.5c0.1-0.4,0-0.3,0.2-0.7c-0.5,0.6-0.2,0-0.7,0.3c0-0.5,0.4-0.6,0-0.6
			C62.9,64.1,63.3,64,63.3,64"/>
		<path class="st3" d="M55.7,63.2L55.7,63.2c0.1,0,0.1-0.1,0.1-0.1C55.7,63.2,55.7,63.2,55.7,63.2L55.7,63.2z"/>
		<path class="st3" d="M75.7,68C75.7,68,75.7,68,75.7,68C75.7,68,75.6,68,75.7,68"/>
		<path class="st3" d="M73.8,65.2L73.8,65.2c0.1-0.1,0.1-0.2,0.1-0.3L73.8,65.2z"/>
		<path class="st3" d="M97.3,88c-0.4,0.3-0.6-0.3-1,0.1C96.5,88.1,97.1,88.3,97.3,88"/>
		<polygon class="st3" points="96.4,88.1 96.4,88.1 96.3,88.2 		"/>
		<path class="st3" d="M81.1,69.6c0-0.1,0-0.3,0.1-0.4C81,69.5,80.7,69.5,81.1,69.6"/>
		<path class="st3" d="M91,76.7L91,76.7C90.9,76.7,90.9,76.7,91,76.7"/>
		<path class="st3" d="M81.1,69.2L81.1,69.2L81.1,69.2z"/>
		<path class="st3" d="M86.4,67.6c0.1,0,0.1,0.1,0.1,0.2c0,0-0.1,0-0.2,0l0,0C86.3,67.7,86.3,67.7,86.4,67.6 M85.9,71
			c0,0-0.1-0.1-0.2-0.1c0.1-0.1,0.2-0.3,0.2-0.2C85.8,70.7,85.9,70.9,85.9,71 M85.4,70.8L85.4,70.8c-0.1,0-0.1,0-0.1,0
			C85.3,70.7,85.4,70.8,85.4,70.8 M78.9,69.5c0.3,0.1,0.3-0.5,0.5-0.8c0.4,0,0,0.5,0,0.8c0.2-0.1,0.6-0.6,0.7-0.5
			c0,0.1,0,0.1-0.1,0.2c0.4-0.4,0.6,0.2,1.1-0.3c0,0.1,0,0.1,0,0.2c0.1-0.3,0.2-0.6,0.3-0.8c0.1,0,0.4-0.3,0.3,0.1
			c-0.1,0-0.1,0.1-0.2,0.2l0.2-0.1c-0.1,0.6-0.2,0.1-0.4,0.5c0.3-0.1,0.8-0.4,0.9-0.2c-0.2,0.5-0.5,0-0.4,0.6l-0.2-0.3
			c-0.1,0.9-0.1-0.1-0.3,0.8c0.3,0.3,0.5-0.1,0.8,0.2c0.2-0.3,0.1-0.4,0.3-0.7c0.7-0.3-0.1,1.5,0.5,0.9c0.2-0.3,0.6-0.9,0.7-0.5
			l-0.4,0.5c0.3,0.2,0.6-0.7,0.8-0.2c-0.2,0.2-0.4,0.1-0.3,0.2c0,0.6,0.3-0.2,0.5-0.2l-0.2,0.5c0.2,0,0.4,0,0.7,0c0.2,0,0.5,0,0.7,0
			c-0.1,0.1-0.2,0.3-0.2,0.4c0.3,0,0.6,0.2,0.8,0.4c0.2,0.2,0.4,0.5,0.5,0.8l0.4-0.3c0,0-0.1,0.2-0.1,0.3c0.1,0.3,0.2-0.2,0.4-0.4
			c0.1,0,0,0.3-0.2,0.4c0.5-0.1,1.4-0.1,1.3,0.5L88,73.2c0.1,0.3,0.9-0.6,0.8,0l-0.1,0c0.1,0.1,0.2,0.3,0.3,0.4
			c0.1,0.1,0.2,0.2,0.4,0.3c0.2,0.2,0.4,0.5,0.3,0.9c0.3-0.2,0.3,0,0.4,0.1c0.1,0.1,0.1,0.3,0.5,0c-0.1,0.6-0.4,0.6-0.3,1.2
			c0,0.1,0.6-0.2,0.8-0.1l-0.4,0.3l0.3,0l0.3,0l-0.5,0.4l0.2,0.1c0-0.1,0.1-0.2,0.3-0.3c0.3,0.1,0,0.7-0.2,0.8c0,0,0.2,0.1,0.3,0.2
			c0.2,0.1,0.3,0.2,0.3,0.2c-0.2,0.1-0.3,0-0.4,0c0.6,0-0.5,0.3,0.1,0.3c0.1-0.1,0.3-0.1,0.4-0.1c-0.1,0.1-0.1,0.3-0.1,0.4
			c0,0.1,0.1,0.2,0.2,0.3l-0.3,0.1c0,0.2,0.1,0.4,0.3,0.6c0.1,0.2,0.2,0.4,0.3,0.6c0.1-0.2,0.7-0.4,0.8-0.2l-0.5,0.2
			c0.3,0,0.2-0.2,0.6-0.1c0,0.2-0.5,0.3-0.7,0.2l0.2,0.2c-0.1,0.1-0.2,0-0.4,0.1c0.2,0,0.1,0.1,0,0.2c-0.1,0.1-0.1,0.2,0.2,0.2
			l-0.2,0.1c0.1,0.5,0.3,0.6,0.4,1c0.5-0.1,0.4,0.1,0.8,0.1c-0.1,0.3-0.4,0.7-0.3,1.1c0.3,0.2,0.4,0,0.7,0.1
			c-0.4,0.1-0.3,0.4-0.6,0.3c0.1,0.4,0.2,0.6,0.6,1.1c0.2-0.1,0.2-0.2,0.4-0.1c0.1,0.1-0.1,0.3-0.3,0.3l0,0c0.4,0.3,0.1,0.7-0.1,1.1
			c-0.2,0.4-0.4,0.8,0,1l0,0l0.5,0.5c0,0.3-0.3-0.1-0.6,0.1c0.8,0.5,0,1,0.5,1.4c-1.2,0.5,0.3,1.4-0.5,2l0.3-0.1
			c0.3,0.1-0.1,0.2-0.2,0.3c0.2,0,0.2-0.2,0.4-0.1c0.3,0.6,0.2,1.2,0.2,1.8c-0.1,0.6-0.2,1.3-0.1,2c0,0.2,0.4,0.2,0.7,0.2
			c0.3,0,0.6,0,0.3,0.4l-0.6,0c0.5,0.4,0.6,0.8,0.7,1.3c0.1,0.2,0.2,0.5,0.3,0.7c0.1,0.2,0.3,0.4,0.5,0.5c-0.1,0-0.3,0.1-0.3,0
			c-0.3,0.3,0.3,0.7,0.6,0.5c0,0.1-0.2,0.2-0.4,0.3c-0.1,0.3,0.7,0.2,0.4,0.5c0,0-0.1,0-0.2,0c0.2,0,0.2,0.5,0.6,0.2
			c0,0.4,0.5,0.5,0.4,0.8c0.5-0.1,0.1,0.6,0.7,0.3c-0.6,0.4-0.2,0.8,0.2,0.8c-0.2,0.1-0.1,0.3-0.4,0.4c0.2,0.2,0.4,0.3,0.7,0
			c-0.2,0.4,0.1,0.5,0.3,0.6c0.2,0.1,0.4,0.1,0.1,0.6c0.4,0.2,0.7,0.3,1.1,0.5c0.2,0.1,0.3,0.2,0.5,0.2c0.1,0.1,0.3,0.2,0.4,0.2
			c-0.6,0.5-0.5-0.5-1.1,0.1c0.3,0.1,0.7,0.1,0.9,0.2c0.3,0.1,0.5,0.1,0.7,0.4c0,0.2-0.3,0.2-0.4,0.2c0.3,0.1,0.5,0.3,0.7,0.5
			c0.2,0.2,0.4,0.4,0.7,0.4c0,0-0.1,0.1-0.2,0.1c0.1,0.1,0.1,0.2,0.3,0l-0.1,0c0.2-0.5,1-0.5,1.2-0.7c-0.8,0.6,0.2,0.5-0.8,1.3
			c0.1,0,0.3-0.1,0.4-0.3c0,0.1,0,0.2-0.3,0.4c0.4,0.1,0.5-0.3,0.8,0c-0.1,0.1-0.2,0.1-0.3,0.3c0.3-0.1,0.7-0.3,0.8,0
			c-0.1,0.1-0.1,0.2-0.2,0.1c0.2,0.1,0.5,0.1,0.8,0.1c0.3,0,0.5,0,0.6,0.3c-0.5,0.5,0,0.3-0.3,0.8l0.3,0l0.1-0.3
			c0.2,0.2,0.6-0.1,0.7,0.2l-0.3,0.1l0.5,0.2l-0.1-0.3c0.4-0.1,0.4-0.7,0.6-0.3c-0.1,0,0.2,0.1,0.1,0.5c0.2-0.1,0.4-0.2,0.5,0
			c-0.1,0.2-0.4,0.6-0.4,0.7c0.4-0.4,0.6,0.2,1-0.2c-0.1,0.1-0.3,0.4-0.3,0.4l0.3-0.3c0,0.2,0,0.2-0.1,0.4c0.3,0.2,0.3-0.7,0.5-0.2
			c0,0-0.1,0.1-0.2,0.1c0.3,0.4,0.8,0.2,1,0.5c-0.2,0.6-0.4,0-0.5,0.5c0.1,0,0.3,0.1,0.4,0.1c0.2,0,0.3,0,0.5,0c0.3,0,0.6,0,0.8,0.2
			l-0.1-0.1c0.4-0.7,0.2,0.6,0.6,0.3c-0.1,0-0.3,0.4-0.2,0.3c0.3,0.3,0.8,0.1,1.4,0.1l-0.2,0.2c0.1,0.3,0.5,0.3,0.6,0.5
			c0.1-0.2,0.3-0.1,0.3-0.4c0.1,0.7,0.5,0.7,0.8,0.6s0.7-0.2,0.8,0.5c-0.1,0-0.2,0.1-0.2,0.1l0.6,0c0.1-0.4,0-0.2,0-0.6
			c0.1-0.2,0.3-0.3,0.5-0.2c-0.3,0.2-0.2,0.6-0.2,0.8c0-0.1,0.1-0.2,0.1-0.3c0,0.7,0.3-0.7,0.5-0.1l-0.1,0.2c0.2,0,0.4-0.3,0.5-0.1
			c-0.1,0.4-0.2,0.1-0.3,0.5c0.2,0.1,0.7-0.6,0.7-0.2c-0.1,0.1-0.2,0-0.4,0.1c0,0.6,0.1,0.4,0.2,0.6l0,0l0.3,0.3l0-0.2
			c0.6-1,0.6,0,1.2-0.6c-0.6,0.6-0.2,0.4-0.4,0.8c0,0.2,0.1,0.4,0,0.5c0.3-0.3,0.2,0.4,0.6-0.1c0,0.2,0.2,0.1,0,0.4
			c0.3,0,0-0.3,0.1-0.5c0.5-0.4,0.5,0.9,1.2,0.3c0.5-0.2,0.7-0.7,1.2-0.8c0,0.3-0.3,0.5-0.3,0.5c0.1,0.3,0.3,0.3,0.5,0.2
			c-0.1,0.1-0.1,0.2-0.1,0.4c0.2,0,0.3-0.5,0.4-0.2c-0.1,0.2-0.2,0.4-0.3,0.6c0.2-0.1,0.5-0.3,0.7-0.4c0,0.3-0.2,0.4-0.4,0.5
			c0.2-0.1,0.6-0.1,0.8-0.5l-0.1-0.2c0.1,0-0.1,0.4-0.2,0.4c-0.3,0.3-0.2-0.2-0.2-0.4l0.2-0.1c0.2-0.9-0.6,0-0.8-0.2l0.3-0.6
			l-0.4,0.5c0-0.2,0.1-0.6,0.2-0.6c-0.1-0.4-0.2,0.2-0.3-0.2c0-0.1,0-0.1,0-0.1l-0.3,0.1c0.1-0.1,0.1-0.5,0.2-0.3
			c-0.2-0.5-0.7,0.3-0.7-0.2l0,0c-0.5,0.1-0.2,0.5-0.7,0.9l0.2-1.3l-0.2,0.5c0,0-0.1-0.1,0-0.3c-0.3,0.3,0,0.2-0.2,0.5
			c-0.1-0.5-0.7,0-0.5-0.8c-0.2,0.3,0.1,0.4-0.2,0.5c0.2-0.8-0.3,0-0.4-0.4c0.2-0.4,0.3-0.1,0.2-0.6c-0.4,0.7-0.3-0.3-0.6-0.2
			c-0.2,0.6-0.5,0.1-0.8,0.2c0.1-0.2-0.4-0.5-0.6-0.8l0-0.1c-0.3,0.5-0.5,0.3-0.8,0.4c0.1-0.3,0.2-0.5,0.4-0.6c0,0,0,0-0.1,0
			c0,0-0.1,0-0.1,0c-0.1,0.2-0.2,0.2-0.4,0.3l0.2-0.4c-0.3-0.1-0.7,0.3-0.9-0.1c-0.2,0.4-0.2,1.2-0.6,1.3c0.1-0.2,0.2-0.6,0.3-0.6
			c0,0-0.2,0.1-0.2,0l0.3-0.3c-0.1-0.2-0.2,0.3-0.3,0.2c0.1-0.3,0-0.2,0.1-0.5c0,0,0,0.2,0.1,0.1c-0.1-0.1-0.2-0.3-0.2-0.6
			c-0.1,0.2-0.2,0.4-0.3,0.4c-0.3-0.1,0.1-0.4,0-0.6c-0.1,0.2-0.2-0.1-0.4,0.3c-0.1,0,0-0.2,0-0.4c-0.2,0.1-0.6-0.2-0.7,0.3l0,0l0,0
			c-0.6,0.3-0.8-0.6-1.3-0.6l0.1-0.1c-0.3,0-0.6-0.2-0.9,0.1c-0.1,0,0-0.4,0.1-0.5c-0.2,0-0.3,0.2-0.5-0.2c0.3-0.2,0.1-0.3,0.3-0.1
			c-0.2-0.2-0.1-0.5-0.6-0.2c0.3-0.3,0.1-0.6-0.1-0.5l0,0.4c-0.2,0-0.2-0.1-0.3-0.2l0.3-0.4c-0.1-0.4-0.4-0.3-0.7-0.2
			c-0.3,0.1-0.6,0.1-0.5-0.5c-0.3,0.3,0.1,0.4-0.2,0.7c-0.2-0.2,0-1-0.1-1c-0.1-0.4-0.7,0.5-0.9,0.2c-0.1,0.2-0.3,0.7-0.6,0.7
			c-0.2-0.2,0.2-0.9,0.4-0.9c0.1,0,0,0.1,0,0.1c0.1,0,0.2,0,0.3-0.3l-0.1,0.1c0-0.2-0.3-0.4,0-0.6c-0.3,0.1-0.2,0.2-0.2,0.4
			c-0.1-0.4-0.4-0.3-0.6-0.6c0,0.1-0.1,0.3-0.2,0.3c-0.2-0.5-0.4,0.2-0.7,0.1c0-0.3,0.5-0.5,0.1-0.5c0-0.3,0.3-0.4,0.4-0.5
			c-0.5,0.1-0.3-0.5-0.4-0.7l0.2,0c-0.1,0-0.2,0-0.2-0.1l-0.2,0.4c0-0.1-0.1-0.2,0-0.3c-0.2,0.1-0.3,0.6-0.7,0.7
			c0-0.2-0.4-0.1-0.1-0.5c0.2,0.4,0.3-0.4,0.6-0.3c-0.1,0-0.1,0-0.2-0.2c0-0.1,0.1-0.1,0.1-0.1c0-0.6-0.5,0.4-0.8,0.1
			c0.2-0.2,0.3-0.5,0.2-0.5c0.1,0.1-0.3,0.4-0.5,0.5c0-0.3-0.3,0-0.4-0.2l0,0.2c-0.2,0.2-0.3,0.1-0.5,0c0.1-0.2,0.2,0,0.2-0.1
			c-0.5,0.3,0-0.7-0.4-0.6c0.1-0.2,0.4-0.4,0.4-0.6c-0.5,0.1,0.1-0.5-0.4-0.5c-0.2,0.3-0.1,0.3-0.6,0.4l0.3,0.1
			c0.1,0,0.3,0.1,0.3,0.1l-0.6,0.2c0.1,0.1,0.4,0.1,0.4,0.2c-0.3,0.1-0.3,0.1-0.4,0.3c0.3-0.6-0.5-0.1-0.4-0.5l0.7-0.7
			c0.1-0.6-0.8-0.1-0.9-0.6l0,0.2c-0.3,0.2-0.2-0.2-0.5-0.2c0.3-0.2,0.3-0.3,0.4-0.5c-0.2,0.2-0.2-0.3-0.7,0.1l0.2-0.4
			c-0.1-0.4-1,0.2-1.1-0.1c0.3-0.1,0.4-0.4,0.8-0.3c-0.1-0.1-0.1-0.2-0.3-0.1c0.1-0.2-0.6,0-0.4-0.3c-0.1,0-0.4,0.2-0.5,0.1
			c0,0,0.1-0.1,0.1-0.1c-0.1,0.1-0.3-0.1-0.5,0.2c0.3-0.4,0.2-0.7,0-0.9c-0.2-0.2-0.3-0.4-0.1-0.8c-0.1-0.1-0.2-0.2-0.3-0.3
			c-0.1-0.1-0.2-0.2-0.3-0.3c0.1,0,0.1-0.1,0.1,0c0.1-0.4-0.9,0.2-0.8-0.3c0.4-0.4,0.3,0.1,0.5-0.1c0.9-0.5-0.3-0.4,0.1-0.8l0.1,0
			c0.3-0.3-0.6-0.3-0.6-0.6c0,0,0.1,0,0.1-0.1c-0.6,0-0.9-0.3-1.1-0.6c0.4,0,0.3,0.1,0.6-0.1c-0.1-0.1-0.6,0.3-0.8,0
			c0.2-0.2,0.3-0.4,0.7-0.6l0.1,0.2c0.5-0.3-0.1-0.3-0.1-0.5l0.3-0.1c-0.2-0.3-0.8-0.2-0.9-0.6L97,93.1c-0.7-0.1,0.3-0.3-0.2-0.4
			l0.6-0.2c-0.2-0.1-0.7-0.4-0.9-0.7c0.5,0.1,0.8,0.3,1.1,0.5c0-0.1-0.2-0.5-0.5-0.5c0.1,0,0.2,0.1,0.2,0.2
			c-0.5-0.1-0.8-0.3-0.9-0.6c1.2-0.2,0.2-0.9,1.1-1.2c-0.3-0.2-0.3-0.5-0.2-0.8c0.1-0.3,0.2-0.6,0.1-0.9c-0.9,0.4,0-0.2-1,0
			c-0.1-0.1-0.1-0.2,0-0.2l0.5-0.5c0.3-0.1,0.2,0.1,0.5,0.1c0-0.3,0.4-0.2,0.6-0.4c-0.3,0.1-0.5-0.1-0.4-0.3l-0.4,0.3
			c-0.6-0.4,0.8-0.5,0.2-0.9l0.3,0.1c-0.2-0.2-0.1-0.9-0.9-1c0.1-0.1,0.4-0.1,0.5,0c0.1-0.6-1-1.2-0.6-1.7l0.2,0
			c-0.1-0.1-0.5-0.1-0.3-0.3c0.1,0,0.2,0,0.3,0c-0.1,0-0.5-0.2-0.3-0.4l0.3,0.1c0.2-0.6-0.8-0.8-1-1.3c0.7-0.1,0.9-0.6,0.9-0.9
			l0.1,0c0-0.2-0.1-0.3-0.2-0.5c-0.1-0.1-0.2-0.3-0.3-0.4c-0.3-0.2-0.6-0.5-0.8-0.7c0.3-0.3,0.3-0.7,0.2-1c-0.1-0.4-0.2-0.8-0.1-1.2
			c-0.1,0.1-0.5,0.2-0.6,0.1c0.1-0.2-0.6-0.2,0-0.4l0,0.1c0.6-0.4,0.3-0.6,0.2-0.9l-0.8,0.3c0.4-0.6,0.1-0.9-0.2-1.2
			c-0.3-0.3-0.6-0.5-0.3-1c-0.3,0-0.4-0.2-0.7-0.2l0.4-0.3c-0.1-0.2-0.2-0.4-0.3-0.6c-0.1-0.2-0.2-0.3-0.5-0.5l0.3-0.1
			c-0.2-0.3-1.3,0.6-1.5,0.4l0.5-0.5C92,72,92,71.7,91.8,71.4C91.7,71.2,91.5,71,91,71c0.1-0.1,0.2-0.2,0.3-0.2
			c-0.2-0.2-0.5-1-1-0.2c0.4-0.5-0.4-0.4-0.8-0.4l0.3-0.3c-0.5,0.3-0.6,0.4-1,0.4c0-0.1,0.2-0.3,0.2-0.2c-0.1-0.4-0.4,0.2-0.5-0.1
			l0.3-0.2c-0.2-0.2-0.3,0-0.6,0.2c-0.2,0.1-0.4-0.4-0.2-0.7c-0.2,0.2-0.5,0.4-0.5,0.2c0.1-0.1,0.2-0.2,0.2-0.2
			c-0.2-0.5-0.8,0.1-0.9-0.4c0.1-0.1,0.1-0.2,0.1-0.3c0.3,0.2,0.5,0.3,0.5,0.4c0.2-0.4,0-0.6,0.5-1c-0.4,0.2-1.1,0.6-1.2,0.2
			c0,0,0-0.1,0-0.1l0,0c0-0.1-0.1-0.1-0.2,0c0-0.1-0.1-0.2-0.1-0.2c0.1-0.3-0.2-0.3-0.3-0.4c-0.2,0.4-0.3,0.3-0.3,0.7c0,0,0,0,0.1,0
			l0.1,0l0,0c0.1,0,0.2,0.1,0.3,0.1c-0.2,0.2-0.4,0.3-0.4,0c-0.2,0.2-0.4,0.5-0.5,0.6c0.1-0.7-0.1-1.1,0.1-1.5c-0.5,0-1-0.3-1.6,0.4
			c-0.2,0.1,0-0.3,0-0.4c0.1-0.1,0.2,0,0.3-0.1c-0.3,0.1-0.7-0.2-1,0.3c-0.2-0.4,0.4-0.5-0.1-0.5l0.1-0.2c-0.2-0.6-0.7-0.4-1.1-0.2
			c-0.4,0.2-0.9,0.4-1.1-0.3c0,0.1,0.1,0.1,0,0.2c-0.4-0.4-0.9-0.5-1.5-0.6c-0.5-0.1-1-0.2-1.4-0.8c-0.2-0.3-0.4,0.1-0.6,0.3
			l0.1-0.5l-0.5,0.5c-0.5,0.3-0.4-1.4-1.1-0.8l0,0.3c-0.2-0.1-0.6,0-0.5-0.3c0,0.1-0.1,0.3-0.2,0.1l0.1-0.3L74.8,65
			c-0.3-0.3,0.3-1-0.2-1.2c-0.2,0-0.7,0.6-0.7,0.8c0.1,0,0.2,0.2,0.1,0.5l-0.2,0.1c-0.2,0.7-0.5,1.5-0.2,2.1l0.4-0.4l0,0.4l-0.3,0
			c0.1,0.4,0.2,0.1,0.4-0.1c0,0.2,0,0.3,0,0.4l0.5-0.6c0,0.3-0.3,0.5-0.1,0.8c0.2-0.3,0-0.7,0.3-0.8c0.1,0.4-0.1,0.6,0.2,0.4
			c0,0.2-0.1,0.3-0.2,0.4c0.2-0.2,0.4,0,0.6-0.4c0,0.5,0.5,0,0.3,0.7c0.1-0.2,0.4-0.5,0.5-0.5c-0.5,0.8,0.5,0.2,0.2,1.1
			c0.4-0.7,0.7-0.2,1.2-0.5c0,0.1-0.1,0.2-0.1,0.1c0.2,0.1,0.1,0.4,0.2,0.5c0.2-0.6,0.5-0.7,0.8-1c0,0.7-0.4,0.7-0.5,1.3
			c0.1-0.5,0.5-0.4,0.6-0.8c0,0.4,0.1,0.2,0,0.8c0.3-0.8,0.2-0.1,0.5-0.5c0.1,0.5-0.2,0.7,0.2,0.6C79.3,69.3,78.9,69.5,78.9,69.5"/>
		<path class="st3" d="M85.9,68.1L85.9,68.1c-0.1,0.1-0.1,0.1,0,0.1C85.9,68.2,85.9,68.1,85.9,68.1L85.9,68.1z"/>
		<polygon class="st3" points="90.5,76.3 90.6,76.3 90.5,76.3 		"/>
		<polygon class="st3" points="94.8,75.6 95,75.7 94.8,75.5 		"/>
		<path class="st3" d="M77.1,62.7C77.1,62.7,77.1,62.6,77.1,62.7C77.1,62.7,77.1,62.7,77.1,62.7"/>
		<path class="st3" d="M74.4,60.4L74.4,60.4c0-0.1,0-0.2,0-0.3L74.4,60.4z"/>
		<path class="st3" d="M82.9,63c0-0.1,0-0.3,0-0.4C82.8,62.9,82.5,63,82.9,63"/>
		<path class="st3" d="M94.1,69.1L94.1,69.1C94,69.2,94,69.2,94.1,69.1"/>
		<path class="st3" d="M82.9,62.6L82.9,62.6L82.9,62.6z"/>
		<path class="st3" d="M88,60.3c0.1,0,0.1,0.1,0.1,0.2c0,0-0.1,0-0.2,0l0,0C87.9,60.5,87.9,60.4,88,60.3 M88,63.8
			c-0.1,0-0.1-0.1-0.2-0.1c0-0.2,0.1-0.3,0.2-0.3C87.9,63.5,88,63.6,88,63.8 M87.5,63.6L87.5,63.6c-0.1,0-0.1,0-0.1,0
			C87.4,63.6,87.4,63.6,87.5,63.6 M80.7,63.4c0.3,0,0.2-0.6,0.3-0.9c0.4-0.1,0.1,0.5,0.2,0.8c0.2-0.1,0.5-0.7,0.6-0.6
			c0,0.1,0,0.1,0,0.3c0.3-0.5,0.7,0.1,1-0.5c0,0.1,0,0.1,0,0.2c0-0.3,0.1-0.6,0.1-0.8c0.1,0,0.3-0.3,0.3,0.1c-0.1,0-0.1,0.1-0.2,0.2
			l0.2-0.1c0,0.6-0.2,0.2-0.3,0.6c0.3-0.1,0.7-0.5,0.9-0.3c-0.1,0.6-0.5,0.1-0.3,0.6l-0.1-0.1c-0.1-0.1-0.1-0.1-0.1-0.1
			c0.1,0.9-0.2-0.1-0.1,0.9c0.4,0.2,0.5-0.2,0.9,0.1c0.2-0.3,0.1-0.5,0.2-0.7c0.7-0.4,0.1,1.5,0.7,0.9c0.2-0.3,0.4-1,0.6-0.6
			l-0.3,0.6c0.3,0.2,0.5-0.8,0.7-0.3c-0.1,0.2-0.4,0.1-0.3,0.2c0.1,0.6,0.3-0.3,0.5-0.2L86,63.8c0.2,0,0.4,0,0.7-0.1
			c0.3,0,0.5-0.1,0.7,0c-0.1,0.1-0.2,0.3-0.2,0.5c0.3,0,0.6,0.1,0.8,0.3c0.2,0.2,0.4,0.5,0.6,0.8l0.4-0.3c0,0,0,0.2-0.1,0.3
			c0.1,0.3,0.2-0.3,0.3-0.4c0.1,0,0,0.3-0.1,0.4c0.3-0.1,0.6-0.1,0.9-0.1c0.3,0.1,0.5,0.2,0.5,0.5l-0.1,0.1c0.1,0.3,0.9-0.6,0.8-0.1
			l-0.1,0c0.2,0.3,0.5,0.5,0.8,0.7c0.2,0.2,0.4,0.5,0.4,0.9c0.5-0.5,0.3,0.7,1,0c-0.1,0.6-0.3,0.6-0.1,1.3c0.1,0.1,0.6-0.3,0.8-0.2
			l-0.4,0.3l0.6-0.2l-0.4,0.5l0.2,0c0-0.1,0.1-0.3,0.2-0.3c0.3,0.1,0.1,0.7-0.1,0.9c0,0,0.2,0.1,0.4,0.1c0.2,0.1,0.4,0.1,0.4,0.1
			C94.7,70,94.6,70,94.4,70c0.6,0-0.4,0.4,0.2,0.3c0.1-0.1,0.3-0.2,0.3-0.2c-0.2,0.3,0,0.6,0.3,0.7L94.9,71c0.2,0.4,0.7,0.7,0.9,1.2
			c0-0.2,0.6-0.5,0.7-0.4l-0.4,0.3c0.3-0.1,0.1-0.2,0.5-0.3c0,0.2-0.5,0.4-0.7,0.4l0.3,0.1c-0.1,0.1-0.2,0.1-0.4,0.2
			c0.3-0.1-0.3,0.6,0.3,0.5L96,73c0.2,0.5,0.5,0.6,0.7,1c0.4-0.2,0.4,0,0.8,0c0,0.2,0,0.4-0.1,0.6c0,0.2,0,0.4,0.1,0.6
			c0.3,0.2,0.4-0.1,0.7-0.1c-0.4,0.2-0.2,0.5-0.5,0.5c0.2,0.4,0.3,0.5,0.8,0.9c0.1-0.1,0.2-0.2,0.3-0.2c0.1,0.1-0.1,0.3-0.3,0.4l0,0
			c0.4,0.2,0.3,0.7,0.1,1.1c-0.1,0.4-0.3,0.8,0.2,1l-0.1,0c0,0,0.2,0.1,0.3,0.2c0.2,0.1,0.3,0.2,0.3,0.2c0,0.3-0.3,0-0.5,0.2
			c0.8,0.4,0.2,0.9,0.8,1.3c-0.5,0.4-0.4,0.7-0.3,1c0.2,0.3,0.4,0.7,0.1,1l0.3-0.1c0.3,0.1-0.1,0.2-0.2,0.3c0.2-0.1,0.2-0.2,0.4-0.2
			c0.3,0.5,0.4,1.1,0.3,1.7c0,0.6-0.2,1.3-0.1,1.9c0,0.4,1.5-0.1,1,0.6l-0.6,0c0.8,0.7,0.4,1.8,1.1,2.5c-0.1,0-0.3,0-0.3-0.1
			c-0.3,0.3,0.1,0.7,0.5,0.6c0,0.1-0.3,0.1-0.4,0.2c-0.2,0.2,0.6,0.3,0.2,0.5c-0.1,0-0.1,0-0.2,0c0.2,0.1,0.1,0.6,0.5,0.3
			c-0.1,0.4,0.4,0.6,0.2,0.9c0.5,0-0.1,0.6,0.6,0.5c-0.7,0.2-0.4,0.7,0,0.8c-0.2,0-0.2,0.2-0.5,0.2c0.1,0.2,0.3,0.4,0.6,0.3
			c-0.7,0.7,0.9,0.6-0.1,1.2c0.6,0.6,1.1,1.1,1.4,1.7c-0.7,0.2-0.3-0.7-1-0.4c0.5,0.5,1.2,0.6,1.2,1.2c0,0.2-0.3,0-0.5,0
			c0.2,0.2,0.3,0.5,0.5,0.8c0.1,0.3,0.2,0.5,0.5,0.7c-0.1,0-0.2,0-0.2,0c0.1,0.1,0,0.3,0.3,0.1l-0.1-0.1c0.4-0.4,1.1,0,1.3-0.1
			c-1,0.2,0,0.6-1.2,0.8c0.1,0,0.3,0.1,0.5-0.1c0,0.1-0.1,0.2-0.4,0.2c0.3,0.3,0.6,0,0.7,0.3c-0.1,0.1-0.2,0-0.4,0.1
			c0.4,0,0.7,0,0.7,0.4c-0.1,0-0.2,0.1-0.2,0c0.3,0.4,1.1,0.4,1.1,1c-0.7,0.2-0.1,0.3-0.6,0.6l0.3,0.2l0.2-0.3
			c0.1,0.2,0.6,0.2,0.6,0.5l-0.3,0l0.4,0.4l0.1-0.4c0.4,0.1,0.7-0.4,0.7,0c-0.1,0,0.1,0.2-0.1,0.5l0,0c0.2,0,0.5,0,0.4,0.2
			c-0.1,0.1-0.6,0.3-0.7,0.4c0.5-0.2,0.5,0.4,1,0.3c-0.1,0-0.4,0.2-0.4,0.3l0.4-0.1c0,0.2-0.1,0.2-0.3,0.4c0.1,0.3,0.6-0.5,0.5,0
			c0,0-0.1,0-0.2,0c0.1,0.5,0.7,0.5,0.8,1c-0.4,0.5-0.3-0.2-0.7,0.2c0.4,0.4,1.3,0.5,1.5,1l0-0.1c0.7-0.5-0.1,0.6,0.4,0.5
			c-0.1,0-0.4,0.2-0.3,0.2c0.1,0.4,0.7,0.5,1.3,0.7l-0.2,0.1c0,0.3,0.3,0.5,0.4,0.8c0.2-0.1,0.3,0,0.5-0.3c-0.2,0.7,0.2,0.8,0.6,0.9
			c0.2,0.1,0.4,0.1,0.5,0.2c0.1,0.1,0.2,0.3,0.1,0.6c-0.1-0.1-0.3,0-0.2,0.1l0.6,0.2c0.2-0.3,0.1-0.2,0.2-0.5
			c0.2-0.1,0.4-0.1,0.5-0.1c-0.3,0-0.4,0.5-0.5,0.7c0.1-0.1,0.2-0.2,0.2-0.3c-0.2,0.7,0.5-0.5,0.5,0.1l-0.1,0.1c0.2,0,0.5-0.1,0.5,0
			c-0.2,0.4-0.3,0.1-0.5,0.3c0.2,0.1,0.9-0.4,0.7,0.1c-0.1,0-0.3-0.1-0.4,0c-0.2,0.5-0.1,0.5,0,0.6l0,0c0,0,0,0.1,0.1,0.2
			c0,0.1,0.1,0.2,0.1,0.2l0-0.2c0.9-0.7,0.6,0.2,1.3-0.2c-0.7,0.3-0.3,0.3-0.6,0.7c0,0.2,0,0.4-0.1,0.5c0.4-0.2,0.1,0.4,0.6,0.1
			c-0.1,0.1,0.2,0.1-0.1,0.4c0.3,0,0.1-0.3,0.2-0.4c0.3-0.1,0.4,0.1,0.5,0.4c0.1,0.3,0.3,0.5,0.7,0.3c0.5,0,0.9-0.4,1.4-0.4
			c0,0.3-0.4,0.4-0.4,0.4c0.1,0.3,0.2,0.4,0.5,0.3c-0.1,0.1-0.1,0.2-0.2,0.4c0.2,0,0.4-0.4,0.5-0.1c-0.1,0.1-0.3,0.4-0.5,0.5
			c0.3,0,0.6-0.2,0.8-0.2c-0.1,0.3-0.3,0.3-0.5,0.4c0.3,0,0.7,0.1,0.9-0.3l-0.1-0.2c0.1,0-0.1,0.4-0.2,0.4c-0.3,0.2-0.2-0.3-0.1-0.4
			l0.2,0c0.3-0.9-0.6-0.2-0.8-0.4l0.4-0.5l-0.5,0.3c0-0.2,0.2-0.5,0.4-0.5c0-0.4-0.3,0.1-0.2-0.3c0-0.1,0-0.1,0.1-0.1l-0.3,0.1
			c0.1-0.1,0.2-0.4,0.3-0.3c-0.1-0.5-0.8,0.1-0.6-0.4l0,0c-0.5-0.1-0.3,0.4-1,0.7l0.5-1.2l-0.3,0.4c0,0-0.1-0.1,0-0.3
			c-0.4,0.2-0.1,0.2-0.4,0.4c0.1-0.5-0.7-0.2-0.3-0.9c-0.3,0.3,0,0.4-0.3,0.4c0.4-0.7-0.3-0.1-0.3-0.5c0.3-0.3,0.3,0,0.4-0.4
			c-0.6,0.5-0.3-0.4-0.5-0.4c-0.4,0.5-0.5-0.1-0.9-0.1c0.1-0.1-0.3-0.6-0.3-1l0.1-0.1c-0.4,0.4-0.6,0.1-0.8,0.1
			c0.2-0.3,0.4-0.3,0.6-0.4l-0.2-0.1c-0.2,0.1-0.3,0.1-0.4,0.1l0.3-0.3c-0.2-0.2-0.8,0-0.8-0.5c-0.3,0.3-0.6,1.1-1.1,1
			c0.1-0.2,0.4-0.5,0.5-0.5c0,0-0.2,0.1-0.2-0.1l0.4-0.2c0-0.2-0.3,0.2-0.4,0.1c0.2-0.2,0.1-0.2,0.3-0.4c0,0,0,0.2,0.1,0.1
			c-0.1-0.1-0.1-0.4,0.1-0.6c-0.1,0.1-0.3,0.3-0.4,0.3c-0.2-0.2,0.2-0.3,0.2-0.6c-0.2,0.1-0.2-0.2-0.5,0.2c-0.1-0.1,0.1-0.2,0.2-0.3
			c-0.3,0-0.5-0.4-0.8,0l0,0l0,0l0,0l0,0c-0.3,0-0.5-0.2-0.5-0.5c-0.1-0.3-0.1-0.5-0.4-0.6l0.1-0.1c-0.3-0.1-0.5-0.4-0.9-0.3
			c0-0.1,0.1-0.3,0.3-0.4c-0.2-0.1-0.4,0-0.4-0.4c0.4,0,0.2-0.2,0.3,0c-0.1-0.3,0.1-0.5-0.4-0.5c0.4-0.2,0.3-0.5,0.1-0.5l-0.1,0.3
			c-0.1-0.1-0.2-0.2-0.2-0.3l0.5-0.3c0.1-0.4-0.3-0.5-0.6-0.5c-0.3-0.1-0.6-0.2-0.2-0.6c-0.4,0.1-0.1,0.4-0.5,0.5
			c-0.1-0.3,0.4-0.9,0.4-1c0.1-0.5-0.8,0.2-0.9-0.3c-0.1,0.1-0.6,0.5-0.9,0.3c-0.1-0.3,0.5-0.7,0.8-0.6c0,0,0,0.1,0,0.1
			c0.1,0,0.2,0.1,0.4-0.1l-0.2,0.1c0.1-0.2-0.1-0.5,0.2-0.6c-0.3-0.1-0.3,0.1-0.3,0.3c0.1-0.4-0.3-0.4-0.2-0.8
			c-0.1,0.1-0.2,0.3-0.3,0.2c0-0.6-0.4,0-0.7-0.3c0.2-0.3,0.7-0.3,0.3-0.5c0.1-0.3,0.4-0.3,0.6-0.3c-0.5-0.1,0-0.6,0-0.8l0.2,0.1
			c-0.1,0-0.2-0.1-0.2-0.2l-0.3,0.3c0-0.1,0-0.2,0.1-0.3c-0.3,0-0.6,0.3-0.9,0.3c0.1-0.2-0.4-0.3,0.1-0.5c0,0.4,0.4-0.3,0.7,0
			c-0.1,0-0.1-0.1-0.1-0.2c0,0,0.1,0,0.1,0c0.3-0.5-0.6,0.1-0.7-0.3c0.3-0.1,0.5-0.3,0.4-0.3c0.1,0.1-0.4,0.3-0.7,0.2
			c0.1-0.3-0.3-0.2-0.3-0.3l0,0.2c-0.3,0.1-0.3-0.1-0.5-0.2c0.2-0.1,0.2,0.1,0.3,0c-0.6,0,0.3-0.6-0.1-0.7c0.1-0.2,0.5-0.2,0.6-0.4
			c-0.5-0.1,0.3-0.5-0.1-0.6c-0.3,0.2-0.2,0.2-0.7,0.1l0.4,0.4l-0.6-0.1c0.1,0.2,0.3,0.2,0.3,0.4c-0.4,0-0.3-0.1-0.5,0.1
			c0.5-0.4-0.5-0.3-0.2-0.7l0.9-0.3c0.3-0.5-0.7-0.5-0.6-1l-0.1,0.2c-0.4,0.1-0.2-0.3-0.4-0.4c0.3-0.1,0.4-0.2,0.6-0.3
			c-0.2,0.1-0.1-0.4-0.7-0.2l0.3-0.3c0.1-0.4-1-0.2-1-0.6c0.4,0,0.5-0.2,0.9,0c0-0.1,0-0.3-0.2-0.2c0.2-0.1-0.5-0.2-0.3-0.4
			c-0.2,0-0.5,0.1-0.5-0.1c0.1,0,0.2,0,0.2,0c-0.2,0-0.3-0.2-0.6,0.1c0.9-0.7-0.4-1.1,0.4-1.7c-0.2-0.3-0.4-0.6-0.5-0.8
			c0.1,0,0.2,0,0.1,0c0.2-0.4-1,0-0.7-0.5c0.5-0.3,0.3,0.1,0.5,0c1-0.3-0.3-0.5,0.3-0.9l0.1,0.1c0.3-0.3-0.5-0.4-0.5-0.8
			c0,0,0.1,0,0.2,0c-0.6-0.1-0.9-0.5-1.1-0.8c0.4,0,0.3,0.1,0.6-0.1c-0.1-0.1-0.7,0.2-0.8-0.1c0.2-0.1,0.3-0.4,0.8-0.5l0.1,0.3
			c0.5-0.3-0.1-0.4,0-0.5l0.3,0c-0.2-0.4-0.8-0.3-0.9-0.7l-0.2,0.1c-0.7-0.1,0.3-0.3-0.2-0.4l0.6-0.2c-0.2-0.1-0.7-0.4-0.9-0.7
			c0.5,0.1,0.8,0.3,1.2,0.5c0-0.2-0.2-0.6-0.5-0.6c0.1,0.1,0.2,0.1,0.2,0.2c-0.5-0.1-0.8-0.3-0.9-0.6c1.2-0.2,0.1-0.9,1-1.4
			c-0.6-0.5-0.1-1.2-0.4-1.9c-0.9,0.5-0.1-0.2-1,0.1c-0.1-0.1-0.1-0.2-0.1-0.2l0.4-0.6c0.2-0.2,0.3,0.1,0.5,0c0-0.4,0.4-0.3,0.5-0.6
			c-0.3,0.2-0.5,0-0.5-0.2l-0.4,0.4c-0.7-0.3,0.7-0.7,0-1l0.3,0.1c-0.2-0.2-0.3-0.9-1.1-0.9c0.1-0.1,0.3-0.2,0.4-0.1
			c0-0.3-0.4-0.6-0.6-0.8c-0.3-0.3-0.5-0.5-0.4-0.8l0.2,0c-0.1-0.1-0.5,0-0.3-0.3c0.1,0,0.2,0,0.2-0.1c-0.1,0-0.5-0.1-0.4-0.3l0.3,0
			c0.1-0.7-1-0.6-1.4-1c0.7-0.3,0.7-0.8,0.6-1.1l0.1,0c-0.2-0.7-1.1-0.9-1.7-1.3c0.2-0.4,0.1-0.7,0-1.1c-0.2-0.4-0.4-0.7-0.4-1.1
			c-0.1,0.2-0.5,0.3-0.6,0.2c0-0.2-0.7-0.1-0.1-0.4l0,0.1c0.5-0.5,0.1-0.7,0-0.9l-0.7,0.5c0.3-0.7-0.1-0.9-0.4-1.2
			c-0.4-0.2-0.7-0.4-0.4-0.9c-0.3,0-0.4-0.1-0.7-0.1l0.3-0.3c-0.2-0.4-0.4-0.6-0.9-1l0.3-0.2c-0.2-0.3-1.2,0.7-1.4,0.5l0.4-0.6
			c-0.2-0.2-0.3-0.5-0.5-0.7c-0.2-0.2-0.4-0.4-0.8-0.3c0.1-0.1,0.2-0.2,0.3-0.2c-0.1-0.1-0.2-0.3-0.4-0.5c-0.2-0.1-0.4-0.1-0.6,0.3
			c0.3-0.5-0.5-0.4-0.8-0.3l0.3-0.4c-0.5,0.4-0.6,0.5-1,0.5c0-0.1,0.1-0.4,0.2-0.2c-0.1-0.3-0.4,0.3-0.6-0.1l0.2-0.2
			c-0.2-0.2-0.3,0-0.6,0.2c-0.2,0.1-0.4-0.3-0.3-0.7c-0.1,0.2-0.4,0.4-0.5,0.3c0-0.2,0.1-0.2,0.2-0.2c-0.3-0.5-0.8,0.2-1-0.3
			c0.1-0.1,0.1-0.2,0.1-0.3c0.3,0.2,0.6,0.3,0.6,0.3c0.2-0.4-0.1-0.6,0.4-1c-0.4,0.2-1,0.7-1.2,0.4c0,0,0-0.1,0-0.2l0,0
			c0-0.1-0.1,0-0.2,0c-0.1-0.1-0.1-0.2-0.2-0.2c0.1-0.3-0.3-0.3-0.4-0.4c-0.1,0.4-0.3,0.3-0.2,0.7c0,0,0,0,0.1,0c0,0,0.1,0,0.1,0
			l0,0c0.1,0,0.2,0.1,0.4,0.1c-0.2,0.2-0.4,0.3-0.4,0c-0.2,0.3-0.3,0.5-0.4,0.6c0-0.7-0.3-1.1-0.2-1.5c-0.3,0.1-0.5,0-0.8,0.1
			c-0.3,0.1-0.5,0.2-0.8,0.6c-0.2,0.1-0.1-0.3-0.1-0.4c0.1-0.1,0.2,0,0.2-0.1c-0.3,0.1-0.8-0.1-1,0.5c-0.3-0.3,0.3-0.5-0.2-0.5
			l0.1-0.2c-0.3-0.6-0.8-0.3-1.2,0c-0.4,0.3-0.8,0.5-1.2-0.1c0.1,0.1,0.1,0.1,0.1,0.2c-0.2-0.2-0.5-0.2-0.8-0.3c-0.3,0-0.6,0-0.8,0
			c-0.6,0-1.1,0-1.6-0.4c-0.3-0.2-0.3,0.2-0.5,0.5l0-0.5L78,59.9c-0.5,0.4-0.7-1.2-1.3-0.5l0.1,0.3c-0.2-0.1-0.6,0.2-0.6-0.2
			c0,0.1-0.1,0.3-0.1,0.2l0-0.3l-0.5,0.4c-0.4-0.2,0.1-1-0.5-1.1c-0.2,0.1-0.6,0.8-0.5,0.9c0.1,0,0.2,0.2,0.2,0.4l-0.2,0.1
			c0,0.8-0.2,1.6,0.3,2.1l0.3-0.5l0.1,0.4l-0.3,0c0.2,0.3,0.2,0,0.4-0.2c0,0.2,0.1,0.3,0.1,0.4l0.3-0.7c0,0.3-0.1,0.6,0.1,0.8
			c0.1-0.3-0.1-0.7,0.1-0.9c0.1,0.3,0.1,0.6,0.3,0.3c0,0.2,0,0.3-0.1,0.4c0.2-0.2,0.4-0.1,0.5-0.5c0.1,0.4,0.5-0.1,0.5,0.6
			c0.1-0.2,0.3-0.6,0.4-0.6c-0.3,0.9,0.5,0.1,0.4,1c0.2-0.8,0.7-0.3,1.1-0.7c0,0.1-0.1,0.2-0.1,0.1c0.2,0.1,0.2,0.3,0.3,0.5
			c0.1-0.6,0.4-0.8,0.6-1.1c0.2,0.6-0.2,0.7-0.2,1.3c0-0.5,0.5-0.5,0.4-0.9c0.1,0.4,0.1,0.2,0.2,0.7c0.1-0.8,0.2-0.1,0.4-0.6
			c0.2,0.4,0,0.8,0.3,0.5C81,63.1,80.7,63.4,80.7,63.4"/>
		<path class="st3" d="M87.6,60.8L87.6,60.8c0,0.1,0,0.1,0,0.1C87.6,60.9,87.6,60.9,87.6,60.8L87.6,60.8z"/>
		<polygon class="st3" points="93.5,68.8 93.6,68.8 93.5,68.8 		"/>
		<path class="st3" d="M97.7,67.4l0.2,0L97.7,67.4c0-0.1,0-0.1,0-0.1L97.7,67.4C97.7,67.4,97.7,67.4,97.7,67.4"/>
		<path class="st3" d="M70,72.9C70.1,72.9,70.1,72.9,70,72.9C70.1,72.9,70,72.9,70,72.9"/>
		<path class="st3" d="M69,69.9L69,69.9c0.1-0.1,0.1-0.2,0.1-0.3L69,69.9z"/>
		<path class="st3" d="M91.1,94.6c-0.1,0.5-0.6,0.2-0.6,0.8C90.6,95.2,91.1,95,91.1,94.6"/>
		<path class="st3" d="M73.6,76.2c0.1-0.1,0.2-0.2,0.3-0.3C73.7,76.1,73.4,76,73.6,76.2"/>
		<path class="st3" d="M79.8,87.9L79.8,87.9C79.7,87.9,79.8,87.9,79.8,87.9"/>
		<path class="st3" d="M73.9,75.9L73.9,75.9L73.9,75.9z"/>
		<path class="st3" d="M79,77.6c0.1,0.1,0,0.1,0,0.2c0,0-0.1-0.1-0.1-0.1l-0.1,0C78.8,77.6,78.9,77.6,79,77.6 M76.6,80.1
			c0-0.1,0-0.1-0.1-0.2c0.1-0.1,0.3-0.1,0.3-0.1C76.8,79.8,76.7,79.9,76.6,80.1 M76.4,79.6L76.4,79.6c0,0-0.1-0.1-0.1-0.1
			C76.3,79.5,76.4,79.5,76.4,79.6 M72,75.2c0.1,0.2,0.5-0.3,0.8-0.5c0.3,0.1-0.2,0.4-0.4,0.7c0.2,0,0.8-0.2,0.8-0.1
			c-0.1,0.1-0.1,0.1-0.2,0.2c0.5-0.1,0.4,0.5,1,0.3c0,0-0.1,0.1-0.1,0.1c0.2-0.2,0.5-0.4,0.7-0.5c0.1,0.1,0.4,0,0.1,0.2
			c0-0.1-0.2,0-0.3,0.1l0.2,0c-0.4,0.4-0.3,0-0.6,0.2c0.3,0.1,0.8,0.1,0.8,0.3c-0.4,0.3-0.4-0.3-0.7,0.2l0-0.4
			c-0.6,0.7,0-0.2-0.7,0.5c0.1,0.4,0.5,0.2,0.5,0.6c0.3-0.1,0.4-0.3,0.7-0.4c0.8,0.2-1,1.1-0.1,1c0.4-0.1,1-0.4,0.8,0l-0.6,0.2
			c0.1,0.3,0.9-0.3,0.7,0.3c-0.2,0.1-0.3-0.2-0.4-0.1c-0.3,0.5,0.4,0,0.5,0.2l-0.5,0.3c0.3,0.3,0.8,0.5,1.1,0.9
			c-0.2,0.1-0.3,0.1-0.5,0.2c0.5,0.4,0.5,1.1,0.4,1.8l0.5,0c0,0-0.2,0.2-0.3,0.2c-0.1,0.3,0.3-0.1,0.5-0.1c0.1,0.1-0.2,0.3-0.3,0.3
			c0.5,0.2,1.3,0.6,1,1.2l-0.2,0c0,0.4,1-0.1,0.8,0.4l-0.1,0c0.1,0.4,0.3,0.7,0.4,1c0.1,0.3,0.2,0.6,0,1.1c0.7-0.2,0,0.8,0.9,0.4
			c-0.2,0.6-0.4,0.6-0.4,1.2c0,0.2,0.6-0.1,0.8,0l-0.4,0.3l0.6,0l-0.4,0.4l0.2,0.1c0-0.1,0.1-0.2,0.2-0.3c0.3,0.1,0.1,0.8-0.2,0.9
			l0.4,0.2c0.2,0.1,0.4,0.2,0.4,0.2c-0.2,0.1-0.3,0-0.5,0c0.6,0-0.4,0.4,0.2,0.4c0.1-0.1,0.3-0.1,0.4-0.2c-0.2,0.3,0.1,0.6,0.3,0.8
			L80.6,90c0.1,0.1,0.1,0.2,0.2,0.3c0.1,0.1,0.2,0.2,0.3,0.3c0.2,0.2,0.4,0.4,0.6,0.6c0-0.3,0.5-0.6,0.6-0.5L82,91
			c0.3-0.1,0.1-0.3,0.5-0.3c0.1,0.2-0.4,0.5-0.6,0.5l0.3,0.1c-0.1,0.1-0.2,0.1-0.4,0.2c0.3-0.1-0.1,0.7,0.4,0.4l-0.1,0.1
			c0.4,0.4,0.7,0.5,1,0.8c0.3-0.3,0.4-0.1,0.8-0.3c0.1,0.3,0.1,0.9,0.4,1.1c0.4,0,0.3-0.2,0.6-0.3c-0.3,0.3,0,0.6-0.3,0.6
			c0.4,0.3,0.5,0.4,1.2,0.5c0.1-0.2,0.1-0.3,0.2-0.4c0.1,0,0.1,0.3-0.1,0.4l0,0c0.5,0,0.5,0.5,0.6,0.9c0.1,0.5,0.2,0.9,0.7,0.7
			l-0.1,0l0.7,0c0.1,0.2-0.3,0.1-0.3,0.5c0.9-0.2,0.6,0.7,1.3,0.6c-0.2,0.6,0,0.8,0.3,1c0.3,0.2,0.7,0.3,0.7,0.7l0.2-0.2
			c0.3-0.1,0,0.2,0.1,0.3c0.1-0.2,0.1-0.3,0.2-0.4c1.1,0.4,1.5,1.7,2.3,2.6c0.3,0.3,1.1-1.1,1.1-0.2l-0.4,0.4c1.1,0,1.4,1,2.4,1
			c-0.1,0.1-0.2,0.2-0.3,0.2c-0.1,0.4,0.5,0.4,0.7,0.1c0.1,0.1-0.1,0.3-0.2,0.4c0,0.3,0.6-0.2,0.5,0.2c0,0.1-0.1,0.1-0.2,0.1
			c0.2-0.1,0.4,0.3,0.6-0.1c0.1,0.4,0.6,0.2,0.6,0.5c0.4-0.3,0.3,0.5,0.7-0.1c-0.4,0.6,0.1,0.8,0.5,0.6c-0.2,0.2,0,0.3-0.2,0.5
			c0.2,0.1,0.4,0.1,0.6-0.2c-0.1,1,1.1-0.2,0.6,0.9c0.8,0,1.4,0.1,2,0.3c-0.4,0.6-0.6-0.3-1,0.4c0.6,0.1,1.2-0.3,1.6,0.1
			c0.1,0.2-0.2,0.2-0.3,0.3c0.6,0,0.9,0.6,1.5,0.5c0,0.1-0.1,0.1-0.2,0.1c0.1,0,0.1,0.2,0.3-0.1l-0.1,0c0.1-0.5,0.9-0.7,1-0.9
			c-0.6,0.7,0.3,0.5-0.5,1.4c0.1,0,0.2-0.1,0.3-0.3c0,0.1,0,0.2-0.2,0.4c0.4,0,0.5-0.4,0.7-0.2c-0.1,0.1-0.2,0.2-0.3,0.3
			c0.3-0.2,0.6-0.4,0.8-0.1c-0.1,0.1-0.1,0.2-0.2,0.2c0.4,0.2,1.1-0.3,1.4,0.2c-0.5,0.5,0,0.3-0.2,0.8l0.3,0l0-0.3
			c0.2,0.1,0.6-0.2,0.7,0.1l-0.3,0.1l0.4,0.1l-0.1-0.3c0.4-0.2,0.4-0.7,0.5-0.4c-0.1,0,0.2,0.1,0.1,0.5l0,0c0.2-0.1,0.4-0.2,0.5,0
			c-0.1,0.2-0.4,0.6-0.4,0.7c0.3-0.4,0.6,0.1,0.9-0.3c-0.1,0.1-0.3,0.4-0.3,0.4l0.3-0.3c0,0.2,0,0.2-0.1,0.5
			c0.3,0.2,0.3-0.7,0.5-0.3c0,0-0.1,0.1-0.1,0.1c0.3,0.3,0.8,0.1,1,0.5c-0.2,0.6-0.3,0-0.5,0.5c0.5,0.1,1.3-0.2,1.7,0.2l-0.1-0.1
			c0.5-0.7,0.1,0.5,0.6,0.3c-0.1,0-0.3,0.4-0.2,0.3c0.2,0.3,0.7,0.1,1.3,0.1l-0.2,0.2c0.1,0.3,0.4,0.3,0.6,0.5
			c0.2-0.2,0.3-0.1,0.3-0.4c0,0.7,0.4,0.7,0.8,0.7c0.4,0,0.7-0.1,0.8,0.5c-0.1,0-0.2,0.1-0.2,0.1l0.6,0c0.1-0.4,0-0.2,0.1-0.5
			c0.2-0.2,0.4-0.3,0.5-0.2c-0.3,0.1-0.3,0.6-0.2,0.8c0-0.1,0.1-0.2,0.2-0.3c0,0.7,0.4-0.7,0.5-0.1l-0.1,0.2c0.2,0,0.4-0.2,0.5-0.1
			c-0.1,0.4-0.2,0.1-0.4,0.5c0.2,0.1,0.7-0.6,0.7-0.1c-0.1,0.1-0.2,0-0.4,0.1c0,0.6,0.1,0.4,0.2,0.6l0,0l0.2,0.4l0-0.2
			c0.7-0.9,0.6,0,1.2-0.5c-0.6,0.5-0.2,0.4-0.4,0.8c0,0.2,0.1,0.4,0,0.5c0.3-0.3,0.1,0.4,0.6,0c-0.1,0.2,0.2,0.1,0,0.4
			c0.2,0,0.1-0.3,0.2-0.5c0.5-0.4,0.5,0.9,1.2,0.4c0.5-0.1,0.8-0.6,1.2-0.7c0,0.3-0.3,0.5-0.3,0.5c0.1,0.3,0.3,0.3,0.5,0.2
			c-0.1,0.1-0.1,0.2-0.1,0.4c0.2,0,0.3-0.5,0.4-0.2c-0.1,0.2-0.2,0.4-0.4,0.5c0.2-0.1,0.5-0.3,0.7-0.3c-0.1,0.3-0.3,0.4-0.4,0.5
			c0.2,0,0.6,0,0.8-0.4l-0.1-0.2c0.1,0-0.1,0.4-0.2,0.4c-0.3,0.3-0.2-0.2-0.1-0.4l0.2,0c0.2-0.9-0.6-0.1-0.8-0.2l0.4-0.6l-0.5,0.4
			c0-0.2,0.1-0.6,0.3-0.6c-0.1-0.4-0.3,0.2-0.3-0.3c0-0.1,0-0.1,0.1-0.1l-0.3,0.1c0.1-0.1,0.2-0.5,0.2-0.3c-0.2-0.5-0.7,0.3-0.6-0.3
			l0,0c-0.5,0-0.2,0.4-0.8,0.9l0.3-1.2l-0.2,0.4c0,0-0.1-0.1,0-0.3c-0.3,0.2-0.1,0.2-0.3,0.5c0-0.5-0.7,0-0.4-0.8
			c-0.2,0.3,0.1,0.4-0.2,0.5c0.3-0.8-0.3,0-0.4-0.4c0.2-0.4,0.3-0.1,0.3-0.5c-0.4,0.6-0.3-0.3-0.5-0.3c-0.2,0.5-0.5,0.1-0.8,0.1
			c0.1-0.2-0.4-0.5-0.6-0.8l0-0.1c-0.3,0.5-0.5,0.3-0.8,0.3c0.2-0.3,0.2-0.4,0.4-0.5l-0.2-0.1c-0.1,0.2-0.2,0.2-0.4,0.2l0.2-0.4
			c-0.2-0.1-0.7,0.3-0.9-0.1c-0.2,0.4-0.2,1.2-0.7,1.3c0.1-0.2,0.2-0.6,0.4-0.6c0,0-0.2,0.1-0.2,0l0.3-0.3c-0.1-0.2-0.2,0.3-0.3,0.2
			c0.1-0.3,0-0.2,0.1-0.5c0,0,0,0.2,0.1,0.1c-0.1-0.1-0.2-0.4-0.1-0.6c-0.1,0.2-0.2,0.4-0.3,0.4c-0.2-0.1,0.1-0.4,0-0.6
			c-0.2,0.2-0.2-0.1-0.4,0.3c-0.1,0,0-0.2,0-0.4c-0.2,0.1-0.6-0.2-0.7,0.3l0,0l0,0l0,0l0,0c-0.6,0.2-0.7-0.7-1.2-0.7l0.1-0.1
			c-0.3,0-0.6-0.2-0.9,0.1c-0.1,0,0-0.3,0.1-0.5c-0.2,0-0.3,0.2-0.5-0.2c0.3-0.2,0.1-0.3,0.3-0.1c-0.2-0.2-0.1-0.5-0.6-0.2
			c0.3-0.3,0.1-0.6-0.1-0.5l0,0.4c-0.2,0-0.2-0.1-0.3-0.2l0.3-0.5c-0.2-0.8-1.4,0.5-1.2-0.6c-0.3,0.3,0.1,0.4-0.2,0.7
			c-0.2-0.2,0-1-0.1-1c-0.2-0.4-0.7,0.5-0.9,0.2c-0.1,0.2-0.3,0.7-0.6,0.7c-0.2-0.2,0.1-0.9,0.3-0.9c0.1,0,0.1,0.1,0,0.1
			c0.1,0,0.2,0,0.3-0.3l-0.1,0.2c0-0.2-0.3-0.4-0.1-0.6c-0.3,0.1-0.2,0.2-0.2,0.4c-0.1-0.4-0.4-0.2-0.6-0.6c0,0.1-0.1,0.3-0.1,0.3
			c-0.3-0.4-0.4,0.2-0.7,0.1c0-0.3,0.4-0.6,0-0.5c-0.1-0.3,0.2-0.5,0.4-0.6c-0.4,0.2-0.4-0.5-0.5-0.6l0.2-0.1c-0.1,0-0.2,0-0.3,0
			l-0.1,0.4c0-0.1-0.1-0.1,0-0.3c-0.2,0.2-0.3,0.6-0.6,0.8c0-0.2-0.4,0-0.2-0.5c0.2,0.3,0.2-0.5,0.5-0.4c-0.1,0-0.2,0-0.2-0.1
			c0-0.1,0.1-0.1,0.1-0.1c-0.1-0.6-0.4,0.4-0.8,0.2c0.2-0.2,0.2-0.5,0.1-0.5c0.1,0.1-0.2,0.5-0.4,0.6c-0.1-0.3-0.3,0-0.4-0.1
			l0.1,0.2c-0.2,0.2-0.3,0.1-0.5,0.1c0.1-0.2,0.2-0.1,0.2-0.2c-0.4,0.3-0.1-0.7-0.5-0.5c0-0.2,0.3-0.5,0.3-0.6
			c-0.5,0.2-0.1-0.5-0.5-0.4c-0.1,0.4-0.1,0.3-0.5,0.5l0.6,0l-0.6,0.3c0.1,0.1,0.4,0,0.5,0.1c-0.3,0.2-0.2,0.1-0.3,0.4
			c0.1-0.6-0.5,0.1-0.5-0.4l0.5-0.8c-0.1-0.6-0.8,0.1-1.1-0.4l0,0.2c-0.3,0.3-0.3-0.1-0.5-0.1c0.2-0.3,0.2-0.4,0.2-0.6
			c-0.1,0.2-0.3-0.2-0.7,0.3l0.1-0.5c-0.2-0.4-0.9,0.5-1.1,0.2c0.3-0.2,0.3-0.5,0.6-0.6c-0.1-0.1-0.2-0.2-0.3,0
			c0.1-0.2-0.5,0.2-0.5-0.1c-0.1,0.1-0.3,0.4-0.4,0.3c0-0.1,0.1-0.1,0.1-0.1c-0.1,0.1-0.3,0.1-0.4,0.4c0.2-1.1-0.9-0.5-0.7-1.4
			c-0.3-0.1-0.6-0.2-0.8-0.3c0.1-0.1,0.1-0.1,0.1-0.1c-0.1-0.4-0.7,0.6-0.8,0.1c0.1-0.5,0.3-0.1,0.3-0.3c0.6-0.9-0.5-0.2-0.3-0.8
			l0.1,0c0-0.4-0.6,0.1-0.8-0.2c0,0,0.1-0.1,0.1-0.1c-0.5,0.3-0.9,0.2-1.3,0.2c0.3-0.3,0.2-0.1,0.4-0.5c-0.1,0-0.4,0.6-0.7,0.5
			c0.1-0.2,0-0.5,0.3-0.9l0.2,0.1c0.2-0.6-0.3-0.2-0.3-0.3l0.2-0.2c-0.4-0.2-0.8,0.3-1.1,0l-0.1,0.2c-0.6,0.4,0.1-0.4-0.4-0.2
			l0.3-0.6c-0.2,0-0.8,0.2-1.1,0.1c0.4-0.3,0.8-0.3,1.2-0.4c-0.1-0.1-0.4-0.3-0.7-0.1c0.1,0,0.2-0.1,0.2,0c-0.5,0.3-0.8,0.3-1.1,0.1
			c0.8-1-0.4-0.7,0-1.7c-0.7,0-0.7-0.8-1.3-1.2c-0.4,0.9-0.2-0.1-0.8,0.7c-0.2,0-0.2-0.1-0.2-0.2l0-0.7c0.1-0.3,0.3-0.1,0.4-0.3
			c-0.2-0.3,0.2-0.4,0.2-0.8c-0.2,0.3-0.4,0.3-0.5,0.1l-0.1,0.5c-0.7,0.1,0.2-0.9-0.4-0.8l0.3-0.1c-0.3,0-0.6-0.5-1.3-0.1
			c0-0.1,0.2-0.4,0.3-0.3c-0.3-0.5-1.5-0.2-1.5-0.8l0.2-0.2c-0.1,0-0.4,0.2-0.4-0.1c0.1-0.1,0.2-0.2,0.2-0.2c-0.1,0-0.5,0.1-0.5-0.1
			l0.3-0.1c-0.1-0.3-0.3-0.3-0.6-0.3c-0.3,0-0.6,0.1-0.8,0c0.5-0.5,0.4-1,0.3-1.2l0.1-0.1c-0.3-0.5-1.1-0.4-1.7-0.6
			c0.2-0.4,0.1-0.7-0.1-0.9c-0.2-0.3-0.4-0.5-0.4-0.9c-0.1,0.1-0.5,0.3-0.6,0.3c0-0.2-0.6,0-0.1-0.4l0,0c0.5-0.5,0.2-0.6,0.1-0.7
			l-0.7,0.5c0.4-0.6,0.1-0.8-0.2-1c-0.3-0.2-0.6-0.4-0.2-0.8c-0.2,0-0.3-0.2-0.6-0.2l0.4-0.2c-0.1-0.4-0.1-0.6-0.4-0.9l0.3-0.1
			c-0.1-0.2-1.3,0.3-1.5,0.1l0.6-0.4c-0.2-0.4,0.1-1.1-0.6-1.2c0.1,0,0.3-0.1,0.3-0.1c-0.1-0.2,0.1-1-0.8-0.5
			c0.6-0.3-0.1-0.5-0.5-0.6l0.4-0.2c-0.6,0-0.8,0.1-1-0.1c0-0.1,0.3-0.2,0.2-0.1c0.1-0.3-0.5,0-0.4-0.4l0.3,0
			c-0.1-0.2-0.2-0.2-0.6-0.1c-0.2-0.1-0.1-0.5,0.3-0.7c-0.2,0.1-0.6,0.1-0.6-0.1c0.1-0.1,0.2-0.1,0.3-0.1c0.1-0.5-0.7-0.3-0.5-0.8
			c0.1-0.1,0.2-0.1,0.2-0.2c0.1,0.3,0.2,0.6,0.2,0.6c0.4-0.2,0.3-0.5,0.9-0.5c-0.4-0.1-1.2-0.1-1.1-0.4c0,0,0.1-0.1,0.1-0.1l0.1,0
			c0-0.1,0-0.1-0.1-0.1c0-0.1,0-0.2,0-0.3c0.3-0.2,0-0.4,0-0.5c-0.4,0.2-0.4,0-0.7,0.4c0,0,0.1,0,0.1,0.1c0,0,0,0,0.1,0l0,0
			c0.1,0.1,0.1,0.2,0.2,0.3c-0.3,0-0.5,0-0.3-0.2c-0.3,0.1-0.6,0.2-0.7,0.2c0.5-0.5,0.6-0.9,0.9-1.2c-0.4-0.2-0.6-0.8-1.5-0.6
			c-0.2,0,0.1-0.2,0.2-0.4c0.1,0,0.1,0.1,0.3,0.1c-0.3-0.1-0.5-0.6-1-0.3c0.1-0.4,0.6-0.2,0.3-0.5l0.2-0.1c0.2-0.6-0.3-0.7-0.8-0.8
			c-0.5-0.1-0.9-0.1-0.7-0.9c0,0.1,0,0.1-0.1,0.2c-0.1-0.6-0.6-0.9-1-1.2c-0.2-0.2-0.4-0.3-0.6-0.5c-0.2-0.2-0.3-0.4-0.4-0.8
			c-0.1-0.3-0.4,0-0.7,0.1l0.3-0.4l-0.3,0.1c-0.1,0.1-0.3,0.1-0.3,0.1c-0.3,0-0.3-0.3-0.3-0.6c0-0.3-0.1-0.6-0.6-0.4l-0.1,0.3
			c-0.1-0.2-0.6-0.1-0.4-0.5c0,0-0.2,0.3-0.2,0.1l0.1-0.2c0,0-0.2,0-0.3,0.1c-0.2,0-0.3,0.1-0.3,0.1c-0.1-0.2,0-0.4,0.1-0.6
			c0.1-0.2,0.2-0.4-0.1-0.6c-0.3,0-0.8,0.5-0.8,0.7c0.1,0,0.1,0.2,0.1,0.5l-0.2,0.1c-0.3,0.7-0.6,1.4-0.5,2l0.2-0.2l0.2-0.2
			l-0.1,0.4l-0.2-0.1c0,0.4,0.2,0.1,0.3-0.1c-0.1,0.2-0.1,0.3-0.1,0.4c0,0,0.1-0.1,0.3-0.3c0.1-0.1,0.3-0.3,0.3-0.3
			c-0.1,0.3-0.4,0.5-0.3,0.7c0.3-0.3,0.2-0.7,0.5-0.8c0,0.4-0.2,0.6,0.1,0.4c-0.1,0.2-0.2,0.3-0.3,0.3c0.2-0.1,0.3,0.1,0.6-0.2
			c-0.1,0.4,0.4,0.1,0,0.7c0.1-0.1,0.5-0.4,0.6-0.3c-0.7,0.6,0.3,0.3-0.3,1c0.3-0.3,0.5-0.2,0.6-0.2c0.2,0.1,0.3,0.2,0.5,0.1
			c-0.1,0-0.2,0.1-0.2,0.1c0.1,0.2,0,0.4-0.1,0.5c0.5-0.5,0.7-0.4,1.1-0.6c-0.3,0.6-0.6,0.5-1,0.9c0.4-0.4,0.6-0.1,0.9-0.5
			c-0.2,0.4,0,0.2-0.4,0.7c0.6-0.5,0.2,0,0.6-0.2c-0.1,0.4-0.5,0.5-0.2,0.6c-0.1,0.1-0.2,0.2-0.3,0.2C72.1,75.2,72,75.2,72,75.2"/>
		<path class="st3" d="M78.4,77.7L78.4,77.7c-0.1,0-0.1,0-0.1,0.1C78.3,77.8,78.3,77.7,78.4,77.7L78.4,77.7z"/>
		<polygon class="st3" points="79.3,87.5 79.4,87.4 79.3,87.4 		"/>
		<path class="st3" d="M83.6,86.5l0.2,0C83.8,86.5,83.7,86.5,83.6,86.5C83.6,86.5,83.5,86.5,83.6,86.5L83.6,86.5z"/>
		<path class="st3" d="M56.7,60.3L56.7,60.3C56.7,60.3,56.7,60.3,56.7,60.3"/>
		<path class="st3" d="M58.2,59.7c0,0,0,0.1,0.1,0.1C58.2,59.8,58.2,59.7,58.2,59.7"/>
		<path class="st3" d="M58.8,60L58.8,60C58.8,60,58.8,60,58.8,60"/>
		<path class="st3" d="M56.7,60.3l0.1,0.1C56.8,60.3,56.8,60.3,56.7,60.3"/>
		<path class="st3" d="M56.4,61.1L56.4,61.1c0,0.1,0,0.1,0.1,0.2L56.4,61.1z"/>
		<path class="st3" d="M55.9,61.4c0,0-0.2-0.4-0.3-0.6c0.1,0.2,0.1,0.3,0.1,0.3C55.8,61.2,55.9,61.3,55.9,61.4"/>
		<path class="st3" d="M56.7,61c0,0.1,0.1,0.1,0.1,0.1C56.8,61,56.8,61,56.7,61"/>
		<path class="st3" d="M61.3,48.3C61.3,48.3,61.4,48.3,61.3,48.3C61.3,48.3,61.3,48.3,61.3,48.3"/>
		<path class="st3" d="M63.6,48L63.6,48c0.1,0,0.2,0,0.3,0L63.6,48z"/>
		<path class="st3" d="M59.6,60.1L59.6,60.1C59.6,60.2,59.6,60.2,59.6,60.1"/>
		<path class="st3" d="M62.5,56.4c-0.4-0.2-0.4-0.4-0.8-0.6C61.9,55.9,62.3,56.3,62.5,56.4"/>
		<polygon class="st3" points="61.7,55.8 61.7,55.8 61.7,55.8 		"/>
		<path class="st3" d="M60.3,59.1c-0.1-0.1-0.1-0.1-0.1-0.1C60.2,59,60.2,59.1,60.3,59.1"/>
		<path class="st3" d="M59.2,59.2L59.2,59.2C59.2,59.2,59.2,59.2,59.2,59.2"/>
		<path class="st3" d="M60.1,58.3C60.2,58.4,60.2,58.4,60.1,58.3L60.1,58.3C60.2,58.3,60.2,58.4,60.1,58.3"/>
		<path class="st3" d="M60.5,58C60.4,58,60.4,58,60.5,58L60.5,58L60.5,58z"/>
		<path class="st3" d="M61.4,49.5c0.1,0,0.3,0,0.4,0.1C61.4,49.5,61.3,49.4,61.4,49.5"/>
		<path class="st3" d="M57.6,55.8L57.6,55.8C57.6,55.8,57.6,55.8,57.6,55.8"/>
		<path class="st3" d="M60.6,52L60.6,52C60.6,52,60.6,52,60.6,52"/>
		<path class="st3" d="M57.7,55.6c0.1,0.1,0.2,0.2,0.3,0.2c0,0,0,0-0.1-0.1L57.7,55.6z"/>
		<path class="st3" d="M61.8,49.5L61.8,49.5L61.8,49.5z"/>
		<path class="st3" d="M65,51.2c0.1,0,0,0-0.1,0c0,0,0,0,0-0.1l-0.1,0C64.8,51.2,64.9,51.2,65,51.2 M61.8,50.6L61.8,50.6
			c0.2,0,0.3,0,0.3,0.1C62,50.7,61.9,50.7,61.8,50.6 M61.8,50.5L61.8,50.5L61.8,50.5L61.8,50.5z M60.8,48.9c0,0,0.6,0.1,0.9,0.2
			c0.2,0.1-0.4,0-0.8-0.1c0.2,0.1,0.7,0.2,0.7,0.2c-0.1,0-0.1,0-0.3,0c0.5,0.1,0,0.1,0.6,0.3c-0.1,0-0.1,0-0.1,0
			c0.3,0,0.6,0.1,0.8,0.2c0,0,0.4,0.1,0,0.1c0,0-0.1,0-0.3-0.1l0.2,0.1c-0.6-0.1-0.2-0.1-0.6-0.2c0.2,0.1,0.6,0.2,0.5,0.3
			c-0.5-0.1-0.2-0.1-0.7-0.2l0.2,0c-0.9-0.1,0.1,0-0.9-0.2c-0.2,0,0.3,0.1,0.1,0.2c0.3,0.1,0.4,0.1,0.7,0.2c0.5,0.2-1.4-0.2-0.7,0
			c0.4,0.1,1,0.3,0.7,0.3l-0.6-0.2c-0.1,0.1,0.9,0.3,0.4,0.2c-0.2-0.1-0.2-0.1-0.3-0.1c-0.5-0.1,0.3,0.1,0.3,0.2l-0.5-0.1
			c0.1,0.1,0.4,0.3,0.5,0.4c-0.2-0.1-0.3-0.1-0.5-0.1c0.2,0.2-0.1,0.2-0.5,0.2l0.4,0.2c0,0-0.2,0-0.3-0.1c-0.2,0,0.3,0.1,0.5,0.2
			c0,0-0.3-0.1-0.4-0.1c0.4,0.2,0.8,0.5,0.2,0.4L61,51.1c-0.2,0,0.9,0.4,0.5,0.3l-0.1,0c-0.2,0.1,0.1,0.4-0.6,0.2
			c0.6,0.3-0.3,0,0.6,0.4c-0.5-0.1-0.6-0.2-1-0.2C60.4,51.7,61,52,61,52l-0.5-0.2l0.5,0.3l-0.6-0.2l0.1,0.1c0,0,0.2,0.1,0.4,0.1
			c0.2,0.1-0.4,0-0.6-0.1l0.3,0.3c-0.2-0.1-0.2-0.1-0.4-0.2c0.4,0.3-0.5-0.2-0.1,0c0.1,0,0.3,0.1,0.4,0.2c-0.3-0.1-0.3,0-0.2,0.1
			l-0.3-0.2c-0.1,0,0.1,0.2,0,0.3c0.2,0,0.7,0.3,0.7,0.4l-0.5-0.2c0.3,0.2,0.2,0.1,0.5,0.3c-0.1,0-0.6-0.2-0.7-0.3l0.1,0.1
			c-0.1-0.1-0.2-0.1-0.4-0.2c0.3,0.2-0.5-0.2,0,0.1l-0.1-0.1c-0.1,0.1,0.1,0.2,0.1,0.3c0.4,0.2,0.3,0.2,0.6,0.4
			c-0.2,0-0.5-0.1-0.5,0c0.2,0.2,0.3,0.2,0.6,0.4c-0.4-0.2-0.4-0.1-0.6-0.3c0,0.1,0,0.1,0.2,0.4c0.2,0.1,0.2,0.1,0.3,0.2
			c0,0.1-0.2,0-0.3-0.2l0,0c0.5,0.4-1.2-0.4-0.5,0.2l0,0l0.3,0.3c-0.1,0-0.2-0.2-0.5-0.3c0.5,0.5-0.2,0.1,0.1,0.4
			c-1.1-0.6-0.1,0.3-0.8-0.1l0.2,0.2c0.2,0.2-0.2-0.1-0.2-0.1c0.2,0.1,0.2,0.1,0.3,0.2c0.2,0.4-0.6,0.1-0.9,0.1
			c-0.1,0,1.1,1,0.5,0.6l-0.4-0.4c0.2,0.3,0.1,0.3,0.1,0.4c-0.1,0.1-0.1,0.1,0,0.3c-0.1-0.1-0.2-0.2-0.2-0.2
			c-0.3-0.2-0.1,0.1,0.1,0.3c0,0-0.2-0.2-0.4-0.3c-0.2-0.1,0.3,0.4,0,0.2c-0.1,0-0.1-0.1-0.1-0.1c0.1,0.1-0.1,0,0.2,0.3
			c-0.2-0.1,0.1,0.2-0.2,0.1c0.3,0.4-0.2-0.1,0.3,0.4c-0.5-0.5-0.5-0.3-0.3-0.1c-0.2-0.2-0.2-0.1-0.4-0.4c0,0,0,0.2,0.3,0.4
			c-0.7-0.6,0.4,0.6-0.4-0.2c0.2,0.4,0.3,0.7,0.3,0.9c-0.5-0.5,0-0.1-0.5-0.7c0.1,0.3,0.5,0.8,0.3,0.8c-0.1-0.1-0.2-0.2-0.3-0.4
			c0.1,0.3-0.2,0.1,0,0.5c0-0.1-0.1-0.1-0.1-0.2c0,0-0.1-0.1,0.1,0.2l0-0.1c0.3,0.4,0.6,0.8,0.8,1c-0.6-0.8-0.2-0.1-1-1.1
			c0,0.1,0.1,0.2,0.3,0.4c-0.1,0-0.1-0.1-0.3-0.3c0.1,0.2,0.3,0.4,0.3,0.5c-0.1-0.1-0.1-0.2-0.3-0.3c0.2,0.3,0.4,0.5,0.2,0.5
			c-0.1-0.1-0.1-0.2-0.1-0.2c0,0.1,0.4,0.8,0.1,0.6c-0.4-0.6-0.2-0.2-0.5-0.6l0.1,0.2l0.2,0.2c0,0,0.2,0.4,0,0.3l-0.1-0.2l0,0.1
			l0.2,0.2c0.1,0.3,0.5,0.6,0.3,0.5c0-0.1,0,0-0.3-0.3l0,0c0.1,0.2,0.2,0.4,0.1,0.3c-0.1-0.2-0.4-0.6-0.5-0.7c0.3,0.4,0,0.2,0.3,0.6
			c-0.1-0.1-0.3-0.4-0.3-0.4l0.2,0.4c-0.1-0.1-0.1-0.1-0.3-0.4c-0.1,0,0.5,0.6,0.2,0.4c0,0-0.1-0.1-0.1-0.1c-0.2-0.1,0,0.3-0.2,0.2
			c-0.4-0.5,0-0.2-0.3-0.6c0,0.2,0.2,0.7,0.1,0.7l0.1,0c0.5,0.7-0.3-0.3-0.1,0.1c0-0.1-0.2-0.4-0.2-0.3c-0.1-0.1,0,0.3,0,0.6
			l-0.1-0.2c-0.1-0.1-0.2,0-0.2-0.1c0.1,0.2,0.1,0.2,0.2,0.5c-0.4-0.5-0.4-0.3-0.3-0.1c0,0.2,0.1,0.4-0.2,0l-0.1-0.2l0,0.2
			c0.2,0.3,0.1,0.2,0.3,0.4c0.1,0.2,0.1,0.4,0.1,0.4c-0.1-0.2-0.3-0.5-0.4-0.7c0.1,0.1,0.1,0.2,0.2,0.3c-0.4-0.6,0.4,0.7,0.1,0.3
			l-0.1-0.2c0,0.1,0.1,0.3,0.1,0.3c-0.2-0.4-0.1-0.2-0.2-0.5c0,0,0.3,0.8,0.1,0.4c0-0.1,0-0.1-0.1-0.2c-0.3-0.4-0.2-0.3-0.3-0.4l0,0
			l-0.2-0.2l0.1,0.1c0.5,1,0,0.2,0.3,0.9c-0.2-0.7-0.2-0.4-0.4-0.8c-0.1-0.1-0.2-0.2-0.2-0.4c0.1,0.4-0.2-0.3,0,0.3
			c-0.1-0.1,0,0-0.2-0.4c0,0.1,0.1,0.2,0.2,0.4c0.2,0.5-0.4-0.5-0.2,0.2c0,0.3,0.2,0.8,0.3,1.1c-0.1-0.2-0.2-0.5-0.2-0.5
			c-0.1-0.2-0.1-0.1-0.1,0c0-0.1-0.1-0.2-0.2-0.4c0,0.1,0.2,0.5,0.1,0.3c-0.1-0.2-0.2-0.4-0.2-0.6c0,0.2,0.1,0.4,0.1,0.6
			C54,59.8,54,59.6,54,59.5c0,0.1,0,0.3,0.1,0.7l0.1,0.1c0,0-0.1-0.3-0.2-0.4c-0.1-0.3,0.1,0.1,0.2,0.3l0,0.1
			c0.4,0.9,0.1-0.2,0.1-0.2l0.2,0.6l-0.2-0.5c0.1,0.2,0.2,0.5,0.2,0.6c0.2,0.3-0.1-0.2,0.1,0.1c0,0.1,0,0.1,0,0.1l0-0.2
			c0,0.1,0.2,0.4,0.1,0.4c0.2,0.3-0.1-0.5,0.2-0.1l0,0c0-0.3-0.2-0.5-0.4-1l0.6,1.1l-0.2-0.5c0,0,0.1,0,0.1,0.2
			c-0.1-0.3-0.1-0.2-0.2-0.5c0.2,0.4,0-0.3,0.4,0.5c-0.1-0.4-0.2-0.2-0.2-0.5c0.4,0.8,0-0.2,0.2,0.2c0.2,0.4,0,0.2,0.3,0.6
			c-0.3-0.7,0.2,0.1,0.1,0c-0.3-0.5,0-0.3,0-0.5c0.1,0.2,0.3,0.2,0.4,0.4l0,0.1c-0.3-0.5-0.2-0.5-0.2-0.6c0.2,0.3,0.2,0.4,0.3,0.6
			l0,0c-0.1-0.2-0.1-0.3-0.1-0.3l0.2,0.4c0-0.1-0.1-0.5,0.1-0.3c-0.2-0.4-0.6-1-0.7-1.3c0.1,0.2,0.3,0.5,0.3,0.6c0,0-0.1-0.2,0-0.1
			l0.2,0.3c0.1,0.1-0.1-0.3-0.1-0.3c0.2,0.3,0.1,0.2,0.3,0.4c0,0-0.1-0.1,0,0c0.1,0,0.2,0.2,0.3,0.4c-0.1-0.2-0.2-0.4-0.2-0.4
			c0-0.1,0.2,0.3,0.3,0.5c-0.1-0.2,0.1,0-0.2-0.4c0,0,0.1,0.2,0.2,0.3c-0.1-0.2,0.1-0.1-0.2-0.6l0,0l0,0c-0.2-0.5,0.3,0.1,0.3-0.1
			l0.1,0.1c0-0.2,0.1-0.2-0.1-0.5c0,0,0.2,0.2,0.3,0.4c0-0.1-0.1-0.3,0.1-0.1c0.1,0.3,0.2,0.2,0.1,0.2c0.1,0.1,0.3,0.3,0.1-0.1
			c0.2,0.4,0.3,0.4,0.3,0.3l-0.2-0.2c0-0.1,0-0.1,0.1,0l0.3,0.5c0.5,0.5-0.4-1.1,0.3-0.2c-0.2-0.3-0.2-0.2-0.5-0.6
			c0.1,0,0.6,0.6,0.6,0.6c0.3,0.2-0.4-0.7-0.2-0.6c-0.1-0.1-0.4-0.6-0.5-0.7c0.1,0,0.6,0.6,0.6,0.8c0,0,0,0-0.1-0.1
			c0,0.1,0.1,0.2,0.2,0.3l-0.1-0.2c0.1,0.1,0.2,0.1,0.4,0.3c-0.1-0.2-0.2-0.3-0.3-0.3c0.2,0.2,0.1-0.1,0.3,0
			c-0.1-0.1-0.2-0.2-0.2-0.3c0.2,0.1-0.2-0.3-0.2-0.4c0.2,0.2,0.4,0.6,0.3,0.3c0.2,0.1,0.3,0.4,0.4,0.5c-0.2-0.3,0.3,0.1,0.3,0.1
			l0.1,0.1c0-0.1,0-0.1,0-0.1L59.2,60c0.1,0,0.1,0,0.2,0.2c-0.1-0.2-0.4-0.5-0.6-0.8c0.1,0.1-0.1-0.2,0.3,0.2
			c-0.2-0.1,0.3,0.4,0.3,0.5c0-0.1,0-0.1,0.1,0c0,0,0.1,0.1,0.1,0.1c0.4,0.3-0.3-0.5-0.3-0.5c0.2,0.2,0.4,0.4,0.3,0.3
			c0,0-0.3-0.4-0.4-0.6c0.2,0.1-0.1-0.2,0-0.2l-0.1-0.1c-0.2-0.2-0.1-0.2-0.2-0.3c0.2,0.2,0.1,0.1,0.2,0.2c-0.3-0.4,0.4,0.3,0.3,0
			c0.2,0.1,0.4,0.4,0.5,0.5c-0.2-0.3,0.3,0.2,0.2,0c-0.3-0.3-0.2-0.2-0.4-0.5l0.1,0.3l-0.3-0.5c0,0,0.1,0.2,0,0.2
			c-0.2-0.3-0.1-0.2-0.4-0.4c0.4,0.4-0.2-0.3,0.2-0.1l0.7,0.7c0.4,0.3-0.2-0.5,0-0.4l-0.1-0.1c-0.3-0.3,0-0.1-0.1-0.2
			c0.2,0.2,0.3,0.3,0.5,0.4c-0.2-0.2,0.1,0-0.4-0.5l0.3,0.3c0.2,0.1-0.6-0.7-0.4-0.7c0.2,0.3,0.4,0.4,0.6,0.6c0,0,0.1,0-0.1-0.2
			c0.2,0.1-0.2-0.4,0-0.2c-0.1-0.1-0.3-0.3-0.3-0.4c0.1,0,0.1,0.1,0.1,0.1c-0.1-0.1-0.1-0.2-0.4-0.4c0.8,0.6,0.1-0.2,0.8,0.3
			c0-0.1-0.1-0.3,0-0.3c0.1,0.1,0.1,0.1,0.1,0.1c0.3,0.1-0.7-0.7-0.3-0.5c0.4,0.3,0.2,0.2,0.3,0.3c0.8,0.7,0-0.2,0.5,0.2l0,0.1
			c0.3,0.2-0.2-0.4-0.1-0.4c0,0,0.1,0.1,0.1,0.1c-0.4-0.4-0.4-0.6-0.5-0.7c0.3,0.3,0.1,0.2,0.5,0.4c0-0.1-0.5-0.4-0.6-0.6
			c0.2,0.1,0.4,0.2,0.7,0.5l0,0.1c0.5,0.3,0-0.1,0.1,0l0.2,0.2c0-0.1-0.5-0.5-0.4-0.6l-0.2-0.1c-0.5-0.4,0.3,0.2,0-0.2l0.5,0.4
			c-0.1-0.1-0.4-0.5-0.5-0.6c0.4,0.3,0.5,0.5,0.7,0.8c0,0,0-0.1-0.2-0.3c0,0.1,0.2,0.2,0.1,0.1c-0.4-0.3-0.5-0.5-0.5-0.6
			c1,0.8,0.4,0,1.2,0.6c-0.3-0.4,0.3-0.1,0.4-0.3c-0.8-0.5,0-0.1-0.8-0.6c0-0.1,0-0.1,0,0l0.6,0.2c0.3,0.1,0.2,0.2,0.4,0.3
			c0.1,0,0.4,0.2,0.6,0.3c-0.3-0.2-0.4-0.3-0.3-0.3l-0.4-0.2c-0.4-0.4,0.8,0.4,0.4,0l0.2,0.2c-0.1-0.2,0.1-0.2-0.5-0.7
			c0.1,0.1,0.3,0.2,0.4,0.2c0.2-0.1-0.6-0.7-0.1-0.6l0.2,0.1c0-0.1-0.4-0.3-0.1-0.2c0.1,0.1,0.2,0.1,0.2,0.1
			c-0.1-0.1-0.3-0.3-0.2-0.2l0.2,0.2c0.4,0-0.5-0.5-0.6-0.7c0.6,0.4,0.9,0.4,1,0.4l0.1,0.1c0.2-0.1-0.4-0.5-0.6-0.8
			c0.7,0.3,0.4-0.1,0.9-0.1c-0.1,0-0.5-0.2-0.6-0.3c0.1,0-0.4-0.3,0.2,0l0,0c0.6,0.3,0.5,0.1,0.5,0.1l-0.8-0.4
			c1.2,0.4-0.3-0.5,0.8-0.2c-0.2-0.1-0.2-0.2-0.3-0.3l0.4,0.2c0.1,0,0.2-0.1,0.2-0.2l0.3,0.1c0.1-0.1-1.2-0.6-1.2-0.6l0.7,0.2
			c0-0.1,0.6,0,0.1-0.4c0.1,0,0.3,0.1,0.3,0.1c0-0.1,0.5-0.1-0.4-0.4c0.6,0.2,0.1-0.1-0.1-0.2l0.4,0.2c-0.5-0.2-0.7-0.3-0.8-0.4
			c0.1,0,0.4,0.1,0.2,0.1c0.2,0-0.4-0.2-0.1-0.2l0.3,0.1c0.1,0-0.1-0.1-0.4-0.2c-0.2-0.1,0.1-0.1,0.5,0c-0.2-0.1-0.5-0.2-0.4-0.2
			c0.2,0,0.2,0.1,0.3,0.1c0.3,0-0.5-0.3,0-0.2c0.1,0,0.2,0.1,0.3,0.1c0,0.1-0.1,0.1-0.1,0.1c0.4,0.1,0.5,0.1,1,0.3
			c-0.3-0.1-0.9-0.4-0.7-0.4c0,0,0.1,0,0.1,0l0,0c0,0,0,0-0.1-0.1c0.1,0,0.1,0,0.1,0c0.3,0.1,0.2,0,0.2-0.1
			c-0.4-0.1-0.4-0.1-0.7-0.2c0,0,0,0,0.1,0c0,0,0,0,0,0l0,0c0,0,0,0.1,0,0.1C64.2,51,64,51,64.2,51c-0.3-0.1-0.6-0.2-0.7-0.2
			c0.6,0.1,1,0.1,1.4,0.2c-0.2-0.2-0.1-0.3-0.9-0.5c-0.1-0.1,0.2,0,0.4,0c0.1,0,0.1,0.1,0.2,0.1c-0.2-0.1,0-0.2-0.6-0.3
			c0.3,0,0.5,0.2,0.5,0l0.2,0.1c0.5,0,0.1-0.2-0.2-0.3c-0.3-0.1-0.6-0.3,0-0.3c-0.1,0-0.1,0-0.2,0c0.3-0.1,0.2-0.2,0.1-0.4
			c-0.1-0.1-0.1-0.3,0.4-0.3c0.2,0-0.2-0.1-0.5-0.2l0.5,0l-0.6-0.1c-0.4-0.1,1.2,0,0.5-0.3l-0.3,0c0.1,0-0.2-0.2,0.2-0.1
			c-0.1,0-0.3,0-0.2,0l0.3,0L64,48.2c0.2-0.1,1,0.1,1.1,0C65,48.1,64.4,48,64.2,48c0,0-0.2,0-0.4,0l-0.1,0c-0.8-0.1-1.5-0.1-2.1-0.1
			L62,48l-0.4,0l0-0.1c-0.3,0,0,0,0.2,0.1c-0.2,0-0.3,0-0.4,0l0.7,0.1c-0.3,0-0.6-0.1-0.8,0c0.3,0.1,0.7,0,0.9,0.1
			c-0.3,0-0.6,0-0.3,0c-0.2,0-0.3,0-0.4-0.1c0.2,0.1,0.1,0.1,0.5,0.1c-0.4,0,0.1,0.1-0.6,0c0.2,0,0.6,0.1,0.6,0.1
			c-0.9-0.1-0.1,0.1-1,0c0.8,0.1,0.3,0.2,0.8,0.3c-0.1,0-0.2,0-0.1,0c-0.1,0-0.3,0-0.4,0c0.6,0.1,0.8,0.2,1.2,0.3
			c-0.6,0-0.7-0.1-1.3-0.2c0.5,0.1,0.5,0.2,0.9,0.2c-0.4,0-0.2,0-0.7-0.1c0.8,0.1,0.1,0.1,0.6,0.2c-0.4,0-0.7-0.1-0.5,0
			C61,49,60.8,48.9,60.8,48.9"/>
		<path class="st3" d="M64.4,51L64.4,51c-0.1,0-0.1,0-0.1,0C64.3,51,64.3,51,64.4,51L64.4,51z"/>
		<polygon class="st3" points="56.7,60.3 56.7,60.3 56.7,60.2 		"/>
		<polygon class="st3" points="60.5,51.8 60.6,51.9 60.5,51.8 		"/>
		<path class="st3" d="M57.2,56.9L57.2,56.9C57.1,56.8,57.1,56.8,57.2,56.9"/>
		<path class="st3" d="M57,58.4c0-0.1-0.1-0.1-0.1-0.2C56.9,58.2,56.9,58.2,57,58.4"/>
		<polygon class="st3" points="57.6,55.8 57.6,55.8 57.6,55.8 		"/>
		<path class="st3" d="M57,58.1C56.9,58.1,56.9,58.1,57,58.1C57,58.2,57,58.2,57,58.1"/>
		<path class="st3" d="M55.4,61.1L55.3,61c0.1,0.2,0.2,0.4,0.2,0.4C55.8,61.9,55.3,61.1,55.4,61.1"/>
		<path class="st3" d="M55.7,61.2c0,0.1,0.1,0.2,0.2,0.3C55.9,61.4,55.8,61.3,55.7,61.2"/>
		<path class="st3" d="M57.4,60.3l0.2,0.4C57.6,60.6,57.5,60.5,57.4,60.3"/>
		<polygon class="st3" points="56.4,58.3 56.3,58.1 56.5,58.4 		"/>
		<polygon class="st3" points="58.3,60.6 58.3,60.7 58.3,60.5 		"/>
		<path class="st3" d="M60.7,58.3L60.3,58C60.4,58.1,60.8,58.5,60.7,58.3"/>
		<path class="st3" d="M61.2,56.9c0.2,0.1,0.4,0.2,0.2,0C61.3,57,61.2,56.9,61.2,56.9"/>
		<polygon class="st3" points="64.1,53.8 64.3,53.9 64.2,53.8 		"/>
	</g>
</g>
</svg>
