<!-- Generator: Adobe Illustrator 19.2.1, SVG Export Plug-In  -->
<svg version="1.1"
	 xmlns="http://www.w3.org/2000/svg" xmlns:xlink="http://www.w3.org/1999/xlink" xmlns:a="http://ns.adobe.com/AdobeSVGViewerExtensions/3.0/"
	 x="0px" y="0px" width="288.8px" height="125.6px" viewBox="0 0 288.8 125.6" style="enable-background:new 0 0 288.8 125.6;"
	 xml:space="preserve">
<style type="text/css">
	.st0{fill:#F6A216;}
	.st1{fill:#002856;}
</style>
<defs>
</defs>
<g>
	<path class="st0" d="M199.1,57.8c-0.3-4.3-1.1-8.7-2.1-13c-0.8-0.7-1-1.9-0.7-2.8c-1.5-5.6-3.3-11-5.2-16.3
		c-2.4-6.6-6.4-12.5-12.6-16.1c-3.5-2-7.3-3.2-11.2-3.9c-0.5,0.6-1.4,1-2.4,0.8c-11.8-2.3-24.1-2.2-35.6,1.5
		c-11.4,3.6-21.5,10.6-29.1,19.9C95.6,33.6,92.5,40.1,91,47c-0.1,1.6-0.7,3.3-1,5c-0.2,1.6-0.5,3.2-0.5,4.8c0,1.6,0,3.1,0.6,5.5
		c0.4,2.7,1.3,5.5,2.3,8.2c0.4,1,0.5,2,0.9,3c1.3,3.2,2.2,4.4,3.8,6.9c6.1,9.3,15.6,16.5,25.9,21.1c11.5,5.2,24.9,7.7,37.5,5.6
		c3.4-0.7,7.9-2.1,7.9-2.1c6.6-2.3,12.5-5.8,17.4-10.6c1.4-1.4,2.8-3.3,3.7-4.1c0.8-1,1.5-2,2.2-3c0.7-1.1,1.9-3.4,2.6-4.5
		c0.4-0.7,0.8-1.5,1.1-2.2c0.9-2,1.6-4,2.2-6c0-0.4,0.1-0.8,0.3-1.2c1-4,1.4-8,1.3-12C198,60.4,198.2,58.8,199.1,57.8z"/>
	<path class="st1" d="M284.1,106.4c-0.1,1.4-0.9,3.3-1.8,4.4c-1.4,1.7-2.9,2.9-4.8,4c-4.4,2.6-9.4,4-14.4,4.9
		c-4.8,0.9-9.7,1.4-14.6,1.2c-18.8-0.6-37.6-4.5-55.6-9.8c-8.4-2.5-16.6-5.4-24.8-8.6c5.8-2.6,11-6.4,15.2-11.1
		c4.2,1.2,8.4,2.4,12.6,3.7c8.2,2.5,16.5,4.9,25,6.1c7.4,1.1,16.1,1.9,23-1.5c4.7-2.3,5.2-7.2,2.7-11.3c-1.6-2.7-4-4.8-6.4-6.8
		c-2.8-2.4-5.8-4.6-8.9-6.7c-11.3-7.5-24-12.5-36-18.8c-0.2-3.9-0.8-7.8-1.6-11.6c7,1.5,13.6,5.4,19.7,8.8
		c7.2,3.9,14.5,7.5,21.8,11.2C250,72,265,80,276.5,92.1C280.2,96,284.5,101,284.1,106.4 M119.3,96.7c-9.7-4.4-18.4-11.1-24.1-19.8
		c6.6,2.7,13.3,5.5,19.9,8.2c9.4,3.9,18.8,7.9,28.1,11.9c3.8,1.6,7.5,3.3,11.3,4.9C142.6,103.9,130.1,101.6,119.3,96.7 M82.4,66.5
		c-9.2-3.8-18.2-7.8-27-12.5c-8-4.2-15.9-8.5-24.2-12.2c-6.5-2.9-13.2-5.7-18.9-10c-2.4-1.8-4.4-4-5.8-6.6c-1-1.8-1.7-4-1.7-5.6
		c-0.1-1.7,0.2-2.8,1-4.2c0.7-1.1,2.1-2.5,3.2-3.3c3.6-2.5,7.6-3.7,11.9-4.8c8.3-2,16.9-2.6,25.5-2.7c8.4-0.1,16.7,0.2,25.1,1
		c5,0.5,9.9,1.2,14.8,2.1c4.7,0.9,9.4,2.4,14,3.6c2.1,0.6,4.3,1,6.4,1.3c-1.7,1.2-3.3,2.4-4.8,3.7c-0.3-0.4-0.7-0.8-1.4-0.9
		C84.4,12.5,67.7,9,51.5,11.5c-6,0.9-14.2,3.1-16.3,9.7c-1.7,5.4,2.6,10.8,6.3,14.2c2.6,2.4,5.7,4.4,8.7,6.2
		c3.9,2.4,7.9,4.5,11.9,6.6c7,3.5,14.2,6.7,21.4,9.6c0.4,3.4,1.1,6.8,2.2,10.1C84.6,67.5,83.5,67,82.4,66.5 M63.5,29.7
		c0.6-0.2,1.2-0.3,1.8-0.4c1.2-0.2,2.7-0.3,4.3-0.4c3.4-0.1,6.8,0.1,10.2,0.4c2.3,0.2,4.8,0.5,7.3,1.3c2.9,0.9,4.1-3.6,1.2-4.5
		c-3.6-1.1-7.5-1.4-11.2-1.7c-4.5-0.3-9.1-0.4-13.5,0.5c-3.4,0.7-7.1,2.8-6.2,6.8c0.4,2,2.1,3.7,3.6,5c2.7,2.4,5.9,4.4,9.2,6.1
		c4.3,2.3,8.9,4.1,13.5,5.7c-0.2,1.4-0.3,2.8-0.3,4.2c-8-3.4-16-7-23.7-11.1c-6.3-3.4-13.2-7-17.8-12.6c-1.4-1.7-2.4-3.8-2.4-5.7
		c0-0.7,0.3-1.5,0.8-2.2c0.6-1,1.9-1.7,3-2.3c3.7-2,8.3-2.7,12.4-3.1c5-0.5,10-0.3,14.9,0.1c9.2,0.7,18.3,2.4,27.4,4.2
		c-6.3,6.4-11.2,14.3-13.4,22.9c-0.1,0.4-0.2,0.7-0.3,1.1c-0.9-0.3-1.8-0.7-2.8-1c-6.5-2.5-13.7-5.5-18.6-10.6
		c-0.6-0.6-0.6-0.6-1-1.3c0-0.1-0.1-0.1-0.1-0.2l0-0.1c0-0.1,0-0.1-0.1-0.2l0.1-0.1c0.1-0.1,0.3-0.2,0.4-0.3
		c0.2-0.1,0.3-0.2,0.5-0.2C62.6,30.1,63.3,29.8,63.5,29.7 M167.2,82.2C148,76.7,129,70.5,110.3,63.3c-7.4-2.9-14.9-5.7-22.3-8.6
		c0-1.5,0-3,0.2-4.5c1.6,0.5,3.2,1.1,4.7,1.6c8.4,2.8,16.4,6.3,24.7,9.5c9.4,3.6,18.9,7,28.3,10.5c9.3,3.4,18.5,6.6,28,9.1
		c3.2,0.9,6.5,1.6,9.7,2.4c-0.6,1-1.3,1.9-2,2.8C176.9,84.8,172,83.5,167.2,82.2 M161.8,100c-7.7-3.2-15.3-6.7-23-10
		c-15.7-6.7-31.4-13.2-47.2-19.7c-0.4-0.9-0.8-1.8-1.1-2.8c-0.9-2.5-1.6-5.1-1.9-7.7c17.5,7,35.2,13.7,53.2,19.5
		c12.1,3.9,24.3,7.2,36.5,10.6C173.6,94.5,168,97.9,161.8,100 M125,8.8c10.8-3.4,22.4-3.6,33.5-1.4c1,0.2,1.7-0.2,2.3-0.8
		c3.7,0.6,7.2,1.8,10.5,3.7c5.8,3.4,9.6,8.9,11.9,15.1c1.8,5,3.5,10.1,4.9,15.3c-0.3,0.9-0.1,2,0.7,2.7c1,4,1.7,8.1,1.9,12.2
		c-0.9,0.9-1.1,2.5,0.1,3.4c0,3.8-0.3,7.6-1.3,11.3c-0.2,0.4-0.3,0.7-0.3,1.1c-0.5,1.9-1.2,3.8-2,5.6c-0.3,0.7-0.7,1.4-1,2.1
		c-8.7-2.2-17.5-4.4-26-7.2c-9.5-3.1-18.8-6.8-28.2-10.2c-9.3-3.4-18.4-7.1-27.5-10.8c-5.1-2-10.3-3.7-15.4-5.5
		c1.4-6.5,4.3-12.6,8.7-18C104.8,18.7,114.2,12.2,125,8.8 M212.8,84.4c1,0.5,2.1,1.1,2.9,1.8c-2.2,0.8-5.2,0.2-7.4-0.2
		c-6.1-1.2-11.7-3.8-17.6-5.6c0.9-1.9,1.7-3.8,2.3-5.7C199.6,78,206.4,80.9,212.8,84.4 M220.9,85.4c-1-2.5-3.8-3.9-6.1-5.2
		c-6.7-3.6-13.7-6.7-20.5-10.2c0.1-0.3,0.1-0.7,0.2-1c0.5-2.5,0.8-5,0.9-7.6c14,7.2,29,12.9,41.2,23.1c2.5,2.1,5.7,4.5,6.8,7.7
		c0.3,0.8,0.3,1.5,0.1,1.9c-0.4,0.7-1.3,1.3-2.2,1.7c-3.4,1.4-7.3,1.5-10.9,1.5c-4.1,0-8.1-0.6-12.1-1.4c-8.4-1.6-16.7-4.1-24.9-6.6
		c-2.3-0.7-4.5-1.3-6.8-2c0.7-1,1.3-1.9,1.9-2.9c2.7,0.8,5.3,1.8,7.9,2.7c6.3,2.2,13.5,5,20.2,3.4C219,90.2,222.1,88.3,220.9,85.4
		 M283,92.4c-5.1-6.4-11.7-11.7-18.4-16.4c-13.7-9.6-29-16.3-43.8-23.9c-9-4.7-18-10.8-28.3-12.4c-0.8-3-1.7-5.9-2.7-8.8
		c-1.3-4-2.6-8-4.4-11.8c-2.9-5.9-7.7-10.7-13.5-13.7c-6.1-3.1-13.1-4.1-19.9-4c-0.4,0-0.7,0.1-1,0.2c-12.7-1.1-25.5,0.8-37,6.6
		c-0.6,0.3-1.3,0.7-1.9,1c-0.4-0.5-0.9-0.8-1.7-0.9c-4.8-0.3-9.4-1.7-14-3c-4.7-1.3-9.4-2.4-14.3-3.1C72.2,0.7,62.2,0.1,52.2,0
		c-9-0.1-18.1,0.3-27,1.7C17.1,3.1,6.5,5.4,1.8,12.9c-2.3,3.6-2.2,8.1-0.7,11.9c2.4,6.3,7.4,10.5,13.1,13.9c6,3.6,12.6,6.1,19,9.1
		c8.9,4.2,17.4,9,26.2,13.4c8.9,4.5,18.2,8.2,27.5,12c0.5,0.2,1,0.4,1.4,0.6c1.6,3.3,3.6,6.4,5.8,9.4c8.5,11,21.7,18.3,35,21.7
		c10.7,2.8,22,3,32.6-0.1c2.7,1.1,5.5,2.2,8.2,3.3c17.9,6.8,36.5,12.1,55.5,15.1c13.6,2.1,27.4,3.5,40.9,0.6
		c8.5-1.9,20.8-6.2,22.3-16.1C289.6,102,286.5,96.7,283,92.4"/>
	<path class="st1" d="M123.8,36.5c-1.2-1.2-2.6-2.1-4.1-2.3c-1.2-0.4-2.7-0.5-3.5,0.5c-0.1,0.2-0.2,0.3-0.3,0.5
		c-0.7,0.4-1.3,1.1-1.4,1.9c-0.2,1.6,0.4,2.9,1.8,3.7c0.1,0,0.1,0.1,0.2,0.1c0.3,0.5,0.8,0.8,1.3,0.9c1.1,0.2,2.4,0.7,3.4,0.2
		c1.2-0.5,1.8-1.4,2.7-2.3C124.8,38.9,124.7,37.4,123.8,36.5"/>
	<path class="st1" d="M139.7,20.6c-0.1-1.1-0.6-1.9-1.7-2.2c-2.6-0.8-5.7-0.1-7.3,2.2c-0.8,1.2-0.7,2.7-0.1,4
		c0.7,1.4,2.4,2.1,3.8,2.5c0.4,0.1,1,0.1,1.4-0.1c0.6,0,1.1-0.1,1.7-0.4C139.8,25.6,139.9,22.6,139.7,20.6"/>
	<path class="st1" d="M149.2,48.1c-2.7-2.4-6.6-1.5-8.9,1c-0.7,0.7-1,1.9-0.4,2.8c0.7,1,1.4,1.7,2.3,2.3c1.2,2.4,3.9,3.8,6.3,1.9
		C151.1,54,151.8,50.3,149.2,48.1"/>
	<path class="st1" d="M167.3,32.7c-0.7-1.4-1.7-2.4-2.9-3c-1-0.8-2.1-1.1-3.3-0.7c-0.1,0-0.1,0-0.2,0.1c-0.3,0-0.6,0-1,0
		c-1.6,0.2-2.9,1.4-4,2.6c-1.7,1.8,0.2,4.3,2.1,4c0.1,0.2,0.3,0.3,0.5,0.4c1.3,0.9,2.6,1.6,4.2,1.6c1.6,0,3-1.1,4.1-2.1
		C167.8,34.7,167.8,33.6,167.3,32.7"/>
	<path class="st1" d="M178.2,59.3c-0.1-1-0.7-2.1-1.7-2.2c-0.5-0.1-0.9-0.1-1.3-0.2c-1.3-0.6-2.6-0.7-4.1-0.6
		c-0.9,0.1-1.6,0.6-1.9,1.2c-1.8,0.9-2.9,2.6-1.6,5.1c1.2,2.4,4.1,3.8,6.7,3.2C177,65,178.4,61.9,178.2,59.3"/>
	<path class="st1" d="M164.5,12.3c-0.1-0.1-0.2-0.1-0.3-0.2c0.6-2-2.1-4.1-3.9-2.3c-0.4,0.4-0.8,0.9-1.2,1.4
		c-0.7,0.1-1.4,0.4-1.8,1.1c-0.4,0.7-0.4,1.6,0,2.4c0.7,1.3,1.8,2.4,3.3,2.5c0.5,0,1-0.1,1.4-0.3c0.1-0.1,0.2-0.1,0.4-0.2
		c0.5,0,1.1-0.1,1.6-0.2C166,16.2,166.1,13.2,164.5,12.3"/>
	<path class="st1" d="M181.8,40.3c-0.2-0.9-0.9-1.3-1.6-1.6c-0.7-0.3-1.5-0.3-2.3-0.2c-0.2,0-0.4,0.1-0.6,0.2c-0.1,0-0.1,0-0.2,0.1
		c-1-0.1-1.9,0.3-2.4,1.2c-0.3,0.3-0.6,0.7-0.7,1.1c-0.4,1.3,0.5,2.4,1.6,2.9c-0.4-0.2,0.1,0.1,0.2,0.1c0.1,0.1,0.3,0.1,0.4,0.2
		c0.2,0.1,0.4,0.2,0.6,0.3c0.5,0.3,1,0.5,1.5,0.5c0.2,0.1,0.4,0.2,0.6,0.2c1.9,0.8,3.6-1.7,2.7-3.3
		C181.8,41.5,181.9,40.9,181.8,40.3"/>
	<path class="st1" d="M102.1,33.9c-0.3-0.1-0.6-0.2-0.9-0.2c-0.1,0-0.2,0-0.4,0.1c-0.1,0-0.3,0-0.4,0.1c-0.1,0-0.1,0.1-0.2,0.1l0,0
		l-0.1,0c-0.2,0.1-0.4,0.1-0.6,0.2c-0.1,0-0.2,0-0.2,0.1c-0.2,0-0.3,0-0.5,0.1c-0.1,0-0.1,0-0.2,0l-0.1,0l0,0l0,0
		c-0.2,0-0.2,0-0.1,0c-1.2,0.2-2.2,1-2.2,2.3c0,1.3,1.1,2.3,2.3,2.3c0.3,0,0.7,0,1.1-0.1c0.9,0.8,2.4,0.8,3.3-0.1
		c0.5-0.5,0.7-1.3,1-1.9C104.3,35.7,103.3,34.1,102.1,33.9"/>
	<path class="st1" d="M100.2,34c0.1,0,0.1,0,0.2-0.1C100.6,33.8,100.5,33.8,100.2,34"/>
	<path class="st1" d="M112.6,20.7c-0.3,0.2-0.4,0.3-0.4,0.3C112.3,20.9,112.5,20.8,112.6,20.7L112.6,20.7z"/>
	<path class="st1" d="M118.7,20.1c-0.6-1-1.8-1.3-2.9-1l0,0c-0.1,0-0.1,0-0.2,0.1c-0.2,0-0.3,0.1-0.5,0.1c-0.5,0.1-0.9,0.2-1.3,0.5
		c-0.3,0.2-0.5,0.4-0.8,0.7c-0.1,0.1-0.2,0.2-0.4,0.3l0.1,0c0,0-0.1,0-0.1,0c-0.1,0.1-0.2,0.1-0.2,0.2c-0.1,0.1-0.1,0.1-0.1,0.1
		c-0.8,0.7-0.9,2-0.4,2.9c0.1,0.2,0.2,0.3,0.3,0.4c0,0.3,0.1,0.7,0.3,1c0.5,0.8,1.7,1.5,2.6,1.1c0.8-0.4,1.5-1,2.2-1.6
		c0.4-0.5,0.8-1,0.9-1.6C119.1,22.4,119.3,21.1,118.7,20.1"/>
	<path class="st1" d="M130.3,50.5c-0.3-0.5-0.7-0.9-1.2-1.2c-0.7-0.4-1.3-0.4-2.1-0.3c-0.2,0-0.3,0.1-0.5,0.2
		c-1,0.1-1.9,0.6-2.2,1.7c-0.3,1,0.2,2.1,1,2.6c0.1,0.1,0.2,0.2,0.3,0.3c0.1,0.1,0.2,0.2,0.3,0.2c0.3,0.4,0.7,0.8,1.3,0.9
		c1.5,0.4,2.6-0.6,3.3-1.8C131,52.3,130.8,51.4,130.3,50.5"/>
	<path class="st1" d="M125.9,90.7h-1.4c-1.3,0-2.3,1.1-2.3,2.3c0,1.3,1.1,2.3,2.3,2.3h1.4c1.3,0,2.3-1.1,2.3-2.3
		C128.2,91.8,127.2,90.7,125.9,90.7"/>
</g>
</svg>
