<!-- Generator: Adobe Illustrator 19.2.1, SVG Export Plug-In  -->
<svg version="1.1"
	 xmlns="http://www.w3.org/2000/svg" xmlns:xlink="http://www.w3.org/1999/xlink" xmlns:a="http://ns.adobe.com/AdobeSVGViewerExtensions/3.0/"
	 x="0px" y="0px" width="159.5px" height="69.4px" viewBox="0 0 159.5 69.4" style="enable-background:new 0 0 159.5 69.4;"
	 xml:space="preserve">
<style type="text/css">
	.st0{fill:#65B5A0;}
	.st1{fill:#002856;}
</style>
<defs>
</defs>
<g>
	<path class="st0" d="M110,31.9c-0.2-2.4-0.6-4.8-1.1-7.2c-0.4-0.4-0.6-1-0.4-1.6c-0.8-3.1-1.8-6.1-2.9-9c-1.3-3.7-3.6-6.9-7-8.9
		c-1.9-1.1-4-1.8-6.2-2.2c-0.3,0.3-0.8,0.6-1.3,0.4c-6.5-1.3-13.3-1.2-19.7,0.8c-6.3,2-11.9,5.8-16,11c-2.5,3.2-4.3,6.8-5.1,10.6
		c-0.1,0.9-0.4,1.8-0.5,2.8c-0.1,0.9-0.3,1.8-0.3,2.7c0,0.9,0,1.7,0.3,3c0.2,1.5,0.7,3,1.2,4.5c0.2,0.6,0.3,1.1,0.5,1.6
		c0.7,1.8,1.2,2.4,2.1,3.8c3.4,5.2,8.6,9.1,14.3,11.7c6.4,2.9,13.8,4.2,20.7,3.1c1.9-0.4,4.4-1.1,4.4-1.1c3.7-1.2,6.9-3.2,9.6-5.9
		c0.7-0.8,1.5-1.8,2.1-2.2c0.4-0.5,0.8-1.1,1.2-1.7c0.4-0.6,1.1-1.9,1.4-2.5c0.2-0.4,0.4-0.8,0.6-1.2c0.5-1.1,0.9-2.2,1.2-3.3
		c0-0.2,0.1-0.5,0.2-0.7c0.5-2.2,0.8-4.4,0.7-6.7C109.4,33.4,109.5,32.5,110,31.9z"/>
	<g>
		<path class="st1" d="M157,58.8c0,0.8-0.5,1.8-1,2.4c-0.8,1-1.6,1.6-2.6,2.2c-2.4,1.4-5.2,2.2-7.9,2.7c-2.6,0.5-5.4,0.8-8.1,0.7
			c-10.4-0.3-20.8-2.5-30.7-5.4c-4.6-1.4-9.2-3-13.7-4.7c3.2-1.4,6.1-3.6,8.4-6.2c2.3,0.7,4.6,1.3,7,2c4.5,1.4,9.1,2.7,13.8,3.4
			c4.1,0.6,8.9,1,12.7-0.8c2.6-1.3,2.9-4,1.5-6.2c-0.9-1.5-2.2-2.6-3.5-3.8c-1.6-1.3-3.2-2.6-4.9-3.7c-6.2-4.1-13.3-6.9-19.9-10.4
			c-0.1-2.2-0.4-4.3-0.9-6.4c3.9,0.8,7.5,3,10.9,4.8c4,2.2,8,4.2,12,6.2c8.2,4.1,16.4,8.6,22.8,15.2C154.8,53,157.1,55.8,157,58.8
			 M65.9,53.4c-5.3-2.4-10.1-6.1-13.3-11c3.7,1.5,7.3,3,11,4.5c5.2,2.2,10.4,4.3,15.5,6.6c2.1,0.9,4.2,1.8,6.2,2.7
			C78.8,57.4,71.8,56.1,65.9,53.4 M45.5,36.7c-5.1-2.1-10-4.3-14.9-6.9c-4.4-2.3-8.8-4.7-13.4-6.7c-3.6-1.6-7.3-3.2-10.5-5.5
			c-1.3-1-2.4-2.2-3.2-3.7c-0.5-1-0.9-2.2-1-3.1c0-0.9,0.1-1.6,0.6-2.3c0.4-0.6,1.2-1.4,1.8-1.8c2-1.4,4.2-2.1,6.5-2.6
			c4.6-1.1,9.3-1.4,14.1-1.5c4.6-0.1,9.2,0.1,13.8,0.5c2.7,0.3,5.5,0.6,8.2,1.2c2.6,0.5,5.2,1.3,7.7,2c1.2,0.3,2.4,0.6,3.6,0.7
			c-0.9,0.6-1.8,1.3-2.7,2.1c-0.1-0.2-0.4-0.4-0.8-0.5c-8.8-1.7-18-3.6-27-2.2c-3.3,0.5-7.9,1.7-9,5.4c-0.9,3,1.4,6,3.5,7.8
			c1.5,1.3,3.1,2.4,4.8,3.4c2.1,1.3,4.4,2.5,6.6,3.6c3.9,2,7.8,3.7,11.8,5.3c0.2,1.9,0.6,3.7,1.2,5.6C46.7,37.3,46.1,37,45.5,36.7
			 M35.1,16.4c0.3-0.1,0.7-0.2,1-0.2c0.7-0.1,1.5-0.2,2.4-0.2c1.9-0.1,3.8,0,5.7,0.2c1.3,0.1,2.6,0.3,4,0.7c1.6,0.5,2.3-2,0.7-2.5
			c-2-0.6-4.1-0.8-6.2-0.9c-2.5-0.2-5-0.2-7.5,0.3c-1.9,0.4-3.9,1.5-3.4,3.8c0.2,1.1,1.2,2,2,2.8c1.5,1.4,3.3,2.4,5.1,3.4
			c2.4,1.3,4.9,2.3,7.5,3.2c-0.1,0.8-0.1,1.5-0.2,2.3c-4.4-1.9-8.8-3.8-13.1-6.1c-3.5-1.9-7.3-3.8-9.8-7c-0.8-0.9-1.3-2.1-1.3-3.2
			c0-0.4,0.2-0.8,0.5-1.2c0.4-0.5,1-1,1.6-1.3c2-1.1,4.6-1.5,6.9-1.7c2.7-0.3,5.5-0.2,8.2,0C44.2,9.1,49.2,10,54.2,11
			c-3.5,3.6-6.2,7.9-7.4,12.7c-0.1,0.2-0.1,0.4-0.1,0.6c-0.5-0.2-1-0.4-1.5-0.6c-3.6-1.4-7.6-3-10.3-5.9c-0.3-0.4-0.3-0.3-0.5-0.7
			c0,0,0-0.1,0-0.1l0,0c0,0,0-0.1,0-0.1l0,0c0.1,0,0.2-0.1,0.2-0.2c0.1,0,0.2-0.1,0.3-0.1C34.6,16.6,35,16.4,35.1,16.4 M92.4,45.4
			C81.7,42.4,71.3,38.9,61,35c-4.1-1.6-8.2-3.1-12.3-4.8c0-0.8,0-1.7,0.1-2.5c0.9,0.3,1.8,0.6,2.6,0.9c4.6,1.6,9.1,3.5,13.6,5.3
			c5.2,2,10.4,3.9,15.6,5.8c5.1,1.9,10.2,3.6,15.5,5c1.8,0.5,3.6,0.9,5.4,1.3c-0.4,0.5-0.7,1.1-1.1,1.6C97.7,46.9,95,46.1,92.4,45.4
			 M89.4,55.3c-4.3-1.8-8.5-3.7-12.7-5.5C68,46,59.3,42.4,50.6,38.9c-0.2-0.5-0.4-1-0.6-1.5c-0.5-1.4-0.9-2.8-1.1-4.2
			c9.7,3.9,19.5,7.6,29.4,10.8c6.7,2.1,13.4,4,20.2,5.9C95.9,52.2,92.8,54.1,89.4,55.3 M69,4.9c6-1.9,12.4-2,18.5-0.8
			c0.5,0.1,1-0.1,1.3-0.4c2,0.3,4,1,5.8,2c3.2,1.9,5.3,4.9,6.5,8.4c1,2.7,1.9,5.6,2.7,8.5c-0.2,0.5,0,1.1,0.4,1.5
			c0.5,2.2,0.9,4.5,1.1,6.7c-0.5,0.5-0.6,1.4,0.1,1.9c0,2.1-0.2,4.2-0.7,6.3c-0.1,0.2-0.2,0.4-0.2,0.6c-0.3,1-0.7,2.1-1.1,3.1
			c-0.2,0.4-0.4,0.8-0.6,1.2c-4.8-1.2-9.6-2.4-14.4-4C83.2,38,78.1,36,72.9,34.1c-5.1-1.9-10.1-3.9-15.2-5.9c-2.8-1.1-5.7-2.1-8.5-3
			c0.8-3.6,2.4-7,4.8-9.9C57.9,10.3,63.1,6.7,69,4.9 M117.6,46.6c0.5,0.3,1.1,0.6,1.6,1c-1.2,0.4-2.9,0.1-4.1-0.1
			c-3.4-0.7-6.5-2.1-9.7-3.1c0.5-1,0.9-2.1,1.3-3.2C110.3,43.1,114,44.7,117.6,46.6 M122,47.2c-0.6-1.4-2.1-2.2-3.4-2.9
			c-3.7-2-7.6-3.7-11.3-5.6c0-0.2,0.1-0.4,0.1-0.6c0.3-1.4,0.4-2.8,0.5-4.2c7.8,4,16,7.1,22.7,12.8c1.4,1.1,3.1,2.5,3.8,4.2
			c0.2,0.5,0.2,0.8,0,1c-0.2,0.4-0.7,0.7-1.2,1c-1.9,0.8-4,0.8-6,0.8c-2.2,0-4.5-0.3-6.7-0.7c-4.7-0.9-9.2-2.3-13.7-3.7
			c-1.3-0.4-2.5-0.7-3.8-1.1c0.4-0.5,0.7-1.1,1.1-1.6c1.5,0.4,2.9,1,4.4,1.5c3.5,1.2,7.4,2.8,11.2,1.9C121,49.8,122.7,48.8,122,47.2
			 M156.3,51c-2.8-3.5-6.5-6.5-10.2-9.1c-7.5-5.3-16-9-24.2-13.2c-5-2.6-10-6-15.6-6.8c-0.4-1.6-0.9-3.3-1.5-4.9
			c-0.7-2.2-1.4-4.4-2.5-6.5C100.9,7.3,98.2,4.6,95,3c-3.4-1.7-7.2-2.3-11-2.2c-0.2,0-0.4,0.1-0.6,0.1c-7-0.6-14.1,0.4-20.4,3.7
			c-0.4,0.2-0.7,0.4-1.1,0.6c-0.2-0.3-0.5-0.4-0.9-0.5c-2.6-0.2-5.2-0.9-7.7-1.6c-2.6-0.7-5.2-1.3-7.9-1.7c-5.5-0.9-11-1.2-16.5-1.3
			c-5-0.1-10,0.2-14.9,1C9.4,1.7,3.6,3,1,7.1c-1.3,2-1.2,4.5-0.4,6.6c1.3,3.5,4.1,5.8,7.2,7.7c3.3,2,7,3.4,10.5,5
			c4.9,2.3,9.6,5,14.5,7.4c4.9,2.5,10.1,4.5,15.2,6.7c0.3,0.1,0.5,0.2,0.8,0.3c0.9,1.8,2,3.6,3.2,5.2c4.7,6.1,12,10.1,19.4,12
			c5.9,1.5,12.2,1.7,18,0c1.5,0.6,3,1.2,4.6,1.8c9.9,3.8,20.2,6.7,30.6,8.3c7.5,1.2,15.1,2,22.6,0.3c4.7-1,11.5-3.4,12.3-8.9
			C159.9,56.3,158.3,53.4,156.3,51"/>
		<path class="st1" d="M68.4,20.2c-0.7-0.7-1.4-1.2-2.3-1.3c-0.7-0.2-1.5-0.3-2,0.3c-0.1,0.1-0.1,0.2-0.2,0.3
			c-0.4,0.2-0.7,0.6-0.8,1.1c-0.1,0.9,0.2,1.6,1,2c0,0,0.1,0,0.1,0.1c0.2,0.3,0.5,0.5,0.7,0.5c0.6,0.1,1.3,0.4,1.9,0.1
			c0.6-0.3,1-0.8,1.5-1.3C68.9,21.5,68.9,20.7,68.4,20.2"/>
		<path class="st1" d="M77.2,11.4c-0.1-0.6-0.4-1.1-1-1.2c-1.5-0.4-3.1-0.1-4,1.2c-0.4,0.7-0.4,1.5,0,2.2c0.4,0.8,1.3,1.2,2.1,1.4
			c0.2,0.1,0.5,0.1,0.8,0c0.3,0,0.6-0.1,0.9-0.2C77.2,14.2,77.3,12.5,77.2,11.4"/>
		<path class="st1" d="M82.4,26.6c-1.5-1.3-3.6-0.8-4.9,0.5c-0.4,0.4-0.5,1.1-0.2,1.6c0.4,0.6,0.8,1,1.3,1.3c0.6,1.3,2.2,2.1,3.5,1
			C83.4,29.8,83.8,27.8,82.4,26.6"/>
		<path class="st1" d="M92.4,18c-0.4-0.8-0.9-1.3-1.6-1.7C90.3,16,89.7,15.8,89,16c0,0-0.1,0-0.1,0c-0.2,0-0.3,0-0.5,0
			c-0.9,0.1-1.6,0.8-2.2,1.4c-0.9,1,0.1,2.4,1.2,2.2c0.1,0.1,0.2,0.2,0.3,0.2c0.7,0.5,1.5,0.9,2.3,0.9c0.9,0,1.7-0.6,2.3-1.2
			C92.7,19.2,92.7,18.5,92.4,18"/>
		<path class="st1" d="M98.4,32.7c0-0.5-0.4-1.1-0.9-1.2c-0.3,0-0.5-0.1-0.7-0.1c-0.7-0.3-1.5-0.4-2.3-0.3c-0.5,0-0.9,0.3-1.1,0.7
			c-1,0.5-1.6,1.4-0.9,2.8c0.7,1.3,2.3,2.1,3.7,1.7C97.8,35.9,98.5,34.2,98.4,32.7"/>
		<path class="st1" d="M90.9,6.8c-0.1,0-0.1-0.1-0.2-0.1c0.3-1.1-1.2-2.3-2.2-1.3c-0.2,0.2-0.5,0.5-0.7,0.8c-0.4,0.1-0.8,0.2-1,0.6
			c-0.2,0.4-0.2,0.9,0,1.3c0.4,0.7,1,1.4,1.8,1.4c0.3,0,0.5-0.1,0.8-0.2c0.1,0,0.1-0.1,0.2-0.1c0.3,0,0.6-0.1,0.9-0.1
			C91.7,9,91.8,7.3,90.9,6.8"/>
		<path class="st1" d="M100.4,22.3c-0.1-0.5-0.5-0.7-0.9-0.9c-0.4-0.2-0.8-0.2-1.3-0.1c-0.1,0-0.2,0.1-0.3,0.1c0,0-0.1,0-0.1,0
			c-0.5,0-1.1,0.2-1.3,0.7c-0.2,0.2-0.3,0.4-0.4,0.6c-0.2,0.7,0.3,1.3,0.9,1.6c-0.2-0.1,0.1,0,0.1,0c0.1,0,0.2,0.1,0.2,0.1
			c0.1,0.1,0.2,0.1,0.3,0.2c0.3,0.1,0.5,0.3,0.8,0.3c0.1,0,0.2,0.1,0.3,0.1c1,0.4,2-0.9,1.5-1.8C100.4,22.9,100.5,22.6,100.4,22.3"
			/>
		<path class="st1" d="M56.4,18.7c-0.2-0.1-0.3-0.1-0.5-0.1c-0.1,0-0.1,0-0.2,0c-0.1,0-0.1,0-0.2,0c0,0-0.1,0-0.1,0l0,0l0,0
			c-0.1,0-0.2,0.1-0.3,0.1c0,0-0.1,0-0.1,0c-0.1,0-0.2,0-0.3,0c0,0-0.1,0-0.1,0l0,0l0,0l0,0c-0.1,0-0.1,0,0,0
			c-0.7,0.1-1.2,0.5-1.2,1.3c0,0.7,0.6,1.3,1.3,1.3c0.2,0,0.4,0,0.6,0c0.5,0.4,1.3,0.5,1.8-0.1c0.3-0.3,0.4-0.7,0.5-1.1
			C57.6,19.7,57.1,18.8,56.4,18.7"/>
		<path class="st1" d="M55.4,18.8c0,0,0.1,0,0.1,0C55.6,18.7,55.5,18.7,55.4,18.8"/>
		<path class="st1" d="M62.2,11.5C62,11.5,62,11.6,62,11.6C62.1,11.6,62.1,11.5,62.2,11.5L62.2,11.5z"/>
		<path class="st1" d="M65.6,11.1c-0.3-0.6-1-0.7-1.6-0.5l0,0c0,0-0.1,0-0.1,0c-0.1,0-0.2,0-0.3,0c-0.3,0-0.5,0.1-0.7,0.3
			c-0.2,0.1-0.3,0.2-0.4,0.4c-0.1,0-0.1,0.1-0.2,0.1l0,0c0,0,0,0,0,0c0,0-0.1,0.1-0.1,0.1c0,0-0.1,0.1-0.1,0
			c-0.4,0.4-0.5,1.1-0.2,1.6c0.1,0.1,0.1,0.2,0.2,0.2c0,0.2,0.1,0.4,0.2,0.5c0.3,0.4,0.9,0.8,1.5,0.6c0.5-0.2,0.9-0.5,1.2-0.9
			c0.2-0.3,0.4-0.6,0.5-0.9C65.8,12.4,65.9,11.6,65.6,11.1"/>
		<path class="st1" d="M71.9,27.9c-0.2-0.3-0.4-0.5-0.6-0.6c-0.4-0.2-0.7-0.2-1.1-0.1c-0.1,0-0.2,0.1-0.3,0.1c-0.5,0-1,0.4-1.2,0.9
			c-0.1,0.5,0.1,1.2,0.6,1.5c0,0.1,0.1,0.1,0.2,0.2c0,0,0.1,0.1,0.1,0.1c0.2,0.2,0.4,0.4,0.7,0.5c0.8,0.2,1.4-0.3,1.8-1
			C72.3,28.9,72.2,28.4,71.9,27.9"/>
		<path class="st1" d="M69.5,50.1h-0.8c-0.7,0-1.3,0.6-1.3,1.3c0,0.7,0.6,1.3,1.3,1.3h0.8c0.7,0,1.3-0.6,1.3-1.3
			C70.8,50.7,70.2,50.1,69.5,50.1"/>
	</g>
</g>
</svg>
