<!-- Generator: Adobe Illustrator 19.2.1, SVG Export Plug-In  -->
<svg version="1.1"
	 xmlns="http://www.w3.org/2000/svg" xmlns:xlink="http://www.w3.org/1999/xlink" xmlns:a="http://ns.adobe.com/AdobeSVGViewerExtensions/3.0/"
	 x="0px" y="0px" width="32.3px" height="32.2px" viewBox="0 0 32.3 32.2" style="enable-background:new 0 0 32.3 32.2;"
	 xml:space="preserve">
<style type="text/css">
	.st0{fill:#FFFFFF;}
</style>
<defs>
</defs>
<path class="st0" d="M32.3,7.6c0,4.2-3.4,7.6-7.7,7.6c-4.2,0-7.7-3.4-7.7-7.6C17,3.4,20.4,0,24.7,0C28.9,0,32.3,3.4,32.3,7.6"/>
<path class="st0" d="M15.3,7.6c0,4.2-3.4,7.6-7.7,7.6C3.4,15.2,0,11.8,0,7.6C0,3.4,3.4,0,7.7,0C11.9,0,15.3,3.4,15.3,7.6"/>
<path class="st0" d="M32.3,24.5c0,4.2-3.4,7.6-7.7,7.6c-4.2,0-7.7-3.4-7.7-7.6c0-4.2,3.4-7.6,7.7-7.6C28.9,16.9,32.3,20.3,32.3,24.5
	"/>
<path class="st0" d="M15.3,24.5c0,4.2-3.4,7.6-7.7,7.6c-4.2,0-7.7-3.4-7.7-7.6c0-4.2,3.4-7.6,7.7-7.6C11.9,16.9,15.3,20.3,15.3,24.5
	"/>
</svg>
