<!-- Generator: Adobe Illustrator 19.2.1, SVG Export Plug-In  -->
<svg version="1.1"
	 xmlns="http://www.w3.org/2000/svg" xmlns:xlink="http://www.w3.org/1999/xlink" xmlns:a="http://ns.adobe.com/AdobeSVGViewerExtensions/3.0/"
	 x="0px" y="0px" width="29.7px" height="36.5px" viewBox="0 0 29.7 36.5" style="enable-background:new 0 0 29.7 36.5;"
	 xml:space="preserve">
<style type="text/css">
	.st0{fill:#FFFFFF;}
</style>
<defs>
</defs>
<g>
	<g>
		<g>
			<g>
				<g>
					<g>
						<path class="st0" d="M28.7,16.6c0.1-0.1,0.3-0.3,0.2-0.3l-0.3,0.3L28.7,16.6z"/>
						<path class="st0" d="M28.9,15.8c-0.2,0.1-0.5,0.3-0.8,0.6c0.3-0.2,0.2-0.1,0.6-0.4c0.1,0,0,0.2-0.1,0.3c0.1-0.1,0,0.1,0.2,0
							c0.2-0.3,0.1-0.4-0.1-0.2C28.8,15.9,28.9,15.8,28.9,15.8z"/>
						<path class="st0" d="M25.4,11.3L25.4,11.3C25.4,11.3,25.4,11.3,25.4,11.3z"/>
						<path class="st0" d="M23,8.6C23,8.6,23.1,8.6,23,8.6C23.1,8.6,23,8.6,23,8.6z"/>
						<path class="st0" d="M22.9,7.8C22.9,7.9,22.9,7.9,22.9,7.8C22.9,7.8,23,7.8,22.9,7.8z"/>
						<path class="st0" d="M25.4,11.3l0-0.2C25.3,11.2,25.4,11.2,25.4,11.3z"/>
						<path class="st0" d="M27.7,16c0,0,0.1,0,0.1,0C27.7,15.9,27.7,15.9,27.7,16L27.7,16z"/>
						<path class="st0" d="M26.7,12.1L26.7,12.1c0.1,0,0.1,0,0.2-0.1L26.7,12.1z"/>
						<path class="st0" d="M27.6,12.9c0,0-0.3,0.2-0.4,0.3c0.1-0.1,0.2-0.1,0.2-0.1C27.5,13.1,27.5,13,27.6,12.9z"/>
						<path class="st0" d="M28.5,14.7L28.5,14.7C28.5,14.7,28.5,14.7,28.5,14.7z"/>
						<path class="st0" d="M26.2,11.5C26.2,11.4,26.2,11.4,26.2,11.5C26.2,11.4,26.2,11.4,26.2,11.5z"/>
						<path class="st0" d="M2.9,16.2C2.9,16.2,2.9,16.2,2.9,16.2C2.9,16.2,2.9,16.2,2.9,16.2z"/>
						<polygon class="st0" points="0.7,16 0.7,15.9 0.5,15.8 						"/>
						<path class="st0" d="M22.5,6.7L22.5,6.7C22.5,6.7,22.5,6.7,22.5,6.7z"/>
						<path class="st0" d="M13.3,1.3c0.3,0.2,0,0.6,0.3,0.8C13.6,1.9,13.6,1.3,13.3,1.3z"/>
						<path class="st0" d="M27.7,15.9C27.6,15.9,27.6,15.9,27.7,15.9C27.6,15.9,27.6,15.9,27.7,15.9z"/>
						<path class="st0" d="M13.7,2L13.7,2L13.7,2C13.7,2.1,13.7,2,13.7,2z"/>
						<path class="st0" d="M20.5,5.1c0,0-0.1,0.1-0.1,0.1C20.4,5.2,20.5,5.1,20.5,5.1z"/>
						<path class="st0" d="M21.5,6.8L21.5,6.8C21.5,6.8,21.5,6.8,21.5,6.8z"/>
						<path class="st0" d="M19.4,4.7C19.5,4.7,19.5,4.7,19.4,4.7C19.4,4.7,19.4,4.7,19.4,4.7C19.4,4.7,19.5,4.7,19.4,4.7z"/>
						<path class="st0" d="M18.7,4C18.7,4,18.7,4.1,18.7,4L18.7,4L18.7,4z"/>
						<path class="st0" d="M5,13.9c-0.1-0.1-0.2-0.1-0.3-0.2C4.9,13.9,4.9,14.1,5,13.9z"/>
						<path class="st0" d="M27.8,15.8c-0.1,0.1-0.1,0.1-0.1,0.1C27.7,15.9,27.7,15.9,27.8,15.8C27.7,15.9,27.8,15.8,27.8,15.8z"/>
						<path class="st0" d="M17.4,6.7l-0.1-0.2C17.3,6.6,17.4,6.7,17.4,6.7z"/>
						<path class="st0" d="M10.2,8.7L10.2,8.7C10.2,8.7,10.2,8.7,10.2,8.7z"/>
						<path class="st0" d="M16.9,6.3C17,6.2,17,6.1,17,6c0,0,0,0-0.1,0.1L16.9,6.3z"/>
						<path class="st0" d="M4.7,13.7L4.7,13.7L4.7,13.7z"/>
						<path class="st0" d="M4.6,15.1c0.1-0.1-0.3-0.4-0.4-0.6c0-0.2,0.3,0.2,0.5,0.3c0-0.2-0.3-0.5-0.2-0.6c0.1,0.1,0.1,0.1,0.1,0.1
							c-0.2-0.4,0.2-0.3,0-0.7c0,0,0.1,0,0.1,0.1c-0.2-0.2-0.4-0.3-0.5-0.4c0-0.1-0.1-0.3,0.1-0.1c0,0,0,0.1,0.1,0.2l0-0.1
							c0.4,0.3,0,0.2,0.3,0.4c0-0.2-0.1-0.6,0-0.6C5,13.3,4.6,13.3,5,13.5l-0.2,0c0.6,0.4-0.1,0,0.5,0.5c0.2-0.1,0-0.3,0.3-0.4
							c-0.1-0.2-0.3-0.2-0.4-0.5c-0.1-0.5,1,0.6,0.7,0c-0.2-0.2-0.5-0.7-0.2-0.6L5.9,13c0.2-0.1-0.4-0.6,0-0.5
							c0.1,0.2,0,0.2,0.1,0.3c0.4,0.2-0.1-0.3,0-0.4l0.3,0.3c0.1-0.2,0.1-0.6,0.2-0.9c0.1,0.1,0.1,0.2,0.3,0.3
							c0.1-0.4,0.5-0.4,0.9-0.5l-0.2-0.4c0,0,0.2,0.1,0.2,0.2c0.2,0-0.2-0.2-0.2-0.3c0-0.1,0.2,0.1,0.3,0.2
							c-0.1-0.4-0.1-0.9,0.4-0.8l0,0.1c0.2,0-0.4-0.7,0-0.6l0,0.1c0.4-0.2,0.4-0.7,1-0.5C8.8,9.2,9.6,9.6,9.1,9
							c0.4,0.1,0.5,0.3,0.9,0.2c0.1,0-0.3-0.4-0.2-0.5L10,9L9.8,8.6l0.4,0.3l0-0.1c0,0-0.2-0.1-0.3-0.2c0-0.2,0.4-0.1,0.6,0.1l0-0.5
							c0.1,0.1,0.1,0.2,0.1,0.3C10.5,8,11,8.7,10.8,8.4c-0.1,0-0.2-0.2-0.2-0.2c0.2,0.1,0.4,0,0.4-0.2l0.2,0.2
							c0.2-0.1,0.3-0.5,0.5-0.7c-0.2,0-0.5-0.4-0.5-0.5l0.3,0.3c-0.1-0.2-0.2,0-0.3-0.4c0.1,0,0.4,0.3,0.4,0.4l0-0.2
							c0.1,0.1,0.1,0.2,0.2,0.3c-0.1-0.2,0.5,0.1,0.2-0.2l0.1,0.1c0.2-0.2,0.2-0.4,0.3-0.6c-0.3-0.3-0.1-0.3-0.3-0.5
							c0.2,0,0.5,0,0.7-0.1c0-0.2-0.2-0.2-0.3-0.4c0.2,0.2,0.4,0.1,0.5,0.3c0.1-0.2,0.2-0.3,0.2-0.7c-0.1-0.1-0.2-0.1-0.3-0.2
							c0-0.1,0.2,0,0.3,0.1l0,0c-0.1-0.6,1.3,0.1,1-0.6l0,0l0-0.5c0.1-0.1,0.1,0.2,0.3,0.3c-0.2-0.5,0.1,0,0-0.4
							c0.3,0.4,0.2,0.4,0.2,0.3c0-0.1,0-0.3,0.1,0.1l0-0.3c0-0.3,0,0.2,0,0.2c0-0.2,0-0.3,0-0.4c0-0.1,0-0.1,0.1-0.2
							c0.1,0.1,0.1,0.7,0,0.9c0,0,0.7-1,0.4-0.5l-0.3,0.3c0.1-0.2,0.4,0,0.5,0.2c0.2,0.2,0.3,0.4,0.6,0.4c-0.1,0.1-0.2,0.1-0.2,0.1
							c-0.2,0.3,0.2,0.3,0.4,0.1c0,0.1-0.2,0.2-0.2,0.3c-0.1,0.2,0.4-0.1,0.3,0.1c0,0-0.1,0.1-0.1,0.1c0.1-0.1,0.2,0.2,0.4-0.1
							c0,0.2,0.3,0.1,0.3,0.4c0.3-0.2,0.1,0.3,0.5,0c-0.4,0.4-0.1,0.5,0.1,0.4c-0.1,0.1-0.1,0.2-0.3,0.3c0.1,0.1,0.2,0.1,0.4-0.1
							c-0.3,0.7,0.7-0.1,0.2,0.6c0.5,0,0.9,0.1,1.2,0.2c-0.4,0.4-0.3-0.2-0.7,0.2c0.4,0,0.9-0.2,1,0.1C19.5,8,19.2,8,19.2,8
							c0.4,0,0.4,0.5,0.8,0.4c0,0-0.1,0.1-0.2,0.1c0.1,0,0,0.1,0.2,0l-0.1,0c0.2-0.3,0.7-0.4,0.9-0.6c-0.6,0.5,0.1,0.3-0.7,0.9
							c0.1,0,0.2-0.1,0.3-0.2c0,0.1-0.1,0.2-0.2,0.3c0.2,0,0.4-0.2,0.5-0.1c-0.1,0.1-0.2,0.1-0.3,0.2c0.2-0.1,0.5-0.2,0.5,0
							c-0.1,0-0.1,0.1-0.1,0.1c0.2,0.1,0.8-0.2,0.8,0.2c-0.5,0.3-0.1,0.2-0.4,0.5l0.2,0l0.1-0.2c0.1,0.1,0.4-0.1,0.4,0.1l-0.2,0.1
							l0.2,0.1l0-0.2c0.3-0.1,0.4-0.4,0.4-0.2c-0.1,0,0.1,0.1-0.1,0.3l0,0c0.2-0.1,0.3-0.1,0.3,0c-0.1,0.1-0.4,0.4-0.5,0.4
							c0.3-0.2,0.3,0.1,0.7-0.1c-0.1,0.1-0.3,0.2-0.3,0.3l0.3-0.2c0,0.1-0.1,0.2-0.2,0.3c0.1,0.2,0.4-0.5,0.4-0.1c0,0-0.1,0-0.1,0.1
							c0.1,0.2,0.4,0.1,0.5,0.4c-0.3,0.4-0.2,0-0.4,0.3c0.3,0.1,0.8,0,0.9,0.3l0-0.1c0.5-0.5-0.1,0.4,0.2,0.3
							c-0.1,0-0.3,0.2-0.2,0.2c0.1,0.2,0.4,0.2,0.7,0.2l-0.1,0.1c0,0.2,0.1,0.3,0.2,0.4c0.1-0.1,0.2,0,0.3-0.2
							c-0.4,1,0.9,0.1,0.5,0.9c0,0-0.2,0-0.2,0.1l0.3,0.1c0.2-0.2,0.1-0.2,0.2-0.4c0.2-0.1,0.3-0.1,0.4-0.1
							c-0.2,0.1-0.3,0.3-0.4,0.5c0.1-0.1,0.1-0.1,0.2-0.2c-0.3,0.5,0.4-0.4,0.3,0l-0.1,0.1c0.1,0,0.3-0.1,0.3,0
							c-0.2,0.3-0.2,0.1-0.4,0.3c0.1,0.1,0.6-0.3,0.4,0c-0.1,0-0.2,0-0.3,0c-0.2,0.4-0.1,0.3-0.1,0.4l0,0l0,0.3l0-0.1
							c0.7-0.5,0.3,0.1,0.9-0.2c-0.5,0.3-0.3,0.2-0.5,0.5c0,0.1-0.1,0.3-0.2,0.3c0.3-0.2-0.1,0.3,0.3,0c-0.1,0.1,0.1,0.1-0.2,0.3
							c0.2,0,0.1-0.2,0.3-0.3c0.4-0.2-0.1,0.7,0.5,0.4c0.3,0,0.7-0.3,1-0.3c-0.1,0.2-0.4,0.3-0.4,0.3c-0.1,0.2,0,0.2,0.2,0.2
							c-0.1,0.1-0.1,0.1-0.2,0.3c0.1,0,0.4-0.3,0.3-0.1c-0.1,0.1-0.3,0.2-0.4,0.3c0.2,0,0.4-0.1,0.5-0.1C28.2,16,28,16,27.9,16.1
							c0.2,0,0.4,0.1,0.6-0.1l0-0.1c0,0-0.2,0.2-0.3,0.2c-0.3,0.1,0-0.2,0.1-0.3l0.1,0c0.5-0.6-0.3-0.1-0.4-0.3l0.4-0.3l-0.4,0.2
							c0.1-0.1,0.3-0.4,0.4-0.4c0.1-0.3-0.2,0.1-0.1-0.2c0,0,0-0.1,0.1-0.1l-0.2,0c0.1-0.1,0.3-0.3,0.2-0.2c0.1-0.4-0.5,0.1-0.3-0.3
							l0,0c-0.3-0.1-0.3,0.3-0.8,0.4l0.6-0.8l-0.3,0.3c0,0,0-0.1,0.1-0.2c-0.3,0.1-0.1,0.1-0.3,0.3c0.2-0.3-0.4-0.1,0.1-0.6
							c-0.2,0.2-0.1,0.3-0.3,0.3c0.4-0.5-0.2,0-0.1-0.3c0.3-0.2,0.2,0,0.4-0.3c-0.5,0.4-0.1-0.3-0.2-0.2c-0.3,0.3-0.3,0-0.5,0
							c0.1-0.1,0-0.4,0-0.6l0.1-0.1c-0.4,0.3-0.4,0.1-0.6,0.1c0.2-0.2,0.3-0.3,0.4-0.3l-0.1-0.1c-0.1,0.1-0.2,0.1-0.3,0.1l0.3-0.2
							c-0.1-0.1-0.5,0.1-0.5-0.2c-0.2,0.2-0.5,0.8-0.8,0.8c0.1-0.1,0.3-0.4,0.4-0.4c0,0-0.1,0.1-0.1,0L26,12c0-0.2-0.2,0.1-0.2,0.1
							c0.2-0.2,0.1-0.2,0.2-0.3c0,0,0,0.1,0.1,0.1c0-0.1,0-0.3,0.1-0.4c-0.1,0.1-0.2,0.2-0.3,0.2c-0.1-0.1,0.2-0.3,0.2-0.4
							c-0.2,0.1-0.1-0.1-0.4,0.2c0,0,0.1-0.2,0.2-0.2c-0.2,0.1-0.3-0.2-0.5,0.1l0,0c0,0,0,0,0,0l0,0l0,0c-0.4,0.1-0.2-0.5-0.5-0.6
							l0.1-0.1c-0.2,0-0.3-0.2-0.6-0.1c0,0,0.1-0.2,0.2-0.3c-0.1,0-0.3,0.1-0.2-0.2c0.2-0.1,0.1-0.2,0.2,0c0-0.2,0.1-0.3-0.3-0.2
							c0.3-0.2,0.2-0.4,0.1-0.3l-0.1,0.2c-0.1,0-0.1-0.1-0.1-0.2l0.3-0.3c0.2-0.6-1,0.2-0.6-0.5c-0.3,0.2,0,0.3-0.3,0.5
							c-0.1-0.1,0.3-0.7,0.2-0.7c0-0.3-0.6,0.3-0.6,0.1c-0.1,0.1-0.4,0.4-0.6,0.4c-0.1-0.1,0.3-0.6,0.5-0.6c0,0,0,0.1,0,0.1
							c0.1,0,0.2,0,0.2-0.2l-0.1,0.1c0.1-0.2-0.1-0.3,0.1-0.4c-0.2,0-0.2,0.1-0.2,0.3c0-0.3-0.2-0.2-0.2-0.4c0,0.1-0.1,0.2-0.2,0.2
							c-0.1-0.3-0.3,0.1-0.5,0c0.1-0.2,0.4-0.4,0.2-0.4c0-0.2,0.3-0.3,0.4-0.4c-0.3,0.1-0.1-0.4-0.1-0.5l0.1,0c-0.1,0-0.1,0-0.1,0
							l-0.2,0.3c0-0.1,0-0.1,0.1-0.2C22.4,7,22.3,7.3,22,7.4c0.1-0.2-0.3,0,0-0.3c0.1,0.3,0.3-0.3,0.4-0.2c-0.1,0-0.1,0-0.1-0.1
							c0,0,0.1-0.1,0.1-0.1c0.1-0.4-0.4,0.3-0.5,0.1c0.2-0.1,0.3-0.3,0.2-0.3c0.1,0.1-0.2,0.3-0.4,0.4c0-0.2-0.2,0-0.2-0.1l0,0.1
							C21.3,7,21.3,7,21.2,7c0.1-0.1,0.1,0,0.2-0.1c-0.4,0.2,0.1-0.5-0.2-0.4c0.1-0.2,0.3-0.3,0.3-0.4c-0.3,0.1,0.1-0.3-0.2-0.3
							C21.1,6,21.2,6,20.9,6.1l0.4,0l-0.4,0.2c0.1,0.1,0.3,0,0.3,0.1c-0.2,0.1-0.2,0.1-0.3,0.3c0.2-0.4-0.4,0-0.2-0.3L21,5.8
							c0.1-0.4-0.5,0-0.6-0.3l0,0.2c-0.2,0.2-0.1-0.1-0.3-0.1c0.2-0.2,0.2-0.3,0.3-0.4c-0.1,0.1-0.1-0.2-0.5,0.2l0.2-0.3
							c-0.1-0.2-0.7,0.3-0.8,0.1c0.2-0.2,0.3-0.3,0.5-0.4c0-0.1-0.1-0.1-0.2,0c0.1-0.1-0.4,0.1-0.3-0.1c-0.1,0.1-0.3,0.2-0.3,0.2
							c0,0,0.1-0.1,0.1-0.1c-0.1,0.1-0.2,0-0.4,0.3c0.4-0.7-0.5-0.4-0.1-1c-0.2,0-0.4-0.1-0.5-0.2c0.1,0,0.1-0.1,0.1-0.1
							c0-0.3-0.6,0.4-0.6,0.1C18,3.5,18,3.8,18,3.7c0.6-0.6-0.3-0.1,0-0.6l0.1,0c0.1-0.3-0.4,0-0.5-0.1c0,0,0.1,0,0.1-0.1
							C17.3,3.1,17,3,16.8,3c0.3-0.2,0.2-0.1,0.4-0.3c-0.1,0-0.4,0.4-0.5,0.4c0.1-0.2,0.1-0.4,0.3-0.7l0.2,0.1
							c0.2-0.4-0.2-0.2-0.2-0.3L17,2c-0.3-0.2-0.6,0.2-0.8,0l0,0.2c-0.3,0.4,0-0.4-0.3-0.1l0.2-0.6c-0.1,0-0.5,0.2-0.6,0.2
							c0.2-0.4,0.4-0.4,0.6-0.5c-0.1-0.1-0.3-0.3-0.4,0c0,0,0.1-0.1,0.1,0c-0.2,0.4-0.4,0.5-0.5,0.3c0.1-0.8-0.1-0.9-0.3-1.2
							c-0.1,0-0.2,0-0.3-0.3c-0.3,0.8-0.7,0.5-1.2,1c0.4,0.6-0.1,0.1,0.2,0.9c-0.1,0.1-0.1,0.1-0.1,0.1c0,0-0.5-0.2-0.5-0.2
							c-0.2-0.1,0-0.2-0.1-0.4c-0.3,0.2-0.3-0.2-0.6-0.2c0.2,0.2,0.2,0.4,0,0.5c0,0,0.1,0,0.2,0c0.1,0,0.2,0.1,0.2,0.1
							c0,0.3-0.2,0.2-0.4,0.2c-0.2,0-0.4-0.1-0.3,0.1l-0.1-0.2c0,0.2-0.3,0.3,0,0.9c-0.1,0-0.3-0.2-0.3-0.3c-0.3,0.2,0,1-0.5,0.9
							l-0.1-0.2c0,0.1,0.2,0.3,0,0.2c-0.1-0.1-0.1-0.2-0.1-0.1c0,0.1,0.1,0.3,0,0.3L11,3.5c-0.4,0,0,0.7,0,1
							c-0.4-0.4-0.7-0.4-0.9-0.3l-0.1-0.1C9.8,4.3,10,4.8,9.9,5.2C9.3,4.9,9.2,5.5,8.7,5.5c0.1,0,0.3,0.3,0.3,0.4
							c-0.1,0,0.1,0.4-0.2,0.1l0,0c-0.4-0.3-0.4-0.1-0.5,0l0.5,0.5C7.9,5.9,8.5,7.3,7.7,6.8c0.1,0.2,0,0.2,0.1,0.4L7.5,6.9
							C7.3,7,7.2,7,7.1,7.3L6.9,7.1c-0.1,0.1,0.6,0.9,0.5,1L7,7.7c-0.2,0.2-0.7,0-0.5,0.6C6.4,8.2,6.3,8.1,6.3,8.1
							c-0.1,0.1-0.6,0.1,0,0.6C6,8.3,6.1,8.8,6.1,9L5.9,8.8c0.2,0.4,0.3,0.5,0.3,0.7C6.1,9.5,6,9.3,6.1,9.3C5.8,9.3,6.2,9.6,6,9.6
							L5.9,9.4C5.7,9.5,5.8,9.6,6,9.8C6,10,5.7,9.9,5.5,9.7c0.1,0.2,0.3,0.4,0.1,0.4C5.5,10,5.5,9.9,5.5,9.9c-0.3,0,0.1,0.5-0.3,0.4
							C5.1,10.2,5,10.2,5,10.2C5.1,10,5.3,10,5.3,10C5,9.8,4.9,9.8,4.6,9.4c0.1,0.3,0.3,0.8,0.1,0.8c0,0-0.1,0-0.1-0.1l0,0
							c0,0,0,0,0,0.1c-0.1,0-0.1,0-0.2,0c-0.2-0.2-0.2,0-0.3,0.1c0.3,0.3,0.2,0.3,0.4,0.4c0,0,0,0,0-0.1c0,0,0,0,0,0l0,0
							c0,0,0.1-0.1,0.1-0.1c0.1,0.2,0.2,0.3,0,0.2C4.8,10.9,5,11.1,5,11.1c-0.4-0.3-0.8-0.3-1-0.5c0,0.3-0.3,0.5,0.1,1
							c0,0.1-0.2-0.1-0.3-0.1c0-0.1,0-0.1,0-0.2c0,0.2-0.2,0.3,0.1,0.7c-0.3,0-0.2-0.4-0.3-0.2l-0.1-0.1c-0.8-0.2,0.4,1.4-0.7,1
							c0.1,0,0.1,0,0.2,0.1c-0.7,0.1-0.5,1.1-1.4,1c-0.2,0,0,0.2,0.1,0.5L1.4,14l0.2,0.4c0.1,0.4-1-0.4-0.7,0.2l0.2,0.2
							c-0.1,0-0.1,0.3-0.3,0.1c0,0,0.2,0.2,0,0.1l-0.1-0.1l0.1,0.4c-0.2,0-0.6-0.6-0.8-0.4c0,0.1,0.2,0.6,0.3,0.7c0,0,0.2,0,0.3,0.2
							l0,0.1c0.4,0.4,0.8,0.9,1.3,1.1l-0.1-0.4L2,16.8l-0.1,0.1C2.2,17,2,16.8,2,16.7c0.1,0.1,0.2,0.2,0.3,0.2L2,16.3
							c0.2,0.2,0.3,0.4,0.4,0.4c-0.1-0.2-0.4-0.3-0.5-0.5c0.2,0.1,0.4,0.3,0.3,0.1c0.1,0.1,0.2,0.2,0.2,0.3
							c-0.1-0.2,0.1-0.2-0.1-0.5c0.3,0.2,0.1-0.3,0.5,0.1c-0.1-0.1-0.2-0.4-0.2-0.5c0.4,0.6,0.2-0.2,0.7,0.4c-0.4-0.5,0.1-0.5,0-0.8
							c0,0,0.1,0.1,0,0.1c0.1,0,0.3,0.1,0.4,0.1c-0.3-0.4-0.3-0.6-0.5-0.8c0.4,0.3,0.4,0.5,0.7,0.8c-0.3-0.3-0.1-0.4-0.4-0.7
							c0.3,0.1,0.2,0,0.5,0.3c-0.4-0.5,0-0.1-0.2-0.5c0.3,0.1,0.4,0.4,0.4,0.1C4.5,14.8,4.6,15.1,4.6,15.1z M6.4,11.7L6.4,11.7
							C6.4,11.8,6.3,11.8,6.4,11.7C6.3,11.8,6.4,11.8,6.4,11.7z M6.6,11.5c0,0-0.1,0-0.1,0.1c-0.1-0.1-0.2-0.2-0.2-0.2
							C6.4,11.5,6.5,11.5,6.6,11.5z M4.3,10.2c0-0.1,0.1,0,0.1,0c0,0,0,0,0,0.1l0,0C4.4,10.3,4.4,10.2,4.3,10.2z"/>
						<path class="st0" d="M4.6,10.6C4.6,10.6,4.6,10.6,4.6,10.6C4.7,10.6,4.7,10.7,4.6,10.6L4.6,10.6L4.6,10.6z"/>
						<path class="st0" d="M25.4,11.3L25.4,11.3C25.3,11.3,25.3,11.4,25.4,11.3C25.3,11.4,25.3,11.4,25.4,11.3z"/>
						<polygon class="st0" points="10.1,9 10,9 10,9 						"/>
						<path class="st0" d="M25.7,13.4C25.6,13.4,25.6,13.5,25.7,13.4C25.6,13.5,25.6,13.4,25.7,13.4z"/>
						<path class="st0" d="M26.1,14l0,0.2C26.1,14.1,26.1,14,26.1,14z"/>
						<path class="st0" d="M26.4,14.5c0,0,0.1-0.1,0.1-0.1l0,0L26.4,14.5z"/>
						<path class="st0" d="M19.8,8.5C19.8,8.5,19.8,8.5,19.8,8.5C19.7,8.5,19.7,8.5,19.8,8.5z"/>
						<path class="st0" d="M22.3,9.8c-0.1,0-0.1,0.1-0.2,0.1C22.1,9.9,22.1,9.9,22.3,9.8z"/>
						<polygon class="st0" points="17.4,6.7 17.4,6.7 17.4,6.7 						"/>
						<path class="st0" d="M22,9.8C22,9.9,22,9.9,22,9.8C22.1,9.8,22.1,9.8,22,9.8z"/>
						<path class="st0" d="M28,16.3L28,16.3C28,16.4,28,16.3,28,16.3L28,16.3z"/>
						<path class="st0" d="M28,16.3L28,16.3C28.1,16.3,28.1,16.3,28,16.3z"/>
						<path class="st0" d="M28.2,16.3l-0.1,0C28.1,16.3,28.1,16.4,28.2,16.3z"/>
						<path class="st0" d="M27.6,15.7L27.6,15.7C27.5,15.8,27.5,15.7,27.6,15.7z"/>
						<path class="st0" d="M27.4,15.6c0,0.1-0.1,0.3,0,0.3l0.1-0.1C27.3,15.9,27.6,15.4,27.4,15.6z"/>
						<path class="st0" d="M27.9,13.8l0.1,0.2c0.1-0.1,0.2-0.3,0.3-0.2C28.3,13.2,28,14,27.9,13.8z"/>
						<path class="st0" d="M27.6,13.2c0.1,0,0.1-0.1,0.2-0.2C27.7,13,27.6,13.1,27.6,13.2z"/>
						<path class="st0" d="M24.6,10.2l0.2-0.2C24.8,10,24.8,10.1,24.6,10.2z"/>
						<polygon class="st0" points="22.8,10.8 22.8,11 23,10.9 						"/>
						<polygon class="st0" points="24.2,8.8 24.2,8.8 24.1,8.8 						"/>
						<path class="st0" d="M19.1,3.9l-0.3,0.3C18.9,4.2,19.2,3.9,19.1,3.9z"/>
						<path class="st0" d="M16.4,1.8c0.1-0.2,0-0.5-0.1-0.3C16.3,1.6,16.3,1.8,16.4,1.8z"/>
						<polygon class="st0" points="8.3,6.1 8.3,6 8.3,6.2 						"/>
					</g>
				</g>
			</g>
		</g>
	</g>
	<g>
		<g>
			<g>
				<g>
					<g>
						<path class="st0" d="M14.1,26.5c0.1,0,0.4,0,0.3,0l-0.4,0L14.1,26.5z"/>
						<path class="st0" d="M14.9,26.2c-0.2,0-0.6-0.1-1-0.1c0.4,0,0.2,0,0.7,0.1c0.1,0-0.1,0.1-0.3,0.1c0.1,0-0.1,0.1,0.2,0.1
							c0.3,0,0.3-0.1,0.1-0.2C14.7,26.2,14.8,26.2,14.9,26.2z"/>
						<path class="st0" d="M15.6,22.9L15.6,22.9C15.6,22.9,15.6,22.9,15.6,22.9z"/>
						<path class="st0" d="M15.8,20.9C15.8,20.9,15.9,20.9,15.8,20.9C15.9,20.9,15.9,20.9,15.8,20.9z"/>
						<path class="st0" d="M16.3,20.5C16.3,20.5,16.3,20.5,16.3,20.5C16.3,20.5,16.3,20.5,16.3,20.5z"/>
						<path class="st0" d="M15.6,22.9l0.1-0.1C15.6,22.9,15.6,22.9,15.6,22.9z"/>
						<path class="st0" d="M13.9,25.8c0,0,0.1,0,0.1,0C14,25.8,14,25.8,13.9,25.8C13.9,25.8,13.9,25.8,13.9,25.8z"/>
						<path class="st0" d="M15.9,23.8L15.9,23.8c0,0,0.1,0,0.2,0L15.9,23.8z"/>
						<path class="st0" d="M16,24.5c0,0-0.3,0-0.5,0c0.1,0,0.2,0,0.2,0C15.8,24.5,15.9,24.5,16,24.5z"/>
						<path class="st0" d="M15.4,25.6L15.4,25.6C15.4,25.6,15.4,25.6,15.4,25.6z"/>
						<path class="st0" d="M16,23.3c0.1,0,0.1,0,0.1,0C16.1,23.3,16.1,23.3,16,23.3z"/>
						<path class="st0" d="M13.3,3.9C13.3,3.9,13.3,3.9,13.3,3.9C13.3,3.9,13.3,3.9,13.3,3.9z"/>
						<path class="st0" d="M15.1,3.1L15.1,3.1c0.1,0,0.2,0,0.2,0L15.1,3.1z"/>
						<path class="st0" d="M16.8,19.9C16.8,19.9,16.8,19.9,16.8,19.9C16.8,19.9,16.8,19.9,16.8,19.9z"/>
						<path class="st0" d="M16.5,14c-0.3,0.1-0.4-0.1-0.8,0C15.9,14,16.3,14.1,16.5,14z"/>
						<path class="st0" d="M13.9,25.8C13.9,25.8,13.9,25.7,13.9,25.8C13.9,25.7,13.9,25.8,13.9,25.8z"/>
						<path class="st0" d="M15.7,14C15.7,14,15.7,14,15.7,14L15.7,14C15.7,14,15.7,14,15.7,14z"/>
						<path class="st0" d="M16.5,18.4c-0.1,0-0.1,0-0.2,0C16.4,18.4,16.5,18.4,16.5,18.4z"/>
						<path class="st0" d="M16,19.5L16,19.5C16,19.5,16,19.5,16,19.5z"/>
						<path class="st0" d="M16,17.8C16.1,17.8,16.1,17.8,16,17.8C16,17.8,16,17.8,16,17.8C16.1,17.8,16.1,17.8,16,17.8z"/>
						<path class="st0" d="M16,17.2C16,17.2,16,17.2,16,17.2C16,17.2,16,17.3,16,17.2L16,17.2z"/>
						<path class="st0" d="M13.5,5.7c0.1,0,0.2,0,0.3,0C13.5,5.7,13.4,5.6,13.5,5.7z"/>
						<path class="st0" d="M14.1,25.8c-0.1,0-0.1,0-0.2,0c0,0,0,0,0,0C14,25.8,14.1,25.8,14.1,25.8z"/>
						<path class="st0" d="M13.2,17.8L13.2,17.8C13.2,17.7,13.2,17.8,13.2,17.8z"/>
						<path class="st0" d="M13.5,10L13.5,10C13.5,10,13.5,10,13.5,10z"/>
						<path class="st0" d="M13.2,17.4c0.1,0,0.2,0,0.3-0.1c0,0-0.1,0-0.1,0L13.2,17.4z"/>
						<path class="st0" d="M13.8,5.7C13.8,5.7,13.8,5.7,13.8,5.7C13.8,5.7,13.8,5.7,13.8,5.7z"/>
						<path class="st0" d="M12.9,5.1c0,0.1,0.5,0,0.7,0.1c0.1,0.1-0.4,0-0.6,0.1c0.1,0.1,0.6,0.1,0.5,0.2c-0.1,0-0.1,0-0.2,0
							c0.4,0.1,0,0.2,0.5,0.3c0,0-0.1,0-0.1,0c0.2,0,0.5,0,0.7,0c0,0,0.3,0.1,0,0.1c0,0-0.1,0-0.2,0l0.1,0c-0.4,0-0.2-0.1-0.5-0.1
							c0.1,0.1,0.5,0.2,0.4,0.2c-0.4,0-0.1-0.1-0.5-0.1l0.2-0.1c-0.7,0.1,0-0.1-0.7,0c-0.1,0.1,0.2,0.1,0.1,0.3c0.2,0,0.4,0,0.6,0
							c0.4,0.2-1.1,0.1-0.5,0.3c0.3,0,0.8,0,0.6,0.1l-0.5,0c0,0.1,0.7,0.1,0.4,0.2c-0.2,0-0.2-0.1-0.2-0.1c-0.4,0.1,0.3,0.1,0.3,0.1
							l-0.4,0c0.1,0.1,0.4,0.3,0.5,0.4c-0.1,0-0.3,0-0.4,0c0.2,0.2-0.1,0.4-0.3,0.6l0.4,0.1c0,0-0.2,0-0.2,0c-0.1,0.1,0.2,0,0.4,0
							c0,0-0.2,0.1-0.3,0c0.3,0.1,0.7,0.4,0.3,0.5l-0.1,0c-0.2,0.1,0.8,0.1,0.4,0.2l-0.1,0c-0.2,0.2,0.2,0.5-0.4,0.6
							c0.5,0-0.2,0.2,0.5,0.2c-0.4,0.1-0.5,0.1-0.8,0.3c0,0,0.5,0.1,0.6,0.1l-0.4,0l0.4,0.1l-0.5,0l0.1,0.1c0,0,0.2,0,0.3,0
							c0.2,0.1-0.3,0.2-0.5,0.2l0.3,0.2c-0.2,0-0.2,0-0.3-0.1c0.4,0.1-0.4,0,0,0.1c0.1,0,0.2,0,0.3,0c-0.2,0-0.2,0.2-0.1,0.2l-0.3,0
							c-0.1,0.1,0.1,0.3,0.1,0.5c0.1-0.1,0.6,0,0.6,0l-0.4,0c0.3,0,0.2-0.1,0.5,0c0,0.1-0.5,0-0.6,0l0.1,0.1c-0.1,0-0.2,0-0.4,0
							c0.3,0-0.4,0.1,0,0.2l-0.1,0c0,0.2,0.1,0.2,0.2,0.4c0.4,0,0.3,0.1,0.6,0.1c-0.1,0.1-0.4,0.2-0.4,0.3c0.2,0.1,0.3,0,0.5,0.1
							c-0.3,0-0.3,0.1-0.5,0.1c0.1,0.1,0.1,0.2,0.3,0.4c0.1,0,0.2,0,0.3,0c0.1,0-0.1,0.1-0.3,0.1l0,0c0.5,0.2-1,0.5-0.3,0.6l0,0
							l0.4,0.2c-0.1,0.1-0.2,0-0.5,0c0.6,0.2-0.1,0.3,0.3,0.4c-1,0.1,0.1,0.4-0.6,0.6l0.2,0c0.2,0-0.1,0-0.2,0.1c0.2,0,0.2,0,0.3,0
							c0.3,0.3-0.3,0.7-0.5,1.1c-0.1,0.1,1.2,0.1,0.6,0.2l-0.4,0c0.5,0.3,0,0.5,0.4,0.8c-0.1,0-0.2,0-0.2,0c-0.3,0.1,0,0.2,0.2,0.2
							c0,0-0.2,0-0.4,0C13,16.9,13.6,17,13.3,17c-0.1,0-0.1,0-0.1,0c0.2,0,0,0.2,0.3,0.1c-0.2,0.1,0.2,0.2-0.1,0.3
							c0.4,0.1-0.2,0.2,0.4,0.2c-0.6,0-0.5,0.2-0.2,0.2c-0.2,0-0.2,0.1-0.4,0c0,0.1,0.1,0.1,0.4,0.1c-0.7,0.1,0.6,0.3-0.3,0.3
							c0.3,0.2,0.5,0.4,0.7,0.6c-0.6,0-0.1-0.2-0.7-0.2c0.2,0.2,0.7,0.3,0.6,0.5c-0.1,0-0.3,0-0.4,0c0.2,0.2-0.1,0.3,0.3,0.5
							c-0.1,0-0.1,0-0.2,0c0,0-0.1,0.1,0.2,0.1l-0.1,0c0.4,0,0.8,0.1,1,0.1c-0.8-0.1-0.2,0.2-1.2,0.1c0.1,0,0.2,0,0.4,0
							c-0.1,0-0.2,0-0.4,0c0.1,0.1,0.4,0.1,0.4,0.2c-0.1,0-0.2,0-0.3,0c0.3,0.1,0.5,0.1,0.4,0.2c-0.1,0-0.2,0-0.2,0
							c0,0.1,0.7,0.2,0.4,0.4c-0.6,0-0.2,0.1-0.7,0.1l0.1,0.1l0.2,0c0,0.1,0.3,0.1,0.2,0.2L14,20.8l0.1,0.1l0.2-0.1
							c0.2,0.1,0.6,0,0.5,0.1c0,0,0,0.1-0.3,0.1c0,0,0,0,0,0c0.2,0,0.3,0.1,0.2,0.1c-0.2,0-0.5,0-0.6,0c0.4,0,0.1,0.2,0.5,0.2
							c-0.1,0-0.4,0-0.4,0l0.3,0c-0.1,0-0.2,0-0.4,0c-0.1,0.1,0.6,0,0.3,0.1c0,0-0.1,0-0.1,0c-0.1,0.1,0.2,0.2,0,0.4
							c-0.5,0-0.1-0.1-0.5-0.1c0.1,0.2,0.6,0.3,0.5,0.5l0.1,0c0.7,0-0.3,0.1,0,0.2c-0.1,0-0.4,0-0.3,0c-0.1,0.1,0.2,0.2,0.4,0.4
							l-0.2,0c-0.2,0.1-0.1,0.2-0.2,0.2c0.2,0,0.1,0.1,0.4,0c-1,0.2,0.5,0.4-0.3,0.6c0,0-0.2-0.1-0.2,0l0.2,0.2c0.3,0,0.2,0,0.4-0.1
							c0.2,0,0.3,0.1,0.3,0.1c-0.2-0.1-0.5,0-0.6,0c0.1,0,0.2,0,0.3,0c-0.5,0.1,0.6,0,0.2,0.1l-0.2,0c0.1,0,0.3,0.1,0.2,0.1
							c-0.3,0-0.2,0-0.4,0c0,0.1,0.7,0.1,0.3,0.2c-0.1,0-0.1-0.1-0.2-0.1c-0.4,0.1-0.3,0.1-0.4,0.1l0,0L14,24.4l0.1,0
							c0.9,0.1,0.2,0.2,0.8,0.3c-0.6-0.1-0.3,0-0.7,0c-0.1,0-0.2,0.1-0.3,0.1c0.3,0.1-0.2,0.1,0.2,0.2c-0.1,0,0,0.1-0.3,0
							c0.1,0.1,0.2,0,0.4,0c0.4,0.1-0.5,0.2,0.1,0.4c0.2,0.1,0.7,0.2,0.9,0.3c-0.2,0-0.5,0-0.5,0c-0.2,0.1-0.2,0.1,0,0.2
							c-0.1,0-0.2,0-0.3,0c0,0,0.5,0,0.3,0.1c-0.1,0-0.4,0-0.5,0c0.1,0.1,0.4,0.1,0.5,0.2c-0.2,0-0.3,0-0.5-0.1
							c0.1,0.1,0.2,0.2,0.5,0.2l0.1,0c0,0-0.3,0-0.4,0C14,26,14.4,26,14.5,26l0.1,0c0.7,0-0.1-0.2-0.1-0.3l0.5,0l-0.4-0.1
							c0.1,0,0.4,0,0.5,0c0.3-0.1-0.2-0.1,0.1-0.1c0,0,0.1,0,0.1,0l-0.2-0.1c0.1,0,0.4,0,0.3,0c0.3-0.1-0.4-0.2,0-0.2l0,0
							c-0.2-0.2-0.4,0-0.9-0.1l1-0.1l-0.4,0c0,0,0,0,0.2,0c-0.3-0.1-0.2,0-0.4,0c0.4-0.1-0.2-0.2,0.5-0.2c-0.3,0-0.2,0.1-0.4,0
							c0.7,0-0.1-0.1,0.2-0.2c0.3,0,0.2,0.1,0.5,0c-0.6,0,0.1-0.1,0-0.2c-0.5,0-0.2-0.1-0.4-0.2c0.2,0,0.3-0.2,0.4-0.3l0.1,0
							c-0.5,0-0.4-0.1-0.5-0.2c0.3,0,0.4,0,0.5,0.1l0-0.1c-0.2,0-0.2,0-0.3-0.1l0.4,0c0-0.1-0.4-0.2-0.2-0.3c-0.3,0-0.9,0.1-1.1,0
							c0.2,0,0.5,0,0.6,0c0,0-0.1,0-0.1-0.1l0.3,0c0.1-0.1-0.3,0-0.2-0.1c0.3,0,0.2,0,0.4,0c0,0-0.1,0,0,0.1c0,0,0.2-0.1,0.4-0.1
							c-0.1,0-0.3,0-0.4,0c0-0.1,0.3,0,0.4-0.1c-0.2,0,0-0.1-0.4-0.1c0,0,0.2,0,0.3,0c-0.2,0,0-0.2-0.5-0.2l0,0c0,0,0,0,0,0
							c0,0,0,0,0,0v0c-0.4-0.1,0.2-0.3,0.1-0.4l0.1,0c-0.1-0.1-0.1-0.2-0.4-0.3c0,0,0.2-0.1,0.4,0c-0.1-0.1-0.2-0.1,0-0.2
							c0.2,0.1,0.2,0,0.2,0.1c0.1-0.1,0.3-0.1,0-0.2c0.3,0,0.4-0.1,0.3-0.1l-0.2,0.1c0,0,0-0.1,0-0.1l0.4,0c0.5-0.2-0.9-0.3,0-0.4
							c-0.3,0-0.2,0.1-0.6,0.1c0.1-0.1,0.7-0.2,0.7-0.2c0.2-0.1-0.6-0.1-0.5-0.2c-0.2,0-0.6,0-0.7-0.1c0.1-0.1,0.6-0.1,0.8,0
							c0,0,0,0-0.1,0c0.1,0,0.1,0.1,0.3,0l-0.2,0c0.2,0,0.1-0.1,0.4-0.1c-0.1-0.1-0.3,0-0.3,0c0.2-0.1,0-0.2,0.2-0.3
							c-0.1,0-0.3,0-0.3,0c0.2-0.2-0.3-0.1-0.4-0.2c0.2-0.1,0.6,0,0.4-0.1c0.2-0.1,0.4,0,0.5,0c-0.3-0.1,0.2-0.2,0.2-0.2l0.1,0.1
							c-0.1,0-0.1-0.1-0.1-0.1l-0.3,0c0.1,0,0.1-0.1,0.2-0.1c-0.2,0-0.5,0-0.8,0c0.2,0-0.2-0.1,0.2-0.1c-0.1,0.1,0.4,0,0.5,0.1
							c0,0,0,0,0-0.1c0,0,0.1,0,0.1,0c0.4-0.1-0.5-0.1-0.5-0.2c0.2,0,0.4,0,0.4,0c0,0-0.4,0-0.6,0c0.2-0.1-0.1-0.1-0.1-0.1l-0.1,0
							c-0.2,0-0.2-0.1-0.3-0.1c0.2,0,0.1,0.1,0.2,0c-0.4-0.1,0.4-0.1,0.1-0.2c0.2,0,0.4,0,0.5,0c-0.3-0.1,0.3-0.1,0.1-0.2
							c-0.3,0-0.2,0-0.5,0l0.2,0.2L15.9,19c0,0.1,0.2,0.1,0.1,0.1c-0.3-0.1-0.2,0-0.4,0c0.5-0.1-0.3-0.1,0-0.2l0.8,0
							c0.3-0.1-0.4-0.2-0.2-0.4l-0.1,0c-0.3,0,0-0.1-0.2-0.1c0.3,0,0.3,0,0.5,0c-0.2,0,0-0.1-0.5-0.1l0.3-0.1
							c0.1-0.1-0.7-0.1-0.6-0.3c0.3,0,0.5,0,0.7,0.1c0,0,0-0.1-0.1-0.1c0.2,0-0.3-0.1-0.1-0.1c-0.1,0-0.4,0-0.4-0.1
							c0.1,0,0.1,0,0.1,0c-0.1,0-0.2-0.1-0.5,0c0.8-0.1-0.1-0.3,0.6-0.5c-0.1-0.1-0.2-0.2-0.2-0.3c0.1,0,0.1,0,0.1,0
							c0.2-0.1-0.7-0.1-0.5-0.2c0.4-0.1,0.2,0.1,0.4,0c0.8,0-0.1-0.2,0.4-0.2l0,0c0.3-0.1-0.3-0.2-0.3-0.3c0,0,0.1,0,0.1,0
							c-0.4-0.1-0.6-0.2-0.7-0.3c0.3,0,0.2,0,0.5,0c0,0-0.5,0-0.6-0.1c0.2,0,0.3-0.1,0.7-0.1l0,0.1c0.5,0,0-0.1,0.1-0.2l0.2,0
							c-0.1-0.1-0.6-0.1-0.5-0.3l-0.2,0c-0.5-0.1,0.3-0.1-0.1-0.1l0.5,0c-0.1-0.1-0.5-0.2-0.6-0.3c0.4,0.1,0.6,0.2,0.8,0.2
							c0-0.1,0-0.2-0.3-0.2c0,0,0.2,0,0.1,0.1c-0.4-0.1-0.6-0.1-0.6-0.2c1,0,0.2-0.3,1-0.3c-0.4-0.2,0.2-0.3,0.1-0.6
							c-0.8,0.1,0-0.1-0.8,0c-0.1,0,0-0.1,0-0.1l0.5-0.1c0.2,0,0.2,0,0.4,0c0.1-0.1,0.3,0,0.5-0.1c-0.3,0-0.4,0-0.3-0.1l-0.4,0.1
							c-0.4-0.1,0.7-0.1,0.2-0.3l0.2,0c-0.1-0.1,0-0.3-0.6-0.4c0.1,0,0.3,0,0.4,0c0.1-0.2-0.7-0.4-0.3-0.5l0.2,0
							c-0.1,0-0.4-0.1-0.2-0.1c0.1,0,0.2,0,0.2,0c-0.1,0-0.3-0.1-0.2-0.1l0.2,0c0.3-0.2-0.5-0.3-0.7-0.4c0.6,0,0.8-0.1,0.8-0.2
							l0.1,0c0.1-0.2-0.5-0.3-0.7-0.5c0.6-0.1,0.3-0.4,0.6-0.6c-0.1,0-0.4,0-0.5,0c0.1,0-0.4-0.1,0.1-0.1l0,0c0.5,0,0.4-0.1,0.4-0.2
							l-0.7,0c1-0.2-0.4-0.5,0.5-0.6c-0.2,0-0.2-0.1-0.3-0.1l0.4,0c0.1-0.1,0.1-0.2,0.1-0.3l0.3,0c0-0.1-1.1-0.1-1.1-0.2l0.5,0
							c0-0.2,0.5-0.3,0-0.5c0.1,0,0.2,0,0.3,0c0-0.1,0.4-0.3-0.4-0.3c0.5,0,0-0.2-0.2-0.2l0.4,0C16,8.1,15.9,8.1,15.8,8
							c0,0,0.3,0,0.2,0c0.2-0.1-0.3-0.1-0.1-0.2l0.2,0c0-0.1-0.1-0.1-0.4-0.1c-0.1,0,0.1-0.1,0.4-0.2c-0.2,0-0.5-0.1-0.4-0.1
							c0.1,0,0.2,0,0.2,0c0.2-0.1-0.4-0.2-0.1-0.3c0.1,0,0.2,0,0.2,0c0,0.1,0,0.2-0.1,0.2c0.3,0,0.4-0.1,0.8,0
							c-0.3-0.1-0.8-0.2-0.6-0.3c0,0,0.1,0,0.1,0l0,0c0,0,0,0-0.1-0.1c0.1,0,0.1,0,0.1-0.1c0.3,0,0.1-0.1,0.2-0.1
							c-0.4,0-0.3-0.1-0.6,0c0,0,0,0,0.1,0c0,0,0,0,0,0c0,0,0,0,0,0c0,0,0,0.1,0,0.1C15.9,7,15.8,7,16,6.9c-0.2,0-0.5,0-0.6-0.1
							c0.5-0.1,0.8-0.2,1.1-0.2c-0.2-0.1-0.1-0.3-0.8-0.4c-0.1,0,0.2,0,0.3-0.1c0.1,0,0.1,0,0.2,0.1c-0.2-0.1-0.1-0.2-0.5-0.2
							C15.8,6,16,6.1,15.9,6l0.1,0c0.8-0.2-1.2-0.4-0.2-0.7c-0.1,0-0.1,0-0.2,0c0.4-0.3-0.4-0.6,0.3-1c0.1-0.1-0.2-0.1-0.4-0.2
							l0.4,0l-0.5-0.1c-0.3-0.1,1-0.2,0.3-0.4l-0.3,0c0-0.1-0.2-0.2,0.1-0.2c0,0-0.3,0-0.1,0l0.2,0l-0.3-0.1c0.1-0.1,0.8,0,0.9-0.1
							c-0.1-0.1-0.6-0.2-0.7-0.2c0,0-0.1,0.1-0.3,0.1l-0.1-0.1c-0.6,0-1.2-0.1-1.6,0.1l0.4,0.1l-0.3,0l0-0.1c-0.3,0,0,0.1,0.1,0.1
							c-0.2,0-0.3,0-0.3,0l0.6,0.1c-0.2,0-0.5,0-0.6,0c0.3,0,0.5,0,0.7,0c-0.3,0-0.5,0-0.3,0.1c-0.2,0-0.3,0-0.3,0
							c0.2,0,0.1,0.1,0.4,0.2c-0.3,0,0.1,0.2-0.5,0.2c0.1,0,0.4,0.1,0.5,0.1c-0.7-0.1,0,0.2-0.8,0.1c0.6,0.1,0.3,0.2,0.6,0.3
							c0,0-0.1,0-0.1,0c-0.1,0.1-0.2,0.1-0.4,0.1c0.5,0,0.6,0.1,0.9,0.1c-0.5,0.1-0.6,0-1.1,0c0.4,0,0.4,0.1,0.8,0.1
							c-0.3,0.1-0.1,0-0.6,0.1c0.6,0,0.1,0.1,0.5,0.1c-0.3,0.1-0.6,0-0.4,0.1C13.2,5.1,12.9,5.1,12.9,5.1z M14,7.2
							C14,7.2,14,7.2,14,7.2C14,7.1,14,7.1,14,7.2C14,7.1,14,7.1,14,7.2z M14,7.3C14,7.3,14,7.3,14,7.3c0.1-0.1,0.3-0.1,0.3-0.1
							C14.2,7.3,14.1,7.3,14,7.3z M16.5,7C16.6,7,16.5,7,16.5,7c-0.1,0-0.1,0-0.1,0c0,0,0,0,0,0C16.4,6.9,16.5,7,16.5,7z"/>
						<path class="st0" d="M16.1,6.9C16.1,6.9,16,6.9,16.1,6.9c-0.1,0-0.1,0-0.1,0C16,6.9,16,6.9,16.1,6.9
							C16.1,6.9,16.1,6.9,16.1,6.9z"/>
						<path class="st0" d="M15.5,22.9L15.5,22.9C15.5,22.9,15.5,22.9,15.5,22.9C15.5,22.9,15.5,22.9,15.5,22.9z"/>
						<polygon class="st0" points="13.3,9.8 13.4,9.8 13.3,9.8 						"/>
						<path class="st0" d="M14.3,23.9C14.3,23.9,14.2,23.9,14.3,23.9C14.2,23.9,14.3,23.9,14.3,23.9z"/>
						<path class="st0" d="M14.2,24.3l-0.1,0.1C14.1,24.4,14.2,24.4,14.2,24.3z"/>
						<path class="st0" d="M14,24.7c0.1,0,0.1,0,0.2,0c0,0,0,0,0,0L14,24.7z"/>
						<path class="st0" d="M13.6,19.5C13.6,19.5,13.6,19.5,13.6,19.5C13.5,19.5,13.5,19.5,13.6,19.5z"/>
						<path class="st0" d="M14.4,21.1c-0.1,0-0.1,0-0.2,0C14.2,21,14.2,21,14.4,21.1z"/>
						<polygon class="st0" points="13.2,17.8 13.2,17.8 13.2,17.8 						"/>
						<path class="st0" d="M14.3,20.9C14.2,21,14.2,21,14.3,20.9C14.3,21,14.3,21,14.3,20.9z"/>
						<path class="st0" d="M13.9,26.1L13.9,26.1C13.9,26.1,13.9,26.1,13.9,26.1L13.9,26.1z"/>
						<path class="st0" d="M13.9,26.1L13.9,26.1C13.9,26.1,13.9,26.1,13.9,26.1z"/>
						<path class="st0" d="M14,26.1L14,26.1C13.9,26.1,13.9,26.1,14,26.1z"/>
						<path class="st0" d="M14,25.6l-0.1,0C13.9,25.6,14,25.6,14,25.6z"/>
						<path class="st0" d="M14,25.5c0,0-0.3,0.1-0.2,0.1l0.1,0C13.7,25.6,14.2,25.5,14,25.5z"/>
						<path class="st0" d="M15.6,25l-0.1,0.1c0.1,0,0.3,0,0.4,0C16.3,24.9,15.6,25.1,15.6,25z"/>
						<path class="st0" d="M15.8,24.6c0.1,0.1,0.2,0,0.3,0C16,24.6,15.9,24.6,15.8,24.6z"/>
						<path class="st0" d="M15.8,22.2l0.3,0C16.1,22.1,16,22.2,15.8,22.2z"/>
						<polygon class="st0" points="14.1,21.7 13.9,21.8 14.2,21.8 						"/>
						<polygon class="st0" points="16.5,21.4 16.5,21.5 16.4,21.4 						"/>
						<path class="st0" d="M16.4,17.3l-0.4,0C16,17.4,16.5,17.4,16.4,17.3z"/>
						<path class="st0" d="M15.9,15.6c0.2,0,0.3-0.1,0.1-0.1C16,15.5,15.9,15.5,15.9,15.6z"/>
						<polygon class="st0" points="16.6,10.2 16.7,10.3 16.6,10.2 						"/>
					</g>
				</g>
			</g>
		</g>
	</g>
	<g>
		<g>
			<g>
				<g>
					<g>
						<path class="st0" d="M0.8,33c0,0.1,0,0.4,0,0.4l0-0.5L0.8,33z"/>
						<path class="st0" d="M1.1,33.9c0-0.3,0.1-0.7,0.1-1.2c0,0.5-0.1,0.3-0.1,0.9C1,33.7,1,33.5,1,33.3c0,0.1-0.1-0.1-0.1,0.2
							C1,33.9,1,33.9,1.1,33.6C1.1,33.7,1.1,33.8,1.1,33.9z"/>
						<path class="st0" d="M5.1,34.7L5.1,34.7C5.1,34.7,5.1,34.7,5.1,34.7z"/>
						<path class="st0" d="M7.6,35c0,0,0,0.1,0,0.1C7.6,35.1,7.6,35.1,7.6,35z"/>
						<path class="st0" d="M8,35.6C8,35.6,8,35.6,8,35.6C8,35.6,8,35.6,8,35.6z"/>
						<path class="st0" d="M5.1,34.7l0.1,0.2C5.2,34.7,5.1,34.8,5.1,34.7z"/>
						<path class="st0" d="M1.6,32.7c0,0,0,0.1,0,0.1C1.6,32.8,1.6,32.8,1.6,32.7C1.6,32.7,1.6,32.7,1.6,32.7z"/>
						<path class="st0" d="M4,35.2L4,35.2c0,0.1,0,0.1,0,0.2L4,35.2z"/>
						<path class="st0" d="M3.2,35.2c0,0,0-0.4,0-0.6c0,0.2,0,0.3,0,0.3C3.2,35,3.2,35.1,3.2,35.2z"/>
						<path class="st0" d="M1.8,34.5L1.8,34.5C1.8,34.5,1.8,34.5,1.8,34.5z"/>
						<path class="st0" d="M4.6,35.2c0,0.1,0,0.1,0,0.2C4.6,35.3,4.6,35.3,4.6,35.2z"/>
						<path class="st0" d="M28.2,31.9C28.2,32,28.2,32,28.2,31.9C28.2,32,28.2,31.9,28.2,31.9z"/>
						<path class="st0" d="M29.2,34.1L29.2,34.1c0,0.1,0,0.2,0,0.3L29.2,34.1z"/>
						<path class="st0" d="M8.8,36.2C8.8,36.1,8.8,36.1,8.8,36.2C8.8,36.2,8.8,36.2,8.8,36.2z"/>
						<path class="st0" d="M16,35.8c-0.1-0.4,0.1-0.5,0-0.9C16,35.1,15.9,35.6,16,35.8z"/>
						<path class="st0" d="M1.7,32.7C1.7,32.7,1.7,32.7,1.7,32.7C1.7,32.7,1.7,32.7,1.7,32.7z"/>
						<path class="st0" d="M16,34.9C16,34.9,16,34.9,16,34.9L16,34.9C16,34.9,16,34.9,16,34.9z"/>
						<path class="st0" d="M10.6,35.9c0-0.1,0-0.1,0-0.2C10.6,35.7,10.6,35.8,10.6,35.9z"/>
						<path class="st0" d="M9.3,35.3L9.3,35.3C9.3,35.3,9.3,35.3,9.3,35.3z"/>
						<path class="st0" d="M11.3,35.3C11.3,35.3,11.3,35.4,11.3,35.3C11.3,35.3,11.3,35.3,11.3,35.3C11.3,35.3,11.3,35.3,11.3,35.3z
							"/>
						<path class="st0" d="M12,35.3C12,35.2,12,35.2,12,35.3C12,35.2,12,35.2,12,35.3L12,35.3z"/>
						<path class="st0" d="M26,32.1c0,0.1,0,0.3,0,0.4C26,32.2,26.1,32.1,26,32.1z"/>
						<path class="st0" d="M1.6,32.9c0-0.1,0-0.2,0-0.2c0,0,0,0,0,0C1.6,32.8,1.6,32.9,1.6,32.9z"/>
						<path class="st0" d="M11.3,31.8l0.1,0.1C11.4,31.8,11.4,31.8,11.3,31.8z"/>
						<path class="st0" d="M20.8,32.2L20.8,32.2C20.8,32.1,20.8,32.2,20.8,32.2z"/>
						<path class="st0" d="M11.8,31.8c0,0.2,0,0.2,0.1,0.3c0,0,0-0.1,0-0.1L11.8,31.8z"/>
						<path class="st0" d="M26,32.5C26,32.5,26,32.5,26,32.5C26,32.5,26,32.5,26,32.5z"/>
						<path class="st0" d="M26.8,31.5c-0.1,0-0.1,0.6-0.1,0.9c-0.1,0.2-0.1-0.4-0.1-0.7c-0.1,0.2-0.1,0.7-0.2,0.7c0-0.1,0-0.1,0-0.2
							c-0.1,0.5-0.3,0-0.4,0.6c0-0.1,0-0.1,0-0.1c0,0.3,0,0.6,0,0.8c0,0-0.1,0.4-0.1,0c0,0,0-0.1,0-0.3l-0.1,0.2
							c0-0.5,0.1-0.2,0.1-0.6c-0.1,0.2-0.2,0.6-0.3,0.5c0-0.5,0.2-0.2,0.1-0.7l0.1,0.2c-0.1-0.8,0.1,0.1,0-0.8
							c-0.2-0.2-0.2,0.3-0.3,0.1c0,0.3,0,0.4,0,0.7c-0.2,0.5-0.2-1.3-0.3-0.6c0,0.4-0.1,1-0.2,0.7l0-0.6c-0.2-0.1-0.1,0.9-0.2,0.5
							c0-0.2,0.1-0.2,0.1-0.3c-0.1-0.5-0.1,0.3-0.2,0.3l0-0.5c-0.2,0.1-0.3,0.5-0.5,0.6c0-0.2,0-0.3,0-0.5c-0.2,0.3-0.5-0.1-0.7-0.4
							l-0.1,0.5c0,0,0-0.2,0-0.3c-0.1-0.2,0,0.3,0,0.5c0,0-0.1-0.3,0-0.4c-0.1,0.4-0.4,0.8-0.6,0.3l0-0.1c-0.1-0.2-0.1,0.9-0.3,0.5
							l0-0.1c-0.3-0.2-0.6,0.2-0.8-0.5c0,0.7-0.3-0.3-0.3,0.6c-0.2-0.5-0.1-0.6-0.3-0.9c-0.1,0-0.1,0.6-0.2,0.7l0-0.5L21,32.6
							L20.9,32l-0.1,0.1c0,0,0.1,0.2,0.1,0.4c-0.1,0.2-0.3-0.3-0.3-0.6l-0.2,0.4c0-0.2,0-0.3,0.1-0.4c-0.1,0.5,0-0.5-0.1-0.1
							c0,0.1,0,0.3,0,0.4C20.3,32,20.1,32,20,32.1l0-0.3c-0.2-0.1-0.4,0.2-0.6,0.2c0.1,0.2,0.1,0.7,0,0.8l0-0.5c0,0.3,0.1,0.2,0,0.6
							c-0.1-0.1-0.1-0.6,0-0.7l-0.1,0.2c0-0.2,0-0.2,0-0.4c0,0.3-0.2-0.5-0.2,0l0-0.2c-0.2,0-0.3,0.2-0.5,0.2c0,0.4-0.1,0.3-0.1,0.7
							c-0.1-0.1-0.3-0.5-0.4-0.4c-0.1,0.2,0,0.4-0.1,0.6c0-0.4-0.2-0.4-0.1-0.7c-0.2,0.1-0.2,0.1-0.4,0.4c0,0.2,0.1,0.2,0,0.4
							c0,0.1-0.1-0.2-0.1-0.4l0,0c-0.3,0.6-0.6-1.2-0.8-0.3l0,0l-0.2,0.4c-0.1-0.1,0.1-0.3,0-0.6c-0.2,0.7-0.4-0.1-0.5,0.3
							c-0.1-1.2-0.5,0.1-0.7-0.7l0,0.3c0,0.3-0.1-0.2-0.1-0.2c0,0.2,0.1,0.3,0,0.4c-0.4,0.3-0.9-0.4-1.3-0.7
							c-0.2-0.1-0.1,1.4-0.3,0.8l0.1-0.5c-0.3,0.6-0.6,0-1,0.5c0-0.1,0-0.3,0-0.3c-0.1-0.4-0.2,0-0.2,0.3c0,0,0-0.3,0-0.4
							c-0.1-0.2-0.2,0.5-0.2,0.1c0-0.1,0-0.1,0-0.2c0,0.2-0.2,0-0.2,0.4c-0.1-0.2-0.2,0.2-0.3-0.1c-0.1,0.5-0.2-0.2-0.2,0.5
							c0-0.7-0.2-0.6-0.3-0.2c0-0.2-0.1-0.2,0-0.5c-0.1,0-0.2,0.1-0.1,0.5c-0.2-0.8-0.3,0.7-0.4-0.4c-0.3,0.4-0.5,0.6-0.7,0.8
							c0-0.7,0.2-0.1,0.2-0.8c-0.2,0.3-0.3,0.9-0.5,0.7c-0.1-0.1,0-0.3,0-0.4c-0.2,0.3-0.4-0.1-0.6,0.3c0-0.1,0-0.1,0-0.2
							c0,0-0.1-0.1-0.1,0.2l0-0.1c0.1,0.5-0.1,1-0.2,1.2c0.1-0.9-0.2-0.2-0.1-1.4c0,0.1-0.1,0.2,0,0.4c0-0.1,0-0.2,0-0.4
							c-0.1,0.2-0.1,0.5-0.2,0.5c0-0.2,0-0.2,0-0.4c-0.1,0.3-0.1,0.6-0.2,0.5c0-0.1,0-0.2,0-0.2c-0.2,0-0.3,0.8-0.5,0.5
							c0.1-0.7-0.1-0.2-0.1-0.8l-0.1,0.2l0,0.3c-0.1,0-0.2,0.4-0.2,0.2l0.1-0.2l-0.2,0.1l0.1,0.2c-0.1,0.3,0,0.7-0.1,0.6
							c0-0.1-0.1,0-0.1-0.4c0,0,0,0,0,0c0,0.2-0.1,0.4-0.2,0.2c0-0.2,0-0.6,0-0.8c0,0.5-0.2,0.1-0.3,0.7C7,33.3,7,33,7,33l0,0.4
							c0-0.1,0-0.2,0-0.4c-0.1-0.1,0,0.7-0.1,0.4c0,0,0-0.1,0-0.2c-0.2-0.2-0.3,0.3-0.4,0.1c0-0.6,0.1-0.1,0.1-0.6
							c-0.2,0.1-0.4,0.7-0.6,0.6l0,0.1c0,0.8-0.1-0.4-0.2,0c0-0.1,0-0.5,0-0.4c-0.1-0.1-0.3,0.2-0.5,0.5l0-0.2
							C5.1,32.9,5,33,4.9,32.9c0,0.2-0.1,0.2,0,0.5c-0.3-1.2-0.5,0.7-0.7-0.4c0,0,0.1-0.2,0-0.2L4,33c0,0.4,0,0.2,0.1,0.5
							c0,0.2-0.1,0.4-0.1,0.4c0.1-0.2,0-0.6,0-0.8c0,0.1,0,0.2,0,0.3c-0.1-0.6,0,0.7-0.2,0.3l0-0.2c-0.1,0.1-0.1,0.3-0.2,0.3
							c0-0.4,0.1-0.2,0.1-0.5c-0.1,0-0.2,0.8-0.2,0.4c0-0.1,0.1-0.1,0.1-0.2C3.5,33,3.4,33.1,3.4,33l0,0l-0.1-0.2l0,0.1
							c-0.1,1.1-0.2,0.2-0.3,0.9c0.1-0.7,0-0.4,0-0.9c0-0.1-0.1-0.3-0.1-0.4c-0.1,0.4-0.1-0.3-0.2,0.3c0-0.2-0.1,0-0.1-0.4
							c-0.1,0.1,0,0.3,0,0.5c-0.1,0.5-0.3-0.6-0.5,0.1C2,33.3,2,33.8,1.9,34.1c0-0.2,0-0.6,0-0.6c-0.1-0.2-0.1-0.2-0.2,0
							c0-0.1,0-0.2,0-0.4c-0.1,0,0,0.6-0.1,0.3c0-0.2,0-0.4,0.1-0.6c-0.1,0.1-0.1,0.4-0.2,0.6c0-0.3,0-0.4,0.1-0.6
							c-0.1,0.1-0.2,0.2-0.2,0.7l0.1,0.2c0,0,0-0.4,0-0.4c0.1-0.3,0.1,0.1,0.1,0.3l-0.1,0.1c0.1,0.9,0.2-0.1,0.3-0.1l0,0.7l0.1-0.5
							c0,0.2,0,0.5,0,0.6c0.1,0.3,0.1-0.2,0.1,0.1c0,0.1,0,0.1,0,0.1l0.1-0.2c0,0.1,0,0.5,0,0.4c0.1,0.4,0.2-0.5,0.3,0l0,0
							c0.2-0.2,0-0.5,0.2-1l0.1,1.2l0-0.5c0,0,0.1,0.1,0,0.2c0.1-0.3,0-0.2,0-0.5c0.1,0.4,0.3-0.2,0.3,0.6c0-0.4-0.1-0.3,0-0.5
							c0,0.8,0.1-0.1,0.2,0.2c0,0.4-0.1,0.2,0,0.6c0.1-0.7,0.2,0.2,0.2,0c0-0.6,0.2-0.2,0.3-0.4c0,0.2,0.2,0.3,0.3,0.5l0,0.1
							c0-0.6,0.1-0.5,0.2-0.6c0,0.3,0,0.5-0.1,0.6l0.1,0c0-0.2,0-0.3,0.1-0.3l0,0.4c0.1,0,0.2-0.5,0.3-0.2c0-0.4-0.1-1.1,0-1.4
							c0,0.2,0,0.6,0,0.7c0,0,0-0.2,0.1-0.1l-0.1,0.4c0.1,0.2,0-0.3,0.1-0.3c0,0.3,0,0.2,0,0.5c0,0,0-0.1-0.1,0
							c0.1,0.1,0.1,0.2,0.1,0.5c0-0.2,0-0.4,0-0.5c0.1,0,0,0.4,0.1,0.5c0-0.2,0.1,0,0.1-0.5c0,0,0,0.2,0,0.3
							c0.1-0.2,0.2-0.1,0.2-0.6l0,0c0,0,0,0,0,0c0,0,0,0,0,0h0c0.2-0.5,0.4,0.3,0.5,0.1l0,0.2c0.1-0.2,0.2-0.1,0.3-0.4
							c0,0,0.1,0.3,0.1,0.5c0.1-0.1,0.1-0.3,0.2,0c-0.1,0.3,0,0.2-0.1,0.2c0.1,0.1,0.1,0.4,0.2,0c0,0.4,0.1,0.5,0.1,0.4l-0.1-0.3
							c0.1-0.1,0.1,0,0.2,0l0,0.5c0.2,0.6,0.4-1.1,0.5,0c0.1-0.4-0.1-0.3-0.1-0.7c0.1,0.1,0.2,0.8,0.2,0.8C7.4,36,7.3,35,7.5,35.2
							c0-0.2,0-0.7,0.1-0.9c0.1,0.1,0.1,0.8,0.1,0.9c0,0,0,0,0-0.1c0,0.1-0.1,0.1,0,0.3l0-0.2c0,0.2,0.2,0.2,0.2,0.5
							c0.1-0.2,0-0.3,0-0.4c0.1,0.3,0.2,0,0.3,0.2c0-0.1,0-0.3,0-0.3c0.2,0.2,0.1-0.4,0.2-0.4c0.1,0.3,0,0.7,0.1,0.4
							c0.1,0.2,0,0.5,0,0.6c0.1-0.4,0.2,0.2,0.3,0.3l-0.1,0.1c0-0.1,0.1-0.1,0.1-0.1l0-0.4c0,0.1,0.1,0.1,0.1,0.2c0-0.2,0-0.6,0-1
							c0,0.2,0.1-0.2,0.2,0.3c-0.2-0.2,0,0.5-0.1,0.6c0-0.1,0.1-0.1,0.1,0c0,0.1,0,0.1,0,0.1C9,36.6,8.9,35.6,9,35.6
							c0,0.3,0,0.5,0.1,0.5c-0.1,0,0-0.5,0-0.7c0.1,0.2,0.1-0.2,0.2-0.1l-0.1-0.1c0-0.3,0.1-0.2,0.1-0.3c0,0.2-0.1,0.1,0,0.2
							c0.1-0.5,0.2,0.5,0.3,0.2c0,0.2,0,0.5,0,0.7c0.1-0.4,0.1,0.4,0.2,0.1c0-0.4,0-0.3,0-0.6l-0.2,0.3l0.1-0.5
							c-0.1,0-0.1,0.2-0.2,0.2c0.1-0.3,0.1-0.2,0-0.5c0.1,0.6,0.2-0.3,0.3,0.1l0,0.9c0.1,0.4,0.3-0.5,0.4-0.2l-0.1-0.2
							c0-0.4,0.1-0.1,0.2-0.2c0,0.3,0,0.4,0.1,0.6c0-0.2,0.1,0,0.2-0.6l0.1,0.4c0.2,0.2,0.2-0.9,0.3-0.8c0,0.3,0,0.6-0.1,0.8
							c0,0,0.1,0.1,0.1-0.2c0,0.2,0.1-0.4,0.2-0.1c0-0.1,0-0.5,0.1-0.4c0,0.1,0,0.2,0,0.2c0-0.2,0.1-0.2,0-0.6
							c0.1,1,0.4-0.1,0.5,0.8c0.1-0.1,0.2-0.2,0.3-0.2c0,0.1,0,0.2,0,0.1c0.1,0.3,0.1-0.9,0.2-0.6c0.1,0.5-0.1,0.3,0,0.5
							c0,1,0.2-0.1,0.3,0.5l0,0.1c0.1,0.3,0.2-0.4,0.3-0.3c0,0,0,0.1,0,0.2c0.1-0.5,0.3-0.7,0.4-0.8c0,0.4-0.1,0.2,0,0.6
							c0.1-0.1,0-0.7,0.1-0.8c0,0.2,0.1,0.4,0.1,0.8l-0.1,0c0.1,0.6,0.1,0,0.2,0.1l0,0.2c0.2-0.1,0.2-0.7,0.3-0.7l0-0.2
							c0.1-0.6,0.1,0.3,0.2-0.1l0,0.6c0.1-0.1,0.2-0.6,0.3-0.7c-0.1,0.5-0.2,0.7-0.3,1c0.1,0,0.2,0,0.2-0.4c0,0.1-0.1,0.2-0.1,0.1
							c0.1-0.5,0.2-0.7,0.3-0.7c0,1.2,0.3,0.3,0.4,1.2c0.2-0.4,0.4,0.2,0.7,0.1c-0.1-0.9,0.1,0,0.1-1c0.1-0.1,0.1,0,0.1,0l0.2,0.6
							c0,0.3-0.1,0.2,0,0.4c0.1,0.1,0.1,0.4,0.1,0.7c0-0.3,0-0.5,0.1-0.4l-0.1-0.4c0.2-0.5,0.2,0.8,0.3,0.3l-0.1,0.3
							c0.1-0.2,0.3,0,0.4-0.8c0,0.1,0,0.4,0,0.4c0.2,0.1,0.5-0.8,0.7-0.3l0,0.2c0-0.1,0.1-0.4,0.1-0.2c0,0.1,0,0.2,0,0.2
							c0-0.1,0.1-0.4,0.2-0.3l0,0.3c0.2,0.3,0.3-0.6,0.5-0.8c0,0.7,0.2,0.9,0.3,1l0,0.1c0.2,0.1,0.4-0.6,0.7-0.8
							c0.1,0.7,0.5,0.3,0.7,0.7c0-0.1,0-0.5,0-0.6c0.1,0.1,0.1-0.5,0.1,0.2l0,0c0,0.6,0.2,0.5,0.2,0.5l0-0.8
							c0.2,1.2,0.6-0.4,0.7,0.6c0.1-0.2,0.1-0.2,0.2-0.4l0,0.4c0.2,0.1,0.2,0.2,0.4,0.1l0,0.3c0.1,0,0.1-1.3,0.2-1.3l0,0.7
							c0.2,0,0.4,0.6,0.6,0c0,0.1,0,0.3,0,0.3c0.1,0,0.3,0.4,0.3-0.5c0,0.6,0.2,0.1,0.3-0.2l0,0.4c0.1-0.6,0.1-0.7,0.2-0.9
							c0,0.1,0,0.3,0,0.2c0.1,0.2,0.1-0.4,0.2-0.2l0,0.3c0.1,0,0.1-0.1,0.1-0.4c0.1-0.2,0.2,0.1,0.2,0.5c0-0.2,0.1-0.6,0.1-0.4
							c0,0.1,0,0.2,0,0.3c0.2,0.3,0.2-0.5,0.3-0.1c0,0.1,0,0.2,0,0.3c-0.1,0-0.2,0-0.2-0.1c0,0.4,0.1,0.5,0,1c0.1-0.3,0.2-1,0.3-0.8
							c0,0,0,0.1,0,0.1l0,0c0,0,0,0,0.1-0.1c0,0.1,0.1,0.1,0.1,0.1c0,0.3,0.1,0.2,0.2,0.2c0-0.4,0.1-0.4,0-0.7c0,0,0,0.1,0,0.1
							c0,0,0,0,0,0c0,0,0,0,0,0c0,0-0.1,0-0.1,0c0-0.2,0.1-0.4,0.1-0.2c0-0.3,0.1-0.6,0.1-0.7c0.1,0.6,0.2,0.9,0.2,1.3
							c0.2-0.2,0.4-0.2,0.5-1c0-0.1,0.1,0.2,0.1,0.4c0,0.1-0.1,0.1-0.1,0.2c0.1-0.2,0.3-0.1,0.3-0.7c0.1,0.3-0.1,0.5,0.1,0.4l0,0.2
							c0.3,0.9,0.5-1.5,0.8-0.3c0-0.1,0-0.1,0-0.2c0.4,0.5,0.8-0.5,1.2,0.3c0.1,0.2,0.1-0.2,0.2-0.5l0,0.5l0.1-0.5
							c0.2-0.4,0.3,1.2,0.5,0.4l0-0.3c0.1,0.1,0.2-0.2,0.2,0.2c0-0.1,0-0.3,0.1-0.2l0,0.2l0.2-0.4c0.1,0.2,0,1,0.2,1
							c0.1-0.1,0.2-0.7,0.2-0.9c0,0-0.1-0.2-0.1-0.4l0.1-0.1c0-0.7,0.1-1.5-0.1-2l-0.1,0.4l0-0.4l0.1,0c-0.1-0.3-0.1,0-0.1,0.2
							c0-0.2,0-0.3,0-0.4l-0.1,0.7c0-0.3,0.1-0.6,0-0.7c-0.1,0.3,0.1,0.6,0,0.9c-0.1-0.3,0-0.6-0.1-0.3c0-0.2,0-0.3,0-0.4
							c-0.1,0.2-0.2,0.1-0.2,0.5c-0.1-0.4-0.2,0.1-0.2-0.6c0,0.2-0.1,0.5-0.2,0.6c0.1-0.8-0.2,0-0.2-0.9c-0.1,0.7-0.3,0.3-0.4,0.7
							c0-0.1,0-0.2,0-0.1c-0.1-0.1-0.1-0.3-0.1-0.4c0,0.6-0.1,0.8-0.2,1.1c-0.1-0.6,0.1-0.7,0-1.3c0,0.5-0.2,0.5-0.1,0.9
							C27,32.2,27,32.4,27,31.9c0,0.8-0.1,0.1-0.1,0.6c-0.1-0.4,0-0.7-0.1-0.5C26.7,31.8,26.8,31.5,26.8,31.5z M24.2,32.8
							C24.2,32.8,24.2,32.8,24.2,32.8C24.3,32.8,24.3,32.8,24.2,32.8C24.3,32.8,24.3,32.8,24.2,32.8z M24,32.8
							C24,32.9,24.1,32.9,24,32.8c0.1,0.2,0.1,0.3,0.1,0.3C24.1,33.1,24.1,33,24,32.8z M24.5,35.9c0,0.1,0,0,0-0.1c0,0,0,0,0.1-0.1
							c0,0,0,0,0-0.1C24.5,35.8,24.5,35.8,24.5,35.9z"/>
						<path class="st0" d="M24.5,35.3C24.5,35.3,24.5,35.3,24.5,35.3c0-0.1,0-0.1,0-0.1C24.5,35.2,24.5,35.3,24.5,35.3
							C24.5,35.3,24.5,35.3,24.5,35.3z"/>
						<path class="st0" d="M5.1,34.7L5.1,34.7C5.1,34.7,5.1,34.6,5.1,34.7C5.1,34.6,5.1,34.6,5.1,34.7z"/>
						<polygon class="st0" points="21.1,32 21.1,32.1 21.1,32 						"/>
						<path class="st0" d="M3.9,33.1c0,0,0-0.1,0-0.1C3.9,33.1,3.9,33.1,3.9,33.1z"/>
						<path class="st0" d="M3.4,33l-0.1-0.2C3.3,33,3.4,33,3.4,33z"/>
						<path class="st0" d="M3,32.8C3,32.9,3,33,3,33c0,0,0,0,0,0L3,32.8z"/>
						<path class="st0" d="M9.2,32.3C9.2,32.3,9.2,32.3,9.2,32.3C9.3,32.2,9.3,32.2,9.2,32.3z"/>
						<path class="st0" d="M7.4,33.3c0-0.1,0-0.2,0.1-0.2C7.4,33.1,7.4,33.1,7.4,33.3z"/>
						<path class="st0" d="M11.3,31.8C11.3,31.8,11.3,31.8,11.3,31.8C11.3,31.8,11.3,31.8,11.3,31.8L11.3,31.8z"/>
						<path class="st0" d="M7.5,33.1C7.5,33.1,7.5,33.1,7.5,33.1C7.5,33.2,7.5,33.2,7.5,33.1z"/>
						<path class="st0" d="M1.3,32.6L1.3,32.6C1.3,32.6,1.3,32.7,1.3,32.6L1.3,32.6z"/>
						<path class="st0" d="M1.3,32.7L1.3,32.7C1.3,32.7,1.3,32.7,1.3,32.7z"/>
						<path class="st0" d="M1.2,32.8l0-0.1C1.2,32.7,1.2,32.7,1.2,32.8z"/>
						<path class="st0" d="M1.8,32.8l0-0.2C1.8,32.7,1.8,32.8,1.8,32.8z"/>
						<path class="st0" d="M2,32.8c0,0-0.1-0.3-0.1-0.2l0,0.1C1.8,32.4,1.9,33.1,2,32.8z"/>
						<path class="st0" d="M2.6,34.8l-0.1-0.1c0,0.2,0.1,0.4,0,0.4C2.7,35.6,2.5,34.7,2.6,34.8z"/>
						<path class="st0" d="M3,35c-0.1,0.1,0,0.2,0,0.3C3.1,35.2,3.1,35.2,3,35z"/>
						<path class="st0" d="M6,35l0,0.4C6.1,35.4,6,35.3,6,35z"/>
						<polygon class="st0" points="6.6,32.9 6.5,32.7 6.5,33.1 						"/>
						<polygon class="st0" points="6.9,35.8 6.9,35.9 7,35.7 						"/>
						<path class="st0" d="M11.9,35.7l0-0.5C11.8,35.2,11.8,35.8,11.9,35.7z"/>
						<path class="st0" d="M14,35.1c0,0.2,0.1,0.4,0.1,0.2C14.1,35.3,14.1,35.1,14,35.1z"/>
						<polygon class="st0" points="20.5,36 20.4,36.1 20.5,36 						"/>
					</g>
				</g>
			</g>
		</g>
	</g>
</g>
</svg>
